<svg width="1145" height="844" viewBox="0 0 1145 844" fill="none" xmlns="http://www.w3.org/2000/svg">
<g clip-path="url(#clip0_60_14784)">
<path d="M600.292 782.53C585.176 772.217 599.564 763.775 590.971 757.573C588.698 755.932 584.725 752.468 584.772 749.635C584.956 738.363 601.977 742.425 604.456 739.324C608.299 734.519 601.58 725.861 608.433 722.167C620.333 715.751 620.504 702.888 614.946 692.236C611.753 686.117 612.225 679.199 605.241 674.735C598.261 670.275 606.463 658.36 605.05 649.206C602.001 629.441 587.077 622.25 589.301 618.051C590.907 615.018 602.926 610.912 607.848 604.38L632.179 615.975L650.913 626.658C656.859 630.049 664.065 630.751 669.831 626.903C672.479 625.135 671.121 620.75 672.56 618.251C676.072 612.151 681.574 605.246 687.847 601.767C693.369 598.704 702.535 601.997 706.37 605.91C719.594 619.408 723.225 604.206 732.72 615.215C736.12 619.157 748.464 627.418 752.204 627.515C756.252 627.619 756.953 620.869 760.65 619.54C765.106 626.002 759.803 642.406 769.259 644.228C775.99 645.524 784.896 644.601 790.259 640.191C793.279 637.707 795.101 636.061 799.045 634.845C804.018 633.311 810.424 626.853 807.871 621.229C806.66 618.559 795.505 602.744 804.591 600.695C811.121 599.222 816.1 595.574 820.924 591.396C823.026 589.575 825.337 588.059 826.05 585.253L827.685 578.82C832.436 577.785 836.135 580.734 836.43 585.362C836.663 589.001 838.08 592.363 840.387 595.292C843.202 598.867 845.939 603.131 849.91 605.319C860.266 611.023 871.29 607.288 876.016 613.234C881.475 620.103 870.928 631.449 883.034 642.317C884.853 643.951 887.054 649.075 885.746 651.019L867.582 663.876C853.125 674.108 845.02 670.477 842.143 682.789C840.099 691.536 834.878 698.55 826.762 702.21L811.466 709.109C806.274 711.451 804.667 716.705 806.313 722.023C811.47 738.695 791.432 727.305 785.919 743.889C779.461 763.316 770.214 762.539 760.824 779.124C758.295 783.591 758.91 788.389 761.652 792.393C764.782 796.964 763.222 802.579 758.255 804.926C744.515 811.42 754.199 827.162 717.499 843.046C713.336 844.848 708.646 843.908 704.858 841.798C684.143 830.254 672.811 843.581 662.182 839.184C657.994 837.452 653.271 835.167 650.27 831.782C642.979 823.556 655.345 810.731 642.738 802.174C636.683 798.065 632.983 793.02 629.521 786.456C627.722 783.046 620.373 783.161 617.215 784.346C610.649 786.807 605.854 786.325 600.292 782.53Z" fill="#B1EAEC"/>
<path d="M612.799 696.228C607.781 687.764 613.261 686.847 602.732 676.765C589.782 664.339 616.483 654.85 588.117 624.549C586.537 622.854 585.535 619.192 586.113 617.173C587.508 612.316 600.327 609.017 605.006 602.897C593.559 587.55 575.491 597.278 572.523 579.04C571.976 575.672 571.105 569.752 568.708 567.316C563.713 562.259 558.656 558.575 552.914 554.389C547.31 550.304 539.085 559.3 536.125 549.842C534.753 545.463 532.472 541.663 528.81 538.765C514.72 527.627 518.867 520.242 511.474 519.864C506.41 519.602 502.325 518.855 497.153 517.544C493.53 519.494 491.965 528.451 484.604 527.064C480.95 526.37 478.892 523.603 478.321 519.741C477.127 511.647 465.95 517.066 465.156 507.053C464.955 504.487 462.258 502.459 459.521 502.852C458.111 503.061 456.507 503.469 455.76 503.962C453.447 505.504 458.473 513.682 450.495 515.787C441.6 518.138 461.886 531.167 446.5 540.386L434 546.886C429.555 549.315 424.86 552.362 425.5 556.386C426.374 561.882 425.5 565.886 422 569.886L411.5 579.886C404 585.886 415.588 585.236 425 594.886C430.166 600.183 440.5 604.778 440.5 615.886C440.431 623.54 434.246 629.369 433.568 629.886C433.452 640.161 430.955 648.63 433.568 658.489C434.4 661.618 439.11 664.509 441.708 666.305C449.994 672.032 438.555 679.825 450.549 687.209L463.722 695.318C468.933 698.525 473.095 703.312 474.93 709.131L478.923 721.781C480.287 726.105 483.717 728.895 487.88 730.391L506.302 737.004C524.887 743.68 534.622 739.64 556.228 751.881C572.007 760.83 570.457 774.959 579.029 773.865C583.099 773.341 587.662 768.076 589.944 764.114C592.195 760.183 580.262 755.165 581.426 748.759C582.875 740.758 590.823 737.05 598.261 737.605C608.49 738.376 595.34 725.719 607.511 718.882C615.597 714.342 617.462 704.098 612.799 696.228Z" fill="#B1EAEC"/>
<path d="M428.207 603.375C413.214 595.813 418.922 592.661 401.556 585.461C385.245 578.701 374.801 568.411 357.103 568.711C355.353 568.742 352.501 569.968 351.522 571.062C350.543 572.157 350.196 575.533 350.589 577.075C352.462 584.536 358.128 602.388 347.398 604.963L337.94 607.229L351.067 615.631C355.592 618.529 356.848 625.166 353.087 629.251C348.069 634.693 347.637 640.444 348.577 647.728C349.749 656.793 357.265 664.647 366.877 662.412C368.788 661.973 370.723 657.594 371.085 655.729L374.855 636.158C380.574 633.853 389.747 640.721 397.617 638.794C411.761 635.333 418.117 622.883 429.949 627.253C430.728 626.515 435.9 622.971 435.942 616.032C435.988 608.604 428.961 604.037 428.207 603.375Z" fill="#B1EAEC"/>
<path d="M1151.24 594.598C1145.4 603.219 1140.95 611.046 1138.37 621.04C1137.88 622.928 1135.07 626.954 1133.08 626.847C1126.43 624.294 1122.32 619.274 1117.55 613.876C1105.49 612.66 1099.86 619.298 1087.49 615.692C1067.1 609.747 1064.02 624.586 1048.99 619.073C1028.55 611.572 1019.93 634.831 993.17 623.778C985.824 620.744 977.32 621.561 969.769 619.275C959.522 616.174 950.129 612.396 939.675 609.819C935.318 608.745 930.68 606.42 927.165 603.415C923.586 586.924 915.698 572.645 904.18 560.406C900.772 556.784 899.909 552.124 899.832 547.191C897.398 542.845 888.209 542.366 890.023 536.252C897.675 510.465 908.964 509.612 901.976 499.642C896.856 492.338 892.336 485.866 885.189 479.955C887.592 468.438 896.793 469.326 890.242 458.655C887.311 453.88 886.145 447.751 884.345 442.143C883.364 439.087 881.359 434.834 881.847 431.881C886.25 405.191 877.029 405.335 882.019 394.304C885.579 386.435 891.525 374.157 882.173 367.664L871.752 360.427C861.813 353.526 863.895 345.037 862.885 333.381L880.412 333.156C890.266 333.029 899.411 335.609 908.26 339.65L938.956 353.666L970.789 371.695C976.97 375.196 984.208 377.187 991.269 375.681L1015.75 370.459C1020.81 369.38 1024.37 367.126 1028.48 363.729C1033.08 359.923 1040.53 356.15 1046.35 359.229C1052.15 362.293 1056.03 369.474 1057.26 375.67C1058.35 381.118 1057.61 386.964 1059.74 391.852C1061.95 396.918 1065.7 401.211 1068.58 405.864C1074.85 416.036 1076.59 427.59 1079.24 439.133C1080.42 444.269 1087.92 444.178 1091.63 441.793C1100.59 436.025 1109.82 433.768 1119.67 430.795C1125.22 429.119 1130 425.341 1136.12 424.256C1144.98 422.686 1155.76 424.787 1160.94 432.996C1163.79 437.526 1166.05 443.054 1167.95 448.15C1170.94 456.143 1171.07 464.324 1172.31 472.936C1173.34 480.059 1185.79 487.576 1174.89 496.547C1166.89 503.125 1149.48 515.458 1150.03 526.504C1150.35 532.941 1170.98 528.912 1171.56 541.663C1171.91 549.362 1163.05 553.573 1156.2 552.867C1153.27 552.565 1149.88 553.401 1149.14 556.314C1153.75 562.168 1169.07 565.68 1164.89 572.64C1160.48 579.985 1156.24 587.21 1151.23 594.599L1151.24 594.598Z" fill="#B1EAEC"/>
<path d="M125.811 364.573C121.275 364.169 116.795 361.757 113.378 359.439C101.339 351.273 121.683 336.381 127.087 331.615C124.896 320.324 114.316 326.249 102.238 322.491C100.069 321.817 97.9057 318.306 98.0097 316.348C98.1161 314.336 100.937 311.962 103.069 311.284C115.211 307.426 108.639 298.798 112.468 294.941C115.788 291.596 121.904 295.943 124.952 297.924C129.969 301.183 137.672 302.645 140.257 298.469C142.343 295.098 136.932 287.823 139.74 282.867C144.223 274.953 153.674 271.427 150.671 262.379C149.299 258.249 147.302 254.906 141.546 253.557C142.93 245.025 152.465 235.604 141.198 230.322C130.239 225.185 120.182 217.924 112.701 208.542C107.055 201.461 109.251 192.824 115.485 187.423C124.457 179.65 128.452 187.779 139.239 177.815L153.079 165.03C156.451 161.916 160.958 162.441 164.205 164.886C169.02 168.512 173.126 171.786 177.827 175.76C179.961 177.562 185.369 179.668 187.483 177.287L196.699 166.911C205.384 157.134 193.122 154.933 193.906 136.249C194.205 129.122 200.404 123.765 207.851 125.361C216.919 127.304 226.054 130.131 234.541 133.637C242.7 137.007 246.014 145.278 243.421 153.417C238.338 169.37 225.031 177.449 227.149 184.246C229.563 191.996 238.114 192.915 244.237 189.506L268.654 175.915C274.898 172.44 281.529 174.373 284.873 180.504C295.926 200.766 263.512 227.956 264.604 250.244C253.176 261.438 260.364 262.101 246.135 266.103C239.999 267.829 234.028 270.16 230.13 275.106C224.036 282.837 222.621 292.089 222.314 301.849C222.15 307.066 219.454 313.957 213.688 315.058C205.629 316.597 195.639 313.596 190.143 307.804C185.231 302.626 180.644 300.792 173.804 299.31C170.303 298.552 169.717 294.515 153.693 298.64C148.511 299.975 149.917 304.921 149.941 308.549C149.973 313.226 150.645 316.921 151.374 321.428C151.858 324.43 150.082 328.837 151.575 332.026C152.15 333.255 151.712 336.083 150.92 337.018C150.127 337.953 147.681 339.068 146.265 339.263C135.589 340.74 134.922 348.17 132.137 358.483C131.5 360.839 129.41 364.893 125.812 364.573L125.811 364.573Z" fill="#B1EAEC"/>
</g>
<g clip-path="url(#clip1_60_14784)">
<path d="M772.362 639.86C768.184 639.86 767.719 635.621 767.447 628.639C767.221 622.813 766.965 616.21 761.604 615.065C761.387 615.018 761.144 614.995 760.881 614.995C759.098 614.995 756.163 616.117 755.195 617.51L751.746 622.474L743.465 617.512C739.934 615.395 737.595 613.081 735.531 611.039C732.632 608.17 730.129 605.691 725.811 605.691C724.732 605.691 723.589 605.841 722.319 606.15C720.974 606.476 719.771 606.634 718.642 606.634C715.452 606.634 712.774 605.349 709.685 602.338C705.596 598.351 698.871 595.672 692.95 595.672C690.22 595.672 687.781 596.23 685.704 597.331C681.083 599.779 677.604 603.822 674.24 607.733C672.985 609.191 671.687 610.699 670.373 612.065C668.106 614.426 667.657 619.186 667.574 620.59C667.516 621.566 667.339 624.534 662.281 624.534C658.218 624.534 652.805 622.548 649.773 620.679C637.809 613.305 627.887 608.093 617.603 603.781C613.41 602.024 609.974 599.942 607.392 597.594C600.284 591.134 593.782 589.325 588.558 587.872C582.043 586.059 578.109 584.965 576.662 576.5C574.451 563.562 569.965 560.419 559.125 552.822C558.137 552.131 557.094 551.4 555.994 550.62C553.846 549.098 551.595 548.358 549.11 548.358C547.471 548.358 546.003 548.672 544.708 548.951C543.738 549.16 542.9 549.338 542.214 549.338C541.418 549.338 540.657 549.182 540.109 547.287C538.106 540.366 535.089 537.795 531.596 534.817C528.326 532.03 524.619 528.871 520.861 521.042C517.919 514.911 513.453 514.814 509.135 514.72C506.111 514.654 502.988 514.586 499.911 512.623C499.093 507.64 502.624 503.727 505.78 501.299C511.453 496.933 517.245 496.423 523.377 495.884C530.507 495.257 537.879 494.608 544.762 487.448C555.563 476.214 561.512 470.025 559.805 452.994C559.499 449.944 560.721 446.737 561.904 443.635C563.752 438.789 565.664 433.778 560.415 430.678L555.752 427.924C557.141 427.792 558.525 427.728 559.931 427.728C564.905 427.728 569.64 428.577 574.036 429.532C574.649 432.76 574.457 435.098 574.285 437.173C573.93 441.491 573.673 444.61 581.098 450.435C587.943 455.804 591.472 456.904 594.667 456.904C595.518 456.904 596.312 456.828 597.152 456.75C598.026 456.667 598.929 456.582 599.944 456.582C602.468 456.582 606.307 457.054 613.641 460.736C616.058 461.949 618.853 462.617 621.513 462.617C626.331 462.617 630.18 460.463 632.072 456.707C633.303 454.264 634.24 451.485 635.145 448.797C635.746 447.011 636.317 445.319 636.963 443.725L654.191 431.346C654.363 431.223 654.492 431.052 654.565 430.855C656.138 426.58 653.797 421.256 652.087 417.369C651.383 415.768 650.43 413.599 650.526 412.926L672.82 408.683C673.322 410.912 673.524 413.897 673.292 416.041C672.07 427.338 674.358 436.623 680.284 444.424C681.361 445.84 684.643 447.394 686.557 447.394C686.627 447.394 686.695 447.392 686.76 447.388C688.669 447.272 691.632 445.376 692.631 443.963L694.683 441.059C694.785 442.219 694.779 443.451 694.773 444.658C694.757 447.677 694.743 450.799 696.385 453.031L707.757 468.48C710.178 471.771 713.513 473.658 716.905 473.658C717.621 473.658 718.347 473.575 719.061 473.413C722.52 472.624 726.703 469.126 727.429 464.853L730.029 449.542C734.603 446.248 737.086 443.126 738.912 440.831C741.096 438.086 742.158 436.873 744.457 436.873C745.366 436.873 746.457 437.068 747.794 437.467C752.442 438.858 754.375 440.953 755.749 446.091C758.222 455.338 756.741 462.109 751.087 467.399C749.856 468.551 749.304 471.621 749.95 473.716C750.342 474.991 751.153 475.786 752.232 475.954C754.686 476.336 757.027 476.523 759.388 476.523C760.913 476.523 762.233 476.447 763.399 476.38C764.342 476.327 765.156 476.28 765.919 476.28C768.57 476.28 770.423 476.85 773.204 479.962C775.65 482.7 778.665 484.03 782.422 484.03C785.117 484.03 787.781 483.348 790.13 482.746C791.932 482.284 793.633 481.849 794.918 481.849C795.588 481.849 796.094 481.964 796.468 482.204C797.38 482.79 797.945 483.649 798.198 484.832C798.922 488.236 796.807 493.516 794.535 496.983C789.919 504.023 790.438 511.458 795.959 517.383C799.155 520.813 801.746 525.014 803.451 529.533C805.445 534.815 807.772 537.891 809.472 540.137C810.79 541.88 811.661 543.032 811.685 544.259C811.697 544.913 810.287 545.855 808.923 546.766C806.047 548.689 802.106 551.322 801.343 556.679C800.616 561.786 802.154 566.586 805.563 569.847C808.651 572.801 808.714 574.583 808.792 576.838C808.899 579.857 809.018 583.265 815.953 589.28C812.556 592.789 808.678 594.147 805.232 595.354C800.029 597.176 795.536 598.75 796.928 606.989C797.934 612.943 800.277 617.291 803.733 622.378C804.199 623.066 804.268 623.84 803.942 624.747C803.155 626.931 800.237 629.239 798.155 629.842C792.807 631.393 790.666 633.405 788.777 635.182C786.167 637.638 783.912 639.758 772.419 639.86H772.361L772.362 639.86Z" fill="#69C9CD"/>
<path d="M896.154 606.906C893.512 606.906 892.168 605.196 890.614 603.216C888.958 601.108 887.081 598.719 883.411 598.719C883.234 598.719 883.053 598.725 882.867 598.736C879.944 598.918 877.588 600.276 875.311 601.588C873.584 602.584 871.953 603.525 870.183 603.888C868.637 604.206 866.962 604.367 865.204 604.367C860.172 604.367 855.322 603.072 851.897 600.816C847.436 597.876 842.871 591.934 841.278 586.994C840.908 585.844 840.699 584.716 840.497 583.625C839.97 580.775 839.473 578.082 836.293 576.144C834.358 574.967 831.805 573.615 829.214 573.615C827.324 573.615 825.678 574.322 824.322 575.718C824.217 575.827 824.136 575.957 824.085 576.1L820.672 585.743C814.385 582.084 814.165 579.496 813.89 576.265C813.649 573.418 813.375 570.191 809.17 566.084C807.042 564.006 806.025 560.784 806.449 557.465C806.806 554.667 809.355 552.869 811.821 551.132C813.943 549.637 815.947 548.225 816.607 546.166C817.441 543.572 815.87 539.83 814.546 538.119C810.331 532.67 808.942 529.201 807.718 526.14C806.334 522.678 805.026 519.408 800.105 514.356C794.19 508.284 796.586 503.991 799.618 498.555C801.863 494.531 804.408 489.97 803.189 484.28C802.613 481.593 800.692 478.543 798.905 477.483C797.75 476.798 796.457 476.466 794.954 476.466C792.936 476.466 790.802 477.081 788.739 477.675C786.69 478.267 784.571 478.877 782.607 478.877C780.925 478.877 779.502 478.421 778.253 477.483C777.609 477 776.885 476.28 776.118 475.519C774.253 473.668 772.14 471.57 769.793 471.495L755.421 471.042C763.639 460.178 764.235 452.918 758.417 439.159C766.829 424.853 763.992 412.348 760.409 396.56C758.537 388.308 756.414 378.955 755.797 368.166C755.488 362.743 758.358 358.626 763.478 357.154C766.698 356.228 769.074 354.409 770.542 351.749C773.33 346.695 772.255 339.501 770.768 334.15C776.725 327.815 781.46 320.487 784.847 312.36C787.325 306.415 792.847 302.722 799.259 302.722C802.287 302.722 805.284 303.589 807.926 305.227C813.249 308.528 818.601 312.183 824.767 316.73C831.261 321.517 835.643 321.697 839.509 321.856C843.245 322.009 846.47 322.142 851.283 326.332L858.73 332.813L859.504 348.355C859.796 354.203 863.124 359.417 869.396 363.851L879.657 371.108C882.509 373.124 883.77 377.406 882.468 380.651L877.94 391.947C875.795 397.297 875.665 402.361 877.519 408.366C879.393 414.431 878.708 420.569 877.983 427.068C877.838 428.368 877.692 429.676 877.565 430.994C877.278 433.982 878.372 437.311 879.338 440.25C879.698 441.346 880.038 442.381 880.296 443.349C882.314 450.945 884.438 457.444 888.175 464.306L882.393 473.9C880.158 477.609 880.857 481.899 884.175 484.828C889.763 489.761 893.925 495.627 897.95 501.299C899.854 503.983 899.953 505.852 898.313 508.194C892.693 516.218 888.52 524.943 885.556 534.865C884.608 538.037 886.073 542.37 888.687 544.138L895.182 548.531C895.74 554.625 897.711 559.414 901.199 563.158C912.045 574.799 919.051 587.161 922.034 599.914L898.495 606.545C897.644 606.785 896.856 606.907 896.153 606.907L896.154 606.906Z" fill="#69C9CD"/>
<path d="M485.351 522.184C483.759 521.959 483.339 520.732 482.677 518.402C481.838 515.443 480.688 511.391 474.731 510.337C471.005 509.677 469.824 507.789 468.586 503.807C467.504 500.331 464.222 498.171 460.02 498.171C457.815 498.171 455.586 498.77 453.719 499.843C451.072 492.526 448.513 485.596 444.74 478.956C442.848 475.626 442.355 471.906 443.351 468.482C444.366 464.997 446.838 462.062 450.311 460.221C452.688 458.96 454.365 456.971 455.035 454.618C455.719 452.213 455.308 449.537 453.875 447.086C451.303 442.681 447.71 438.282 442.891 433.639C441.421 432.223 439.672 431.505 437.692 431.505C432.503 431.505 426.917 436.46 423.221 439.739C422.865 440.054 422.53 440.352 422.215 440.626C420.439 442.177 418.992 442.9 417.664 442.9C415.981 442.9 414.303 441.78 411.978 440.229C409.849 438.807 407.2 437.04 403.571 435.524C402.194 434.949 400.934 434.67 399.719 434.67C395.39 434.67 392.716 438.22 389.621 442.331C387.591 445.026 385.292 448.081 382.167 450.625C380.354 452.101 377.93 452.983 375.682 452.983C374.191 452.983 372.098 452.592 370.59 450.732C368.781 448.5 368.914 445.473 369.055 442.268C369.269 437.411 369.512 431.906 362.024 429.646C360.954 429.323 360.3 428.923 360.128 428.49C359.827 427.728 360.695 426.233 361.615 424.651C363.752 420.97 366.984 415.406 360.848 409.332C357.648 406.166 358.067 402.486 358.473 398.927C358.723 396.727 358.96 394.647 358.257 392.886C357.445 390.855 355.514 389.624 352.353 389.121C350.547 388.834 348.737 388.693 346.816 388.693C343.979 388.693 341.472 389.001 339.261 389.272C337.582 389.479 336.132 389.657 334.891 389.657C332.32 389.657 330.796 388.984 330.104 385.435C327.624 372.699 323.38 366.241 317.493 366.241C316.509 366.241 315.479 366.43 314.433 366.804C308.013 369.096 302.822 373.182 299.816 378.311C296.356 384.216 298.75 391.682 300.862 398.269C302.473 403.294 303.995 408.039 302.233 410.455C301.155 411.933 298.816 412.653 295.086 412.653C294.632 412.653 294.16 412.641 293.661 412.619C290.985 412.5 285.606 410.428 285.293 407.056C284.583 399.416 280.658 398.015 275.226 396.075L274.541 395.83C272.172 394.978 269.801 394.546 267.496 394.546C260.811 394.546 255.498 398.14 252.92 404.408C252.308 405.897 252.065 408.836 252.68 410.251C253.707 412.607 256.926 412.619 259.766 412.63C261.677 412.638 264.055 412.646 264.394 413.499C265.791 417.015 265.079 420.443 264.323 424.072C263.078 430.062 261.667 436.849 268.928 445.765C271.149 448.491 273.118 452.534 272.417 453.788C269.03 457.231 267.746 460.539 266.714 463.2C265.358 466.693 264.462 469 259.664 469.985L235.028 475.036C232.086 475.639 229.629 476.041 227.204 476.041C224.433 476.041 222.031 475.514 219.647 474.381C216.758 473.009 216.155 470.627 215.392 467.61C214.384 463.631 213.132 458.68 205.437 455.892C201.118 454.326 196.614 453.565 191.669 453.565C188.749 453.565 186.164 453.821 183.884 454.046C182.214 454.211 180.772 454.352 179.581 454.352C178.086 454.352 177.181 454.12 176.734 453.622C176.275 453.109 176.123 452.109 176.283 450.65C177.478 439.751 174.821 432.808 173.064 428.213C171.566 424.297 170.962 422.492 172.371 420.781C172.711 420.367 173.514 420.173 174.896 420.173C175.695 420.173 176.616 420.237 177.591 420.305C178.768 420.386 179.986 420.471 181.268 420.471C185.081 420.471 190.503 419.75 193.563 413.527C195.611 409.363 193.522 405.556 191.105 401.148C189.194 397.665 187.028 393.717 186.219 388.622C185.451 383.779 181.495 380.397 176.598 380.397C176.432 380.397 176.265 380.401 176.096 380.408C172.132 380.586 170.326 381.242 168.873 381.769C167.826 382.148 167.07 382.423 165.722 382.423C165.332 382.423 164.915 382.4 164.445 382.353C164.322 382.341 164.277 382.318 164.277 382.318C164.187 382.119 164.309 381.08 164.397 380.32C164.806 376.84 165.49 371.016 158.57 364.734C153.267 359.919 148.219 357.677 142.684 357.677C140.848 357.677 138.93 357.934 136.961 358.445C137.116 357.764 137.266 357.08 137.412 356.41C138.841 349.864 140.19 343.681 146.808 343.279C150.074 343.08 152.825 341.684 154.553 339.347C156.262 337.036 156.788 334.037 156.033 330.905C155.405 328.294 155.41 325.95 156.055 322.815C156.378 321.242 155.896 319.316 155.43 317.454C155.157 316.363 154.899 315.334 154.848 314.537L154.138 303.318C159.221 301.578 162.772 300.764 165.273 300.764C167.482 300.764 168.719 301.386 170.284 302.172C171.779 302.923 173.476 303.775 176.302 304.271C180.174 304.949 183.006 306.351 185.211 308.684C191.656 315.505 200.526 319.576 208.938 319.576C211.706 319.576 214.4 319.136 216.943 318.267C223.444 316.047 226.601 307.854 226.848 300.719C227.13 292.547 228.171 284.051 233.827 277.263C237.57 272.77 243.41 270.852 249.069 269.271C258.006 266.777 259.386 264.379 261.295 261.062C262.483 258.998 263.948 256.451 267.916 253.042C269.012 253.526 270.085 254.017 271.147 254.503C275.445 256.467 279.505 258.321 284.082 259.345C290.588 260.8 295.587 262.098 300.673 265.563C304.645 268.271 308.567 268.494 312.36 268.708C318.408 269.051 323.631 269.347 328.475 279.596C330.059 282.948 331.699 284.378 333.958 284.378C335.091 284.378 336.247 283.997 337.472 283.594C338.99 283.094 340.711 282.528 342.796 282.528C344.8 282.528 346.843 283.046 349.041 284.113L358.93 288.912C360.954 289.893 363.024 290.391 365.082 290.391C374.335 290.391 381.411 280.661 384.068 271.62C385.619 266.345 386.625 261.934 387.514 258.042C389.279 250.31 390.457 245.152 394.239 240.183L421.487 233.745C423.976 233.02 426.104 232.673 428.048 232.673C431.388 232.673 433.562 233.715 435.665 234.722C437.588 235.642 439.405 236.513 441.847 236.513C443.906 236.513 446.183 235.859 448.807 234.515C449.432 234.196 450.31 234.034 451.422 234.034C458.172 234.034 471.066 239.977 476.941 243.12C479.753 244.624 482.405 245.355 485.047 245.355C488.574 245.355 491.747 244.057 495.107 242.685C498.299 241.38 501.899 239.908 506.421 239.294C512.32 246.664 517.096 250.313 520.601 252.992C527.337 258.14 530.125 260.27 530.49 280.316C530.794 296.956 515.849 302.529 502.664 307.447L500.903 308.105C488.064 312.928 480.659 324.515 482.477 336.937C483.342 342.843 485.831 347.171 488.464 351.756C491.499 357.036 494.636 362.496 495.512 370.969C496.933 384.725 506.493 391.107 514.928 396.737C524.01 402.799 531.854 408.035 530.444 420.731C530.13 423.561 530.818 426.171 532.383 428.08C533.801 429.81 535.841 430.835 538.283 431.048C539.038 431.115 539.766 431.148 540.449 431.148C542.536 431.148 543.945 430.841 545.077 430.593C545.895 430.416 546.539 430.275 547.254 430.275C549.008 430.275 551.521 431.156 558.084 435.453C559.166 436.16 558.157 438.736 556.989 441.718C555.576 445.331 553.817 449.826 554.416 454.335C555.54 462.787 553.415 469.892 547.92 476.056C547.357 476.688 546.795 477.332 546.231 477.98C542.695 482.036 539.039 486.231 534.035 488.35C530.838 489.704 527.142 490.077 523.228 490.472C516.159 491.185 508.148 491.994 500.695 498.85C496.773 502.459 494.641 507.134 494.002 513.544L488.559 520.526C487.99 521.257 486.231 522.191 485.424 522.191C485.398 522.191 485.374 522.191 485.351 522.186V522.184Z" fill="#69C9CD"/>
<path d="M249.373 650.191C244.503 650.191 239.041 647.123 236.937 643.205C233.011 635.894 233.017 630.422 233.023 625.132C233.027 621.623 233.031 618.307 231.94 614.642C231.857 614.363 231.662 614.131 231.402 614.001C231.255 613.927 231.094 613.89 230.932 613.89C230.809 613.89 230.685 613.911 230.566 613.956C222.766 616.85 220.149 620.805 218.417 623.421C217.301 625.107 216.663 626 215.463 626.267C214.278 626.53 213.133 626.665 212.06 626.665C206.016 626.665 202.773 622.41 200.168 618.992C198.339 616.594 196.76 614.521 194.578 614.521C192.758 614.528 190.112 616.763 189.456 618.426L186.261 626.527C185.856 627.555 184.095 628.528 182.64 628.528C182.231 628.528 181.874 628.447 181.608 628.297C178.12 626.319 175.542 623.478 173.947 619.854C170.577 612.198 167.148 605.391 163.158 598.434C163.022 598.197 162.801 598.023 162.538 597.947L152.306 594.98C147.056 593.458 143.377 590.463 141.371 586.076C137.208 576.972 133.748 568.912 130.485 560.711C126.87 551.627 122.739 542.02 117.044 533.308C115.677 531.217 113.85 529.438 112.084 527.717C109.393 525.095 106.85 522.619 105.861 519.171C103.517 511.005 101.152 503.757 95.9296 497.727C91.4087 492.508 91.5151 487.132 91.6284 481.441C91.7626 474.66 91.9013 467.648 83.4554 461.649C79.6121 458.919 78.2285 454.711 79.4541 449.482C81.0459 442.689 86.4339 438.5 91.1868 434.804C95.8795 431.155 99.9325 428.003 99.1817 423.243C99.157 423.09 99.0992 422.942 99.0113 422.814C95.5966 417.813 94.9761 413.37 96.934 407.963C97.3464 406.823 97.6979 405.634 98.0709 404.375C99.0907 400.924 100.146 397.356 102.475 395.038C104.572 392.949 107.23 391.719 110.043 390.417C112.266 389.389 114.563 388.325 116.601 386.792C121.357 383.21 125.998 376.86 128.426 370.614C129.506 367.833 129.945 366.9 131.995 365.768C135.509 363.828 139.006 362.845 142.388 362.845C147.204 362.845 151.714 364.908 155.429 368.811C159.874 373.48 159.523 376.878 159.213 379.877C158.965 382.278 158.708 384.762 161.702 386.588C162.844 387.285 164.088 387.624 165.505 387.624C167.337 387.624 169.191 387.047 170.984 386.488C172.707 385.952 174.489 385.397 176.161 385.397C177.814 385.397 179.197 385.932 180.495 387.078C180.643 387.602 180.789 388.124 180.933 388.646C182.446 394.079 183.875 399.21 187.108 404.214C188.503 406.374 189.679 410.179 189.011 411.377C187.101 414.805 184.195 415.278 181.339 415.278C180.307 415.278 179.231 415.204 178.19 415.133C177.162 415.062 176.099 414.99 175.089 414.99C173.052 414.99 170.48 415.248 168.649 417.266C166.46 419.681 166.247 424.519 167.423 427.352C171.734 437.73 171.501 444.338 171.33 449.164C171.199 452.889 171.104 455.58 173.408 457.718C174.788 458.998 176.534 459.569 179.069 459.569C180.526 459.569 182.104 459.391 183.933 459.185C186.169 458.933 188.703 458.648 191.55 458.648C195.799 458.648 199.836 459.3 203.895 460.641C208.835 462.273 209.531 465.328 210.336 468.865C211.223 472.762 212.229 477.177 219.029 479.729C221.493 480.653 224.105 481.102 227.017 481.102C230.573 481.102 234.013 480.462 238.142 479.625L258.717 475.454C266.461 473.883 270.802 469.595 273.23 461.113C273.381 460.583 274.185 459.781 274.962 459.007C276.555 457.419 278.539 455.442 277.979 452.933C276.909 448.138 274.693 445.009 272.737 442.246C269.688 437.939 267.055 434.219 269.345 425.152C271.135 418.068 270.666 413.094 267.909 409.946C265.975 407.743 262.569 407.551 259.565 407.382C258.927 407.346 258.31 407.311 257.722 407.261C258.649 403.871 261.687 399.796 265.467 399.709C265.593 399.707 265.72 399.705 265.847 399.705C270.127 399.705 275.031 401.372 278.746 402.683L280.85 410.037C280.878 410.138 280.922 410.232 280.978 410.319C284.023 415.024 289.272 417.832 295.019 417.832C298.438 417.832 301.741 416.837 304.574 414.956C307.725 412.864 309.267 407.952 308.01 404.008L303.484 389.8C300.676 380.993 308.495 375.007 315.549 371.536C316.132 371.249 316.691 371.103 317.213 371.103C320.966 371.103 323.667 378.811 324.943 386.022C326.307 393.726 332.013 394.616 336.187 394.616C338.41 394.616 340.743 394.331 343 394.054C345.102 393.798 347.086 393.555 348.837 393.555C351.217 393.555 352.727 394.016 353.588 395.003C354.096 395.585 353.827 396.853 353.486 398.459C352.767 401.843 351.683 406.955 356.958 412.441C360.693 416.326 359.187 418.809 357.28 421.953C355.959 424.129 354.462 426.596 355.111 429.586C355.744 432.51 357.955 433.382 359.907 434.152C362.503 435.176 364.554 435.985 364.092 441.154C363.672 445.845 363.668 452.464 368.457 455.768C370.59 457.241 373.02 457.987 375.682 457.987C380.198 457.987 384.918 455.772 388.305 452.063C389.859 450.363 391.314 448.524 392.721 446.747C394.542 444.447 396.424 442.072 398.542 439.962C398.795 439.941 399.048 439.93 399.299 439.93C402.765 439.93 405.754 442.005 408.645 444.013C411.502 445.998 414.458 448.05 417.869 448.05C420.367 448.05 422.806 446.966 425.326 444.736C425.6 444.494 425.923 444.2 426.287 443.869C428.873 441.513 434.258 436.612 437.723 436.612C438.471 436.612 439.043 436.841 439.522 437.334C439.882 437.703 440.271 438.095 440.679 438.508C444.576 442.446 450.463 448.399 449.92 452.635C449.751 453.953 448.936 455.029 447.426 455.926C442.707 458.726 439.446 462.933 438.244 467.772C437.064 472.525 437.907 477.652 440.617 482.211C444.074 488.026 446.202 493.997 448.254 500.114C448.445 500.682 448.68 501.302 448.929 501.953C450.066 504.934 451.479 508.644 449.525 510.625C448.993 511.164 448.21 511.733 447.452 512.281C445.934 513.381 444.365 514.518 443.943 515.984C442.99 519.293 444.126 522.325 445.129 524.999C446.642 529.033 447.735 531.949 442.865 535.272C438.533 538.228 433.66 540.724 428.944 543.138C427.941 543.652 426.942 544.163 425.955 544.675C418.386 548.604 418.689 553.867 418.958 558.509C419.158 561.971 419.347 565.242 416.466 568.056C415.738 568.767 414.969 569.549 414.169 570.362C410.05 574.549 404.925 579.759 400.771 579.759C400.026 579.759 399.35 579.594 398.702 579.252L380.431 569.605C375.221 566.855 366.163 564.07 358.932 564.07C353.655 564.07 349.912 565.492 347.802 568.297C344.97 572.061 346.548 578.261 348.075 584.256C349.603 590.261 351.184 596.47 348.179 599.465C346.712 600.927 344.602 601.101 342.37 601.284C338.816 601.577 334.393 601.942 332.622 608.367L323.7 640.726C323.073 643.001 320.408 645.653 318.668 646.227C318.289 646.352 317.853 646.415 317.373 646.415C314.798 646.415 311.828 644.673 310.978 644.14C306.285 641.19 300.911 639.815 294.067 639.815C289.807 639.815 285.479 640.343 281.295 640.854L280.376 640.966C270.445 642.17 262.164 644.724 253.522 649.245C252.328 649.871 250.931 650.188 249.371 650.188L249.373 650.191Z" fill="#69C9CD"/>
<path d="M717.214 468.464C715.777 468.464 713.458 467.316 712.618 466.19L701.37 451.1C700.166 449.485 700.112 446.245 700.059 443.112C699.985 438.749 699.91 434.239 696.636 432.936C696.51 432.887 696.379 432.861 696.247 432.861C696.093 432.861 695.938 432.895 695.796 432.963C693.164 434.212 691.6 436.424 690.221 438.376C688.978 440.134 687.903 441.653 686.396 441.976C686.323 441.992 686.252 441.999 686.177 441.999C685.673 441.999 685.055 441.636 684.389 440.951C681.15 437.617 678.166 428.216 678.27 424.651L678.676 410.758C678.738 408.616 677.981 406.569 676.595 405.143C675.408 403.922 673.845 403.249 672.191 403.249C671.621 403.249 671.039 403.328 670.463 403.484C664.316 405.147 658.382 406.312 650.617 407.379C647.988 407.74 646.312 408.629 645.494 410.097C644.119 412.565 645.6 415.905 647.169 419.443C648.447 422.324 649.766 425.299 649.587 427.78C648.655 428.455 647.742 429.113 646.844 429.76C642.379 432.978 638.161 436.017 633.731 439.659C631.943 441.129 631.081 444.049 630.167 447.14C628.99 451.128 627.772 455.251 624.685 456.644C623.606 457.13 622.528 457.367 621.39 457.367C618.865 457.367 616.355 456.216 613.448 454.883C609.8 453.21 605.664 451.313 600.439 451.313C599.423 451.313 598.387 451.387 597.358 451.531C596.778 451.612 596.204 451.654 595.652 451.654C591.506 451.654 588.635 449.398 585.312 446.787C584.942 446.496 584.57 446.204 584.193 445.913C580.146 442.783 578.375 440.724 579.613 435.38C580.267 432.557 580.275 426.288 576.126 424.927C570.811 423.184 565.283 422.262 560.141 422.262C556.542 422.262 553.155 422.71 550.072 423.594C549.494 423.759 548.77 424.021 547.931 424.323C545.582 425.171 542.366 426.33 539.729 426.33C538.11 426.33 536.98 425.896 536.273 425.003C535.471 423.991 535.517 422.158 535.576 419.837C535.7 414.87 535.872 408.067 528.456 400.828C524.336 396.808 520.009 393.875 516.191 391.289C508.049 385.772 501.618 381.414 500.567 369.741C499.802 361.226 496.717 355.954 493.735 350.857C491.529 347.087 489.249 343.189 487.938 337.953C485.499 328.202 490.737 318.142 500.393 314.034L518.53 306.317C528.204 302.203 534.411 293.687 535.562 282.953L535.839 279.312C535.844 279.249 535.843 279.186 535.836 279.123C535.555 276.416 535.384 274.062 535.233 271.983C534.501 261.867 534.197 257.679 523.932 248.866C521.414 246.704 519.365 244.989 517.696 243.59C513.033 239.684 510.615 236.295 510.442 233.424C510.296 230.977 510.073 227.28 508.763 220.892C507.562 215.044 508.366 209.395 511.218 203.624C511.332 203.394 511.358 203.13 511.291 202.883C510.667 200.581 509.549 198.356 508.469 196.206C505.46 190.216 502.861 185.044 509.335 178.284C521.332 165.758 522.284 152.552 520.024 136.579C518.853 128.308 512.617 127.035 506.584 125.804C500.605 124.584 494.422 123.322 491.812 115.492C488.93 106.85 502.889 96.8795 511.229 90.9218C512.077 90.3167 512.871 89.7494 513.59 89.2245C515.609 87.7514 517.401 86.0872 519.134 84.4785C522.244 81.591 524.929 79.0982 527.506 79.0982C527.837 79.0982 528.167 79.1406 528.492 79.2223C531.911 80.0956 533.163 82.56 534.374 84.9441C535.635 87.4277 536.939 89.9961 540.512 90.1279C540.631 90.1325 540.748 90.134 540.862 90.134C544.936 90.134 546.419 87.3868 547.612 85.1784C548.568 83.4071 549.394 81.8778 551.278 81.3706C551.603 81.2827 551.979 81.238 552.395 81.238C554.189 81.238 556.454 82.0628 557.661 83.1566C563.152 88.1314 566.282 88.3026 569.905 88.5007C572.113 88.6209 574.616 88.7581 578.173 90.1055C582.562 91.7689 582.043 94.288 580.747 98.5961C579.95 101.247 579.125 103.988 580.123 106.589C581.339 109.763 586.048 112.344 590.618 112.344C592.155 112.344 593.56 112.058 594.793 111.493C598.198 109.935 599.941 105.344 601.786 100.485C603.089 97.0537 604.436 93.5048 606.389 90.9819C609.61 86.8195 615.871 85.2409 621.571 84.2465C621.82 84.2026 622.068 84.181 622.31 84.181C624.914 84.181 626.548 86.6869 626.764 89.0449L629.231 115.903C629.424 117.996 632.024 120.982 633.945 121.318C634.396 121.397 634.805 121.435 635.196 121.435H635.197C637.817 121.435 638.892 119.713 640.135 117.719C642.347 114.172 645.689 108.813 660.517 105.456C661.219 105.298 661.918 105.217 662.597 105.217C666.308 105.217 669.554 107.636 671.281 111.688C674.828 120.017 679.261 121.812 683.547 123.55C687.265 125.055 690.777 126.478 693.712 132.502C696.37 137.955 698.918 142.851 701.731 147.91C705.702 155.052 702.205 159.535 697.778 165.211C692.296 172.24 685.472 180.988 692.387 197.581C697.23 209.206 700.984 218.522 704.727 229.028L705.963 231.917C706.003 232.01 706.055 232.096 706.12 232.174C712.155 239.456 719.739 244.319 727.073 249.021C735.901 254.682 744.24 260.028 749.542 269.129C755.549 279.44 758.424 291.58 757.857 304.238L756.946 324.553C756.684 330.365 760.239 334.55 765.863 335.186C768.212 345.338 766.931 350.93 761.957 352.27C754.663 354.234 750.331 360.379 750.649 368.304C751.091 379.305 753.341 389.082 755.326 397.708C758.628 412.054 761.246 423.435 754.888 434.258C752.661 434.137 750.817 433.34 749.027 432.566C747.275 431.809 745.619 431.093 743.81 431.093C741.492 431.093 739.39 432.278 737.195 434.824C736.708 435.389 736.221 435.971 735.731 436.555C733.977 438.648 732.162 440.811 730.265 442.31C724.389 446.95 724.219 449.332 723.909 453.658C723.72 456.299 723.484 459.585 721.898 464.809C721.476 466.195 718.947 468.154 717.549 468.436C717.453 468.455 717.34 468.465 717.212 468.465L717.214 468.464Z" fill="#69C9CD"/>
<path d="M392.636 238.242C382.9 228.037 382.436 220.153 382.686 216.576C383.183 209.481 398.818 204.773 401.589 184.01C401.808 182.375 402.912 181.087 404.286 180.27C409.782 176.332 414.667 166.859 417.268 159.981C418.578 156.837 422.671 156.547 424.904 154.504C430.807 149.879 428.359 143.804 428.714 135.769C428.98 130.536 430.15 118.629 434.996 116.064C437.25 115.078 439.282 116.849 439.889 114.91C440.18 113.764 440.07 112.905 440.001 111.605C439.27 104.453 437.691 97.8081 436.317 90.4483C436.232 89.706 435.954 88.6685 436.565 88.1582C438.07 87.4707 440.753 88.0357 442.39 87.8106C443.396 87.8145 444.156 87.1276 444.499 86.2127C446.996 80.7144 452.441 71.0923 451.466 65.1246C451.3 64.168 451.038 63.1135 451.338 62.1346C451.631 61.094 452.332 60.1968 452.947 59.2949C456.923 53.6209 457.608 48.895 456.635 41.3564C456.466 40.0044 456.341 38.62 456.789 37.3674C457.068 36.5234 457.625 35.778 458.215 35.0904C462.382 30.2959 463.965 26.0911 463.757 18.9918C463.725 17.6869 463.706 16.3449 464.141 15.1586C465.1 12.9463 467.072 11.7978 468.298 9.49304C469.919 6.93469 470.073 4.32855 470.222 1.88582C470.168 -1.4472 473.289 -3.44439 474.444 -6.09447C476.486 -15.6773 470.43 -34.6225 473.928 -43.685C474.302 -44.5877 474.625 -45.5042 475.622 -45.8055C478.514 -46.8007 482.626 -48.5057 484.277 -51.6137C484.414 -52.2704 484.015 -52.9757 483.554 -53.4775C481.544 -55.4986 480.009 -57.6615 480.203 -59.9601C480.258 -60.6207 480.38 -61.6574 481.472 -62.9493" stroke="#DCDCD7" stroke-width="2.29925" stroke-linecap="round" stroke-linejoin="round"/>
<path d="M246 149C252.5 141.5 252.742 121.397 249.55 117.675C246.359 113.952 242.472 114.162 239.444 108.679C236.472 103.295 238.682 100.306 236.121 97.8847C230.76 92.8142 217.366 102.413 213.14 97.8847C210.194 94.7258 215.276 88.5238 211.963 84.3907C208.281 79.7982 199.38 84.1941 196.803 80.2398C194.017 75.9626 203.028 68.676 199.957 61.5421C198.765 58.7725 195.844 56.2365 193.897 56.783C189.122 58.1196 193.301 77.1188 187.874 79.2031C183.344 80.9413 178.785 68.3392 169.391 67.7857C159.039 67.176 155.144 81.9318 144.888 83.1474C139.002 83.845 129.836 80.2221 116.508 58.3054" stroke="#DCDCD7" stroke-width="2.29925" stroke-linecap="round" stroke-linejoin="round"/>
</g>
<path d="M924.043 768V751.715H926.556V758.554C926.835 758.252 927.114 757.95 927.323 757.694L927.672 757.321L932.93 751.715H936.141L930.418 757.763L936.56 768H933.628L928.603 759.625L926.556 761.765V768H924.043ZM944.997 756.251L944.601 758.508C944.299 758.415 943.996 758.368 943.694 758.368C941.995 758.368 940.809 759.881 940.809 761.928V768H938.436V756.461H940.809V758.415C941.437 757.042 942.554 756.135 944.136 756.135C944.438 756.135 944.694 756.181 944.997 756.251ZM956.529 768H954.156C953.877 767.651 953.574 767.069 953.505 765.976C952.76 767.535 951.364 768.326 949.666 768.326C947.339 768.326 945.734 766.883 945.734 764.766C945.734 762.416 947.595 761.346 949.805 760.974L953.458 760.392V759.904C953.458 758.578 952.644 757.903 951.038 757.903C949.387 757.903 948.642 758.601 948.642 759.415C948.642 759.532 948.619 759.578 948.689 759.764L946.572 760.485C946.455 760.183 946.386 759.881 946.386 759.555C946.386 757.763 948.13 756.135 951.038 756.135C954.203 756.135 955.831 757.531 955.831 760.043V765.115C955.831 766.441 955.994 767.139 956.529 768ZM950.038 766.348C952.109 766.348 953.458 764.696 953.458 762.463V762.137L950.341 762.672C948.875 762.928 948.107 763.533 948.107 764.627C948.107 765.674 948.852 766.348 950.038 766.348ZM949.48 755.065L951.015 751.621H954.063L951.457 755.065H949.48ZM958.6 768V751.715H960.973V768H958.6ZM975.611 762.23C975.611 766.255 972.493 768.326 969.446 768.326C966.398 768.326 963.281 766.255 963.281 762.23C963.281 758.252 966.398 756.135 969.446 756.135C972.493 756.135 975.611 758.252 975.611 762.23ZM969.446 766.139C971.47 766.139 973.191 764.58 973.191 762.23C973.191 759.881 971.47 758.322 969.446 758.322C967.422 758.322 965.7 759.881 965.7 762.23C965.7 764.58 967.422 766.139 969.446 766.139ZM987.703 756.461L983.05 768H980.771L976.118 756.461H978.677L981.911 765.045L985.144 756.461H987.703ZM999.709 762.742H990.566C990.636 764.789 992.055 766.255 994.079 766.255C995.964 766.255 996.848 765.231 997.522 763.859L999.36 764.952C998.267 767.186 996.638 768.326 994.009 768.326C990.845 768.326 988.193 765.86 988.193 762.23C988.193 758.601 990.845 756.135 994.126 756.135C997.453 756.135 999.709 758.554 999.709 761.905V762.742ZM994.079 758.043C992.334 758.043 990.985 759.276 990.566 760.927H997.453C997.266 759.043 995.661 758.043 994.079 758.043ZM1012.53 760.206V768H1010.16V760.927C1010.16 759.252 1009.18 758.322 1007.6 758.322C1005.9 758.322 1004.44 759.741 1004.44 761.905V768H1002.06V751.715H1004.44V758.392C1005.3 757.019 1006.76 756.135 1008.44 756.135C1010.67 756.135 1012.53 757.554 1012.53 760.206ZM1022.11 756.251L1021.72 758.508C1021.42 758.415 1021.11 758.368 1020.81 758.368C1019.11 758.368 1017.93 759.881 1017.93 761.928V768H1015.55V756.461H1017.93V758.415C1018.55 757.042 1019.67 756.135 1021.25 756.135C1021.56 756.135 1021.81 756.181 1022.11 756.251ZM1033.65 768H1031.27C1030.99 767.651 1030.69 767.069 1030.62 765.976C1029.88 767.535 1028.48 768.326 1026.78 768.326C1024.46 768.326 1022.85 766.883 1022.85 764.766C1022.85 762.416 1024.71 761.346 1026.92 760.974L1030.58 760.392V759.904C1030.58 758.578 1029.76 757.903 1028.16 757.903C1026.5 757.903 1025.76 758.601 1025.76 759.415C1025.76 759.532 1025.74 759.578 1025.81 759.764L1023.69 760.485C1023.57 760.183 1023.5 759.881 1023.5 759.555C1023.5 757.763 1025.25 756.135 1028.16 756.135C1031.32 756.135 1032.95 757.531 1032.95 760.043V765.115C1032.95 766.441 1033.11 767.139 1033.65 768ZM1027.16 766.348C1029.23 766.348 1030.58 764.696 1030.58 762.463V762.137L1027.46 762.672C1025.99 762.928 1025.22 763.533 1025.22 764.627C1025.22 765.674 1025.97 766.348 1027.16 766.348ZM1046.97 751.715V768H1044.6V766.139C1043.86 767.442 1042.55 768.326 1040.79 768.326C1037.62 768.326 1035.18 765.929 1035.18 762.23C1035.18 758.531 1037.88 756.135 1040.74 756.135C1042.58 756.135 1043.93 756.903 1044.6 758.205V751.715H1046.97ZM1041.18 766.139C1043.16 766.139 1044.76 764.557 1044.76 762.23C1044.76 759.904 1043.16 758.322 1041.18 758.322C1039.2 758.322 1037.6 759.904 1037.6 762.23C1037.6 764.557 1039.2 766.139 1041.18 766.139ZM1060.8 762.742H1051.65C1051.72 764.789 1053.14 766.255 1055.17 766.255C1057.05 766.255 1057.94 765.231 1058.61 763.859L1060.45 764.952C1059.36 767.186 1057.73 768.326 1055.1 768.326C1051.93 768.326 1049.28 765.86 1049.28 762.23C1049.28 758.601 1051.93 756.135 1055.21 756.135C1058.54 756.135 1060.8 758.554 1060.8 761.905V762.742ZM1055.17 758.043C1053.42 758.043 1052.07 759.276 1051.65 760.927H1058.54C1058.36 759.043 1056.75 758.043 1055.17 758.043ZM1071.99 763.812L1073.83 764.999C1072.73 767.162 1070.94 768.326 1068.52 768.326C1065.17 768.326 1062.54 765.86 1062.54 762.23C1062.54 758.601 1065.29 756.135 1068.52 756.135C1071.06 756.135 1072.92 757.321 1073.74 759.276L1071.85 760.532C1071.01 758.834 1069.85 758.322 1068.55 758.322C1066.57 758.322 1064.96 759.787 1064.96 762.23C1064.96 764.673 1066.5 766.139 1068.55 766.139C1070.29 766.139 1071.22 765.278 1071.99 763.812ZM1078.22 751.715V760.346L1082.15 756.461H1085.06L1080.99 760.462L1085.76 768H1082.99L1079.29 762.137L1078.22 763.207V768H1075.85V751.715H1078.22ZM1087.22 772.653L1087.59 770.489C1087.87 770.606 1088.24 770.722 1088.64 770.722C1089.27 770.722 1089.59 770.536 1090.04 769.489L1090.57 768.07L1085.87 756.461H1088.59L1091.85 764.789L1095.08 756.461H1097.71L1092.13 770.326C1091.38 772.211 1090.29 772.909 1088.9 772.909C1088.27 772.909 1087.66 772.816 1087.22 772.653ZM1090.22 755.088L1091.76 751.645H1094.8L1092.2 755.088H1090.22ZM995.334 779.715V788.346L999.266 784.461H1002.17L998.103 788.462L1002.87 796H1000.1L996.404 790.137L995.334 791.207V796H992.961V779.715H995.334ZM1010.79 784.251L1010.39 786.508C1010.09 786.415 1009.78 786.368 1009.48 786.368C1007.78 786.368 1006.6 787.881 1006.6 789.928V796H1004.22V784.461H1006.6V786.415C1007.23 785.042 1008.34 784.135 1009.92 784.135C1010.23 784.135 1010.48 784.181 1010.79 784.251ZM1022.32 796H1019.94C1019.67 795.651 1019.36 795.069 1019.29 793.976C1018.55 795.535 1017.15 796.326 1015.45 796.326C1013.13 796.326 1011.52 794.883 1011.52 792.766C1011.52 790.416 1013.38 789.346 1015.59 788.974L1019.25 788.392V787.904C1019.25 786.578 1018.43 785.903 1016.83 785.903C1015.18 785.903 1014.43 786.601 1014.43 787.415C1014.43 787.532 1014.41 787.578 1014.48 787.764L1012.36 788.485C1012.24 788.183 1012.17 787.881 1012.17 787.555C1012.17 785.763 1013.92 784.135 1016.83 784.135C1019.99 784.135 1021.62 785.531 1021.62 788.043V793.115C1021.62 794.441 1021.78 795.139 1022.32 796ZM1015.83 794.348C1017.9 794.348 1019.25 792.696 1019.25 790.463V790.137L1016.13 790.672C1014.66 790.928 1013.9 791.533 1013.9 792.627C1013.9 793.674 1014.64 794.348 1015.83 794.348ZM1022.17 800.7L1022.47 798.536C1022.78 798.652 1023.1 798.722 1023.45 798.722C1024.36 798.722 1024.68 798.187 1024.68 797.07V784.461H1027.06V797.047C1027.06 799.397 1026.08 800.909 1023.59 800.909C1023.06 800.909 1022.43 800.769 1022.17 800.7ZM1024.52 782.623V779.947H1027.22V782.623H1024.52Z" fill="#DCDCD7"/>
<path d="M299.802 782.234C299.802 783.723 301.174 784.537 304.059 785.096C307.596 785.77 309.317 787.236 309.317 789.958C309.317 792.587 307.014 794.867 303.361 794.867C299.43 794.867 297.243 792.634 296.684 789.725L298.894 788.585C299.36 791.284 300.849 792.68 303.338 792.68C305.502 792.68 306.805 791.47 306.805 790.051C306.805 788.353 305.478 787.608 302.663 787.073C299.639 786.515 297.429 785.003 297.429 782.281C297.429 779.698 299.732 777.93 303.012 777.93C305.967 777.93 308.131 779.373 309.038 781.978L307.037 783.141C306.386 781.187 305.036 780.117 302.989 780.117C301.244 780.117 299.802 780.838 299.802 782.234ZM310.571 784.91V783.002H312.432V779.884H314.806V783.002H317.388V784.91H314.806V791.028C314.806 792.168 315.271 792.727 316.388 792.727C316.643 792.727 316.992 792.657 317.248 792.587L317.458 794.588C317.016 794.751 316.411 794.867 315.736 794.867C313.968 794.867 312.432 794.076 312.432 791.447V784.91H310.571ZM326.192 782.792L325.797 785.049C325.494 784.956 325.192 784.91 324.89 784.91C323.191 784.91 322.005 786.422 322.005 788.469V794.541H319.632V783.002H322.005V784.956C322.633 783.583 323.75 782.676 325.332 782.676C325.634 782.676 325.89 782.723 326.192 782.792ZM321.679 781.629L319.259 778.186H321.144L322.61 779.698L324.075 778.186H325.983L323.54 781.629H321.679ZM338.737 789.283H329.593C329.663 791.331 331.082 792.796 333.106 792.796C334.991 792.796 335.875 791.773 336.55 790.4L338.388 791.494C337.294 793.727 335.666 794.867 333.037 794.867C329.873 794.867 327.22 792.401 327.22 788.772C327.22 785.142 329.873 782.676 333.153 782.676C336.48 782.676 338.737 785.096 338.737 788.446V789.283ZM333.106 784.584C331.362 784.584 330.012 785.817 329.593 787.469H336.48C336.294 785.584 334.688 784.584 333.106 784.584ZM352.279 778.256V794.541H349.906V792.68C349.161 793.983 347.858 794.867 346.09 794.867C342.926 794.867 340.483 792.471 340.483 788.772C340.483 785.072 343.182 782.676 346.044 782.676C347.882 782.676 349.231 783.444 349.906 784.747V778.256H352.279ZM346.486 792.68C348.463 792.68 350.068 791.098 350.068 788.772C350.068 786.445 348.463 784.863 346.486 784.863C344.508 784.863 342.903 786.445 342.903 788.772C342.903 791.098 344.508 792.68 346.486 792.68ZM366.917 788.772C366.917 792.796 363.8 794.867 360.752 794.867C357.704 794.867 354.587 792.796 354.587 788.772C354.587 784.793 357.704 782.676 360.752 782.676C363.8 782.676 366.917 784.793 366.917 788.772ZM360.752 792.68C362.776 792.68 364.498 791.121 364.498 788.772C364.498 786.422 362.776 784.863 360.752 784.863C358.728 784.863 357.006 786.422 357.006 788.772C357.006 791.121 358.728 792.68 360.752 792.68ZM377.954 790.354L379.792 791.54C378.698 793.704 376.907 794.867 374.488 794.867C371.137 794.867 368.508 792.401 368.508 788.772C368.508 785.142 371.254 782.676 374.488 782.676C377.023 782.676 378.885 783.863 379.699 785.817L377.814 787.073C376.977 785.375 375.814 784.863 374.511 784.863C372.533 784.863 370.928 786.329 370.928 788.772C370.928 791.214 372.463 792.68 374.511 792.68C376.256 792.68 377.186 791.819 377.954 790.354ZM373.51 781.629L371.091 778.186H372.975L374.441 779.698L375.907 778.186H377.814L375.372 781.629H373.51ZM392.629 789.283H383.485C383.555 791.331 384.974 792.796 386.998 792.796C388.883 792.796 389.767 791.773 390.442 790.4L392.28 791.494C391.186 793.727 389.558 794.867 386.929 794.867C383.765 794.867 381.112 792.401 381.112 788.772C381.112 785.142 383.765 782.676 387.045 782.676C390.372 782.676 392.629 785.096 392.629 788.446V789.283ZM386.998 784.584C385.254 784.584 383.904 785.817 383.485 787.469H390.372C390.186 785.584 388.58 784.584 386.998 784.584ZM396.874 785.794C396.874 786.794 397.898 787.283 399.759 787.632C402.388 788.167 403.644 789.167 403.644 791.121C403.644 793.169 402.016 794.867 399.178 794.867C396.456 794.867 394.781 793.285 394.083 791.447L396.014 790.237C396.572 791.749 397.619 792.843 399.201 792.843C400.411 792.843 401.388 792.192 401.388 791.191C401.388 790.191 400.527 789.772 398.666 789.4C396.525 788.981 394.734 787.957 394.734 785.91C394.734 783.839 396.688 782.676 398.852 782.676C401.295 782.676 402.667 783.653 403.482 785.538L401.737 786.561C401.202 785.165 400.131 784.491 398.898 784.491C397.805 784.491 396.874 784.979 396.874 785.794ZM408.369 778.256V786.887L412.301 783.002H415.209L411.138 787.003L415.907 794.541H413.139L409.44 788.678L408.369 789.749V794.541H405.996V778.256H408.369ZM417.37 799.194L417.742 797.031C418.021 797.147 418.393 797.263 418.789 797.263C419.417 797.263 419.743 797.077 420.185 796.03L420.72 794.611L416.02 783.002H418.742L421.999 791.331L425.233 783.002H427.862L422.279 796.868C421.534 798.752 420.441 799.45 419.045 799.45C418.417 799.45 417.812 799.357 417.37 799.194ZM420.371 781.629L421.906 778.186H424.954L422.348 781.629H420.371ZM347.102 806.256V814.887L351.034 811.002H353.942L349.87 815.003L354.64 822.541H351.871L348.172 816.678L347.102 817.749V822.541H344.729V806.256H347.102ZM362.553 810.792L362.157 813.049C361.855 812.956 361.553 812.91 361.25 812.91C359.552 812.91 358.365 814.422 358.365 816.469V822.541H355.992V811.002H358.365V812.956C358.993 811.583 360.11 810.676 361.692 810.676C361.995 810.676 362.251 810.723 362.553 810.792ZM374.085 822.541H371.712C371.433 822.192 371.131 821.611 371.061 820.517C370.317 822.076 368.921 822.867 367.222 822.867C364.896 822.867 363.291 821.425 363.291 819.307C363.291 816.958 365.152 815.887 367.362 815.515L371.014 814.934V814.445C371.014 813.119 370.2 812.444 368.595 812.444C366.943 812.444 366.199 813.142 366.199 813.956C366.199 814.073 366.175 814.119 366.245 814.305L364.128 815.027C364.012 814.724 363.942 814.422 363.942 814.096C363.942 812.305 365.687 810.676 368.595 810.676C371.759 810.676 373.388 812.072 373.388 814.585V819.656C373.388 820.983 373.55 821.68 374.085 822.541ZM367.595 820.889C369.665 820.889 371.014 819.238 371.014 817.004V816.678L367.897 817.214C366.431 817.47 365.664 818.074 365.664 819.168C365.664 820.215 366.408 820.889 367.595 820.889ZM373.939 827.241L374.241 825.077C374.543 825.193 374.869 825.263 375.218 825.263C376.125 825.263 376.451 824.728 376.451 823.611V811.002H378.824V823.588C378.824 825.938 377.847 827.45 375.358 827.45C374.823 827.45 374.194 827.311 373.939 827.241ZM376.288 809.164V806.488H378.987V809.164H376.288Z" fill="#DCDCD7"/>
<path d="M869.185 145.336V129.051H876.304C879.84 129.051 882.166 130.982 882.166 134.239C882.166 137.496 879.84 139.427 876.304 139.427H871.697V145.336H869.185ZM871.697 131.284V137.193H876.211C878.467 137.193 879.654 136.077 879.654 134.239C879.654 132.401 878.467 131.284 876.211 131.284H871.697ZM895.278 139.566C895.278 143.591 892.16 145.662 889.112 145.662C886.065 145.662 882.947 143.591 882.947 139.566C882.947 135.588 886.065 133.471 889.112 133.471C892.16 133.471 895.278 135.588 895.278 139.566ZM889.112 143.475C891.136 143.475 892.858 141.916 892.858 139.566C892.858 137.217 891.136 135.658 889.112 135.658C887.088 135.658 885.367 137.217 885.367 139.566C885.367 141.916 887.088 143.475 889.112 143.475ZM897.59 145.336V129.051H899.963V145.336H897.59ZM904.929 136.589C904.929 137.589 905.953 138.078 907.814 138.426C910.443 138.962 911.699 139.962 911.699 141.916C911.699 143.964 910.07 145.662 907.232 145.662C904.51 145.662 902.835 144.08 902.137 142.242L904.068 141.032C904.626 142.544 905.673 143.638 907.255 143.638C908.465 143.638 909.442 142.986 909.442 141.986C909.442 140.986 908.581 140.567 906.72 140.195C904.58 139.776 902.788 138.752 902.788 136.705C902.788 134.634 904.743 133.471 906.906 133.471C909.349 133.471 910.722 134.448 911.536 136.333L909.791 137.356C909.256 135.96 908.186 135.286 906.953 135.286C905.859 135.286 904.929 135.774 904.929 136.589ZM916.424 129.051V137.682L920.356 133.797H923.264L919.192 137.798L923.962 145.336H921.193L917.494 139.473L916.424 140.544V145.336H914.051V129.051H916.424ZM936.174 139.566C936.174 143.591 933.056 145.662 930.009 145.662C926.961 145.662 923.843 143.591 923.843 139.566C923.843 135.588 926.961 133.471 930.009 133.471C933.056 133.471 936.174 135.588 936.174 139.566ZM930.009 143.475C932.033 143.475 933.754 141.916 933.754 139.566C933.754 137.217 932.033 135.658 930.009 135.658C927.985 135.658 926.263 137.217 926.263 139.566C926.263 141.916 927.985 143.475 930.009 143.475Z" fill="#DCDCD7"/>
<path d="M284.545 75.3362V59.0507H287.104L294.409 70.404C294.525 70.5669 294.618 70.7297 294.711 70.8926C294.874 71.1485 295.037 71.4742 295.107 71.6371V59.0507H297.526V75.3362H294.967L287.662 63.9829C287.546 63.82 287.453 63.6572 287.36 63.4943C287.197 63.2384 287.034 62.936 286.964 62.7499V75.3362H284.545ZM311.414 70.0783H302.27C302.34 72.1256 303.759 73.5913 305.783 73.5913C307.668 73.5913 308.552 72.5677 309.227 71.195L311.065 72.2885C309.971 74.5219 308.343 75.6619 305.714 75.6619C302.55 75.6619 299.897 73.1958 299.897 69.5665C299.897 65.9371 302.55 63.4711 305.83 63.4711C309.157 63.4711 311.414 65.8906 311.414 69.2408V70.0783ZM305.783 65.3788C304.039 65.3788 302.689 66.6118 302.27 68.2636H309.157C308.971 66.3792 307.365 65.3788 305.783 65.3788ZM304.783 62.4241L302.363 58.9809H304.248L305.714 60.4932L307.179 58.9809H309.087L306.644 62.4241H304.783ZM329.937 66.891V75.3362H327.564V67.7053C327.564 66.3792 326.959 65.5649 325.563 65.5649C324.167 65.5649 323.027 66.5653 323.027 68.9849V75.3362H320.654V67.7751C320.654 66.4722 320.026 65.5649 318.747 65.5649C317.351 65.5649 316.141 66.6816 316.141 68.9849V75.3362H313.768V63.7968H316.141V65.4486C316.862 64.2388 318.142 63.4711 319.538 63.4711C321.12 63.4711 322.213 64.1457 322.702 65.5184C323.516 64.1225 324.795 63.4711 326.377 63.4711C328.588 63.4711 329.937 64.8437 329.937 66.891ZM343.642 70.0783H334.499C334.569 72.1256 335.988 73.5913 338.012 73.5913C339.896 73.5913 340.78 72.5677 341.455 71.195L343.293 72.2885C342.199 74.5219 340.571 75.6619 337.942 75.6619C334.778 75.6619 332.126 73.1958 332.126 69.5665C332.126 65.9371 334.778 63.4711 338.058 63.4711C341.385 63.4711 343.642 65.8906 343.642 69.2408V70.0783ZM338.012 65.3788C336.267 65.3788 334.917 66.6118 334.499 68.2636H341.385C341.199 66.3792 339.594 65.3788 338.012 65.3788ZM354.834 71.1485L356.672 72.335C355.579 74.4986 353.787 75.6619 351.368 75.6619C348.017 75.6619 345.389 73.1958 345.389 69.5665C345.389 65.9371 348.134 63.4711 351.368 63.4711C353.903 63.4711 355.765 64.6576 356.579 66.6118L354.695 67.8681C353.857 66.1698 352.694 65.658 351.391 65.658C349.413 65.658 347.808 67.1237 347.808 69.5665C347.808 72.0093 349.344 73.475 351.391 73.475C353.136 73.475 354.066 72.6142 354.834 71.1485ZM361.064 59.0507V67.682L364.996 63.7968H367.904L363.833 67.7983L368.602 75.3362H365.833L362.134 69.4734L361.064 70.5436V75.3362H358.691V59.0507H361.064ZM380.814 69.5665C380.814 73.5913 377.696 75.6619 374.649 75.6619C371.601 75.6619 368.484 73.5913 368.484 69.5665C368.484 65.5882 371.601 63.4711 374.649 63.4711C377.696 63.4711 380.814 65.5882 380.814 69.5665ZM374.649 73.475C376.673 73.475 378.394 71.9162 378.394 69.5665C378.394 67.2167 376.673 65.658 374.649 65.658C372.625 65.658 370.903 67.2167 370.903 69.5665C370.903 71.9162 372.625 73.475 374.649 73.475Z" fill="#DCDCD7"/>
<path d="M14.3503 128.715V139.207C14.3503 143.116 11.6515 145.326 7.99894 145.326C4.34635 145.326 1.64761 143.116 1.64761 139.207V128.715H4.16023V139.137C4.16023 141.417 5.57939 143.046 7.99894 143.046C10.4185 143.046 11.8377 141.417 11.8377 139.137V128.715H14.3503ZM6.41693 127.342L7.95241 123.899H11.0001L8.39445 127.342H6.41693ZM19.5511 136.252C19.5511 137.253 20.5747 137.741 22.4359 138.09C25.0649 138.625 26.3212 139.626 26.3212 141.58C26.3212 143.627 24.6926 145.326 21.8543 145.326C19.1323 145.326 17.4572 143.744 16.7593 141.906L18.6903 140.696C19.2486 142.208 20.2955 143.302 21.8776 143.302C23.0873 143.302 24.0645 142.65 24.0645 141.65C24.0645 140.649 23.2037 140.231 21.3425 139.858C19.2021 139.44 17.4107 138.416 17.4107 136.369C17.4107 134.298 19.365 133.135 21.5286 133.135C23.9714 133.135 25.344 134.112 26.1583 135.996L24.4134 137.02C23.8783 135.624 22.8082 134.95 21.5751 134.95C20.4817 134.95 19.5511 135.438 19.5511 136.252ZM27.4455 135.368V133.461H29.3067V130.343H31.6797V133.461H34.2621V135.368H31.6797V141.487C31.6797 142.627 32.145 143.185 33.2617 143.185C33.5177 143.185 33.8666 143.116 34.1226 143.046L34.3319 145.047C33.8899 145.209 33.285 145.326 32.6103 145.326C30.8422 145.326 29.3067 144.535 29.3067 141.906V135.368H27.4455ZM46.9373 139.742H37.7942C37.864 141.789 39.2832 143.255 41.3072 143.255C43.1917 143.255 44.0758 142.231 44.7504 140.859L46.5884 141.952C45.4949 144.186 43.8664 145.326 41.2374 145.326C38.0734 145.326 35.4212 142.86 35.4212 139.23C35.4212 135.601 38.0734 133.135 41.3538 133.135C44.6806 133.135 46.9373 135.554 46.9373 138.905V139.742ZM41.3072 135.043C39.5624 135.043 38.213 136.276 37.7942 137.927H44.6806C44.4945 136.043 42.8892 135.043 41.3072 135.043ZM58.1296 140.812L59.9675 141.999C58.8741 144.162 57.0827 145.326 54.6631 145.326C51.313 145.326 48.684 142.86 48.684 139.23C48.684 135.601 51.4293 133.135 54.6631 133.135C57.199 133.135 59.0602 134.321 59.8745 136.276L57.99 137.532C57.1525 135.834 55.9892 135.322 54.6864 135.322C52.7089 135.322 51.1036 136.787 51.1036 139.23C51.1036 141.673 52.6391 143.139 54.6864 143.139C56.4313 143.139 57.3619 142.278 58.1296 140.812ZM64.3595 128.715V137.346L68.2913 133.461H71.1994L67.128 137.462L71.8973 145H69.1288L65.4297 139.137L64.3595 140.207V145H61.9865V128.715H64.3595ZM73.3598 149.653L73.732 147.489C74.0112 147.606 74.3834 147.722 74.7789 147.722C75.4071 147.722 75.7328 147.536 76.1748 146.489L76.7099 145.07L72.0104 133.461H74.7324L77.9895 141.789L81.2233 133.461H83.8522L78.2687 147.326C77.5242 149.211 76.4307 149.909 75.0348 149.909C74.4067 149.909 73.8018 149.816 73.3598 149.653ZM76.3609 132.088L77.8964 128.645H80.9441L78.3385 132.088H76.3609ZM27.3342 156.715V165.346L31.266 161.461H34.1741L30.1027 165.462L34.872 173H32.1035L28.4044 167.137L27.3342 168.207V173H24.9612V156.715H27.3342ZM42.7854 161.251L42.3899 163.508C42.0874 163.415 41.785 163.368 41.4825 163.368C39.7842 163.368 38.5977 164.881 38.5977 166.928V173H36.2247V161.461H38.5977V163.415C39.2258 162.042 40.3426 161.135 41.9246 161.135C42.227 161.135 42.4829 161.181 42.7854 161.251ZM54.3179 173H51.9448C51.6657 172.651 51.3632 172.069 51.2934 170.976C50.549 172.535 49.1531 173.326 47.4547 173.326C45.1282 173.326 43.5229 171.883 43.5229 169.766C43.5229 167.416 45.3841 166.346 47.5943 165.974L51.2469 165.392V164.904C51.2469 163.578 50.4326 162.903 48.8273 162.903C47.1755 162.903 46.4311 163.601 46.4311 164.415C46.4311 164.532 46.4078 164.578 46.4776 164.764L44.3605 165.485C44.2442 165.183 44.1744 164.881 44.1744 164.555C44.1744 162.763 45.9192 161.135 48.8273 161.135C51.9914 161.135 53.6199 162.531 53.6199 165.043V170.115C53.6199 171.441 53.7828 172.139 54.3179 173ZM47.827 171.348C49.8975 171.348 51.2469 169.696 51.2469 167.463V167.137L48.1294 167.672C46.6637 167.928 45.896 168.533 45.896 169.627C45.896 170.674 46.6404 171.348 47.827 171.348ZM54.171 177.7L54.4735 175.536C54.7759 175.652 55.1016 175.722 55.4506 175.722C56.3579 175.722 56.6836 175.187 56.6836 174.07V161.461H59.0566V174.047C59.0566 176.397 58.0795 177.909 55.5902 177.909C55.0551 177.909 54.4269 177.769 54.171 177.7ZM56.5208 159.623V156.947H59.2195V159.623H56.5208Z" fill="#DCDCD7"/>
<path d="M140.899 542.173V525.887H143.574L149.088 539.683L154.602 525.887H157.277V542.173H154.858V530.889L154.393 532.192L154.02 533.192L150.298 542.173H147.878L144.156 533.192L143.784 532.192L143.318 530.889V542.173H140.899ZM170.323 542.173H167.95C167.671 541.824 167.369 541.242 167.299 540.149C166.554 541.707 165.158 542.498 163.46 542.498C161.134 542.498 159.528 541.056 159.528 538.939C159.528 536.589 161.389 535.519 163.6 535.147L167.252 534.565V534.076C167.252 532.75 166.438 532.076 164.833 532.076C163.181 532.076 162.436 532.774 162.436 533.588C162.436 533.704 162.413 533.751 162.483 533.937L160.366 534.658C160.249 534.356 160.18 534.053 160.18 533.727C160.18 531.936 161.925 530.307 164.833 530.307C167.997 530.307 169.625 531.703 169.625 534.216V539.288C169.625 540.614 169.788 541.312 170.323 542.173ZM163.832 540.521C165.903 540.521 167.252 538.869 167.252 536.636V536.31L164.135 536.845C162.669 537.101 161.901 537.706 161.901 538.799C161.901 539.846 162.646 540.521 163.832 540.521ZM163.274 529.237L164.809 525.794H167.857L165.251 529.237H163.274ZM181.3 537.985L183.138 539.171C182.045 541.335 180.253 542.498 177.834 542.498C174.484 542.498 171.855 540.032 171.855 536.403C171.855 532.774 174.6 530.307 177.834 530.307C180.37 530.307 182.231 531.494 183.045 533.448L181.161 534.705C180.323 533.006 179.16 532.494 177.857 532.494C175.88 532.494 174.274 533.96 174.274 536.403C174.274 538.846 175.81 540.311 177.857 540.311C179.602 540.311 180.533 539.451 181.3 537.985ZM195.626 534.379V542.173H193.253V535.1C193.253 533.425 192.276 532.494 190.694 532.494C188.996 532.494 187.53 533.914 187.53 536.077V542.173H185.157V525.887H187.53V532.564C188.391 531.192 189.857 530.307 191.532 530.307C193.765 530.307 195.626 531.727 195.626 534.379ZM198.443 538.055V530.633H200.816V537.566C200.816 539.358 201.723 540.311 203.375 540.311C205.073 540.311 206.399 538.869 206.399 536.868V530.633H208.772V542.173H206.399V540.311C205.655 541.707 204.329 542.498 202.654 542.498C200.397 542.498 198.443 541.102 198.443 538.055ZM201.374 527.399C201.374 526.166 202.374 525.189 203.608 525.189C204.841 525.189 205.841 526.166 205.841 527.399C205.841 528.632 204.841 529.61 203.608 529.61C202.374 529.61 201.374 528.632 201.374 527.399ZM202.7 527.399C202.7 527.934 203.072 528.33 203.608 528.33C204.143 528.33 204.515 527.934 204.515 527.399C204.515 526.864 204.143 526.469 203.608 526.469C203.072 526.469 202.7 526.864 202.7 527.399ZM221.94 530.633L217.287 542.173H215.007L210.354 530.633H212.913L216.147 539.218L219.381 530.633H221.94ZM165.901 553.887V562.518L169.832 558.633H172.74L168.669 562.635L173.438 570.173H170.67L166.971 564.31L165.901 565.38V570.173H163.528V553.887H165.901ZM181.352 558.424L180.956 560.681C180.654 560.587 180.351 560.541 180.049 560.541C178.351 560.541 177.164 562.053 177.164 564.1V570.173H174.791V558.633H177.164V560.587C177.792 559.215 178.909 558.307 180.491 558.307C180.793 558.307 181.049 558.354 181.352 558.424ZM192.884 570.173H190.511C190.232 569.824 189.93 569.242 189.86 568.149C189.115 569.707 187.719 570.498 186.021 570.498C183.695 570.498 182.089 569.056 182.089 566.939C182.089 564.589 183.951 563.519 186.161 563.147L189.813 562.565V562.076C189.813 560.75 188.999 560.076 187.394 560.076C185.742 560.076 184.997 560.774 184.997 561.588C184.997 561.704 184.974 561.751 185.044 561.937L182.927 562.658C182.811 562.356 182.741 562.053 182.741 561.727C182.741 559.936 184.486 558.307 187.394 558.307C190.558 558.307 192.186 559.703 192.186 562.216V567.288C192.186 568.614 192.349 569.312 192.884 570.173ZM186.393 568.521C188.464 568.521 189.813 566.869 189.813 564.636V564.31L186.696 564.845C185.23 565.101 184.462 565.706 184.462 566.799C184.462 567.846 185.207 568.521 186.393 568.521ZM192.737 574.872L193.04 572.708C193.342 572.825 193.668 572.895 194.017 572.895C194.924 572.895 195.25 572.36 195.25 571.243V558.633H197.623V571.22C197.623 573.569 196.646 575.082 194.157 575.082C193.621 575.082 192.993 574.942 192.737 574.872ZM195.087 556.795V554.12H197.786V556.795H195.087Z" fill="#0E1D43"/>
<path d="M587.892 260.292V271.831C587.892 274.856 585.938 276.903 582.821 276.903C580.122 276.903 577.726 275.577 577.726 271.762L580.238 272.017C580.308 273.995 581.518 274.623 582.89 274.623C584.449 274.623 585.38 273.599 585.38 271.831V260.292H587.892ZM590.682 276.577V265.038H593.055V276.577H590.682ZM590.519 263.2V260.525H593.218V263.2H590.519ZM598.063 274.577H604.926V276.577H595.364V274.577L601.855 267.039H595.643V265.038H604.554V267.039L598.063 274.577ZM617.825 271.32H608.682C608.752 273.367 610.171 274.833 612.195 274.833C614.079 274.833 614.963 273.809 615.638 272.436L617.476 273.53C616.383 275.763 614.754 276.903 612.125 276.903C608.961 276.903 606.309 274.437 606.309 270.808C606.309 267.178 608.961 264.712 612.241 264.712C615.568 264.712 617.825 267.132 617.825 270.482V271.32ZM612.195 266.62C610.45 266.62 609.101 267.853 608.682 269.505H615.568C615.382 267.62 613.777 266.62 612.195 266.62ZM626.74 264.829L626.344 267.085C626.042 266.992 625.74 266.946 625.437 266.946C623.739 266.946 622.552 268.458 622.552 270.505V276.577H620.179V265.038H622.552V266.992C623.18 265.62 624.297 264.712 625.879 264.712C626.182 264.712 626.438 264.759 626.74 264.829ZM630.244 267.83C630.244 268.83 631.268 269.319 633.129 269.668C635.758 270.203 637.015 271.203 637.015 273.157C637.015 275.205 635.386 276.903 632.548 276.903C629.826 276.903 628.151 275.321 627.453 273.483L629.384 272.273C629.942 273.786 630.989 274.879 632.571 274.879C633.781 274.879 634.758 274.228 634.758 273.227C634.758 272.227 633.897 271.808 632.036 271.436C629.895 271.017 628.104 269.993 628.104 267.946C628.104 265.876 630.058 264.712 632.222 264.712C634.665 264.712 636.037 265.689 636.852 267.574L635.107 268.598C634.572 267.202 633.502 266.527 632.269 266.527C631.175 266.527 630.244 267.016 630.244 267.83ZM641.74 260.292V268.923L645.671 265.038H648.579L644.508 269.04L649.277 276.577H646.509L642.81 270.715L641.74 271.785V276.577H639.366V260.292H641.74ZM660.675 271.32H651.532C651.602 273.367 653.021 274.833 655.045 274.833C656.93 274.833 657.814 273.809 658.488 272.436L660.326 273.53C659.233 275.763 657.604 276.903 654.975 276.903C651.811 276.903 649.159 274.437 649.159 270.808C649.159 267.178 651.811 264.712 655.092 264.712C658.418 264.712 660.675 267.132 660.675 270.482V271.32ZM655.045 266.62C653.3 266.62 651.951 267.853 651.532 269.505H658.418C658.232 267.62 656.627 266.62 655.045 266.62ZM653.347 263.665L654.882 260.222H657.93L655.324 263.665H653.347ZM606.974 296.784V304.577H604.601V297.505C604.601 295.83 603.624 294.899 602.042 294.899C600.344 294.899 598.878 296.318 598.878 298.482V304.577H596.505V288.292H598.878V294.969C599.739 293.596 601.204 292.712 602.88 292.712C605.113 292.712 606.974 294.131 606.974 296.784ZM621.491 298.808C621.491 302.833 618.373 304.903 615.325 304.903C612.278 304.903 609.16 302.833 609.16 298.808C609.16 294.829 612.278 292.712 615.325 292.712C618.373 292.712 621.491 294.829 621.491 298.808ZM615.325 302.716C617.349 302.716 619.071 301.157 619.071 298.808C619.071 296.458 617.349 294.899 615.325 294.899C613.301 294.899 611.58 296.458 611.58 298.808C611.58 301.157 613.301 302.716 615.325 302.716ZM630.364 292.829L629.968 295.085C629.666 294.992 629.363 294.946 629.061 294.946C627.363 294.946 626.176 296.458 626.176 298.505V304.577H623.803V293.038H626.176V294.992C626.804 293.62 627.921 292.712 629.503 292.712C629.805 292.712 630.061 292.759 630.364 292.829ZM632.768 309.23L633.14 307.067C633.419 307.183 633.792 307.299 634.187 307.299C634.815 307.299 635.141 307.113 635.583 306.066L636.118 304.647L631.419 293.038H634.141L637.398 301.367L640.632 293.038H643.261L637.677 306.904C636.932 308.788 635.839 309.486 634.443 309.486C633.815 309.486 633.21 309.393 632.768 309.23Z" fill="#0E1D43"/>
<path d="M318.679 327.989V311.704H321.192V325.756H329.358V327.989H318.679ZM331.186 323.871V316.45H333.559V323.383C333.559 325.174 334.467 326.128 336.118 326.128C337.817 326.128 339.143 324.686 339.143 322.685V316.45H341.516V327.989H339.143V326.128C338.398 327.524 337.072 328.315 335.397 328.315C333.14 328.315 331.186 326.919 331.186 323.871ZM346.541 325.988H353.404V327.989H343.842V325.988L350.333 318.451H344.121V316.45H353.032V318.451L346.541 325.988ZM347.681 315.077L345.261 311.634H347.146L348.611 313.146L350.077 311.634H351.985L349.542 315.077H347.681ZM355.712 327.989V316.45H358.085V327.989H355.712ZM355.549 314.612V311.936H358.248V314.612H355.549ZM369.702 323.802L371.54 324.988C370.447 327.152 368.656 328.315 366.236 328.315C362.886 328.315 360.257 325.849 360.257 322.22C360.257 318.59 363.002 316.124 366.236 316.124C368.772 316.124 370.633 317.311 371.447 319.265L369.563 320.521C368.725 318.823 367.562 318.311 366.259 318.311C364.282 318.311 362.676 319.777 362.676 322.22C362.676 324.662 364.212 326.128 366.259 326.128C368.004 326.128 368.935 325.267 369.702 323.802ZM375.932 311.704V320.335L379.864 316.45H382.772L378.701 320.451L383.47 327.989H380.702L377.003 322.126L375.932 323.197V327.989H373.559V311.704H375.932ZM394.868 322.731H385.725C385.795 324.779 387.214 326.244 389.238 326.244C391.122 326.244 392.006 325.221 392.681 323.848L394.519 324.942C393.426 327.175 391.797 328.315 389.168 328.315C386.004 328.315 383.352 325.849 383.352 322.22C383.352 318.59 386.004 316.124 389.284 316.124C392.611 316.124 394.868 318.544 394.868 321.894V322.731ZM389.238 318.032C387.493 318.032 386.144 319.265 385.725 320.917H392.611C392.425 319.032 390.82 318.032 389.238 318.032ZM387.54 315.077L389.075 311.634H392.123L389.517 315.077H387.54ZM344.152 348.196V355.989H341.779V348.917C341.779 347.242 340.802 346.311 339.22 346.311C337.521 346.311 336.056 347.73 336.056 349.894V355.989H333.683V339.704H336.056V346.381C336.917 345.008 338.382 344.124 340.057 344.124C342.291 344.124 344.152 345.543 344.152 348.196ZM358.668 350.22C358.668 354.244 355.551 356.315 352.503 356.315C349.455 356.315 346.338 354.244 346.338 350.22C346.338 346.241 349.455 344.124 352.503 344.124C355.551 344.124 358.668 346.241 358.668 350.22ZM352.503 354.128C354.527 354.128 356.249 352.569 356.249 350.22C356.249 347.87 354.527 346.311 352.503 346.311C350.479 346.311 348.757 347.87 348.757 350.22C348.757 352.569 350.479 354.128 352.503 354.128ZM367.542 344.24L367.146 346.497C366.844 346.404 366.541 346.358 366.239 346.358C364.54 346.358 363.354 347.87 363.354 349.917V355.989H360.981V344.45H363.354V346.404C363.982 345.031 365.099 344.124 366.681 344.124C366.983 344.124 367.239 344.171 367.542 344.24ZM369.946 360.642L370.318 358.479C370.597 358.595 370.969 358.711 371.365 358.711C371.993 358.711 372.319 358.525 372.761 357.478L373.296 356.059L368.596 344.45H371.318L374.576 352.779L377.809 344.45H380.438L374.855 358.316C374.11 360.2 373.017 360.898 371.621 360.898C370.993 360.898 370.388 360.805 369.946 360.642Z" fill="#0E1D43"/>
<path d="M620.516 583.203L622.447 584.575C620.795 587.344 618.841 588.856 615.328 588.856C610.675 588.856 607.255 585.343 607.255 580.388C607.255 575.432 610.908 571.919 615.445 571.919C618.771 571.919 621.284 573.664 622.401 576.13L620.4 577.572C619.213 575.316 617.631 574.199 615.398 574.199C612.327 574.199 609.814 576.805 609.814 580.388C609.814 583.924 612.164 586.576 615.375 586.576C617.585 586.576 619.283 585.529 620.516 583.203ZM614.398 570.872L611.978 567.429H613.863L615.328 568.941L616.794 567.429H618.702L616.259 570.872H614.398ZM635.299 583.272H626.156C626.226 585.32 627.645 586.785 629.669 586.785C631.554 586.785 632.438 585.762 633.112 584.389L634.95 585.483C633.857 587.716 632.228 588.856 629.599 588.856C626.435 588.856 623.783 586.39 623.783 582.761C623.783 579.131 626.435 576.665 629.716 576.665C633.043 576.665 635.299 579.085 635.299 582.435V583.272ZM629.669 578.573C627.924 578.573 626.575 579.806 626.156 581.458H633.043C632.857 579.573 631.251 578.573 629.669 578.573ZM639.545 579.783C639.545 580.783 640.569 581.272 642.43 581.621C645.059 582.156 646.315 583.156 646.315 585.11C646.315 587.158 644.687 588.856 641.848 588.856C639.126 588.856 637.451 587.274 636.753 585.436L638.684 584.226C639.243 585.738 640.29 586.832 641.872 586.832C643.081 586.832 644.059 586.181 644.059 585.18C644.059 584.18 643.198 583.761 641.337 583.389C639.196 582.97 637.405 581.946 637.405 579.899C637.405 577.828 639.359 576.665 641.523 576.665C643.966 576.665 645.338 577.642 646.152 579.527L644.408 580.55C643.872 579.155 642.802 578.48 641.569 578.48C640.476 578.48 639.545 578.968 639.545 579.783ZM651.04 572.245V580.876L654.972 576.991H657.88L653.809 580.992L658.578 588.53H655.81L652.11 582.668L651.04 583.738V588.53H648.667V572.245H651.04ZM660.041 593.183L660.413 591.02C660.692 591.136 661.064 591.252 661.46 591.252C662.088 591.252 662.414 591.066 662.856 590.019L663.391 588.6L658.691 576.991H661.413L664.67 585.32L667.904 576.991H670.533L664.949 590.857C664.205 592.741 663.111 593.439 661.716 593.439C661.087 593.439 660.483 593.346 660.041 593.183ZM663.042 575.618L664.577 572.175H667.625L665.019 575.618H663.042ZM633.519 604.781L633.123 607.038C632.821 606.945 632.518 606.899 632.216 606.899C630.518 606.899 629.331 608.411 629.331 610.458V616.53H626.958V604.991H629.331V606.945C629.959 605.572 631.076 604.665 632.658 604.665C632.961 604.665 633.216 604.712 633.519 604.781ZM645.051 616.53H642.678C642.399 616.181 642.097 615.6 642.027 614.506C641.282 616.065 639.887 616.856 638.188 616.856C635.862 616.856 634.256 615.414 634.256 613.296C634.256 610.947 636.118 609.877 638.328 609.504L641.98 608.923V608.434C641.98 607.108 641.166 606.433 639.561 606.433C637.909 606.433 637.165 607.131 637.165 607.946C637.165 608.062 637.141 608.108 637.211 608.294L635.094 609.016C634.978 608.713 634.908 608.411 634.908 608.085C634.908 606.294 636.653 604.665 639.561 604.665C642.725 604.665 644.353 606.061 644.353 608.574V613.645C644.353 614.972 644.516 615.669 645.051 616.53ZM638.56 614.878C640.631 614.878 641.98 613.227 641.98 610.993V610.668L638.863 611.203C637.397 611.459 636.629 612.063 636.629 613.157C636.629 614.204 637.374 614.878 638.56 614.878ZM638.002 603.595L639.538 600.152H642.585L639.98 603.595H638.002ZM644.904 621.23L645.207 619.066C645.509 619.182 645.835 619.252 646.184 619.252C647.091 619.252 647.417 618.717 647.417 617.6V604.991H649.79V617.577C649.79 619.927 648.813 621.439 646.324 621.439C645.789 621.439 645.16 621.3 644.904 621.23ZM647.254 603.153V600.477H649.953V603.153H647.254Z" fill="#0E1D43"/>
<path d="M840.977 451.727V435.442H843.49V442.282C843.769 441.979 844.048 441.677 844.257 441.421L844.606 441.049L849.864 435.442H853.075L847.352 441.491L853.493 451.727H850.562L845.537 443.352L843.49 445.492V451.727H840.977ZM861.93 439.979L861.535 442.235C861.233 442.142 860.93 442.096 860.628 442.096C858.929 442.096 857.743 443.608 857.743 445.655V451.727H855.37V440.188H857.743V442.142C858.371 440.77 859.488 439.862 861.07 439.862C861.372 439.862 861.628 439.909 861.93 439.979ZM866.053 435.442V444.073L869.984 440.188H872.893L868.821 444.189L873.591 451.727H870.822L867.123 445.865L866.053 446.935V451.727H863.68V435.442H866.053ZM885.803 445.958C885.803 449.982 882.685 452.053 879.637 452.053C876.59 452.053 873.472 449.982 873.472 445.958C873.472 441.979 876.59 439.862 879.637 439.862C882.685 439.862 885.803 441.979 885.803 445.958ZM879.637 449.866C881.661 449.866 883.383 448.307 883.383 445.958C883.383 443.608 881.661 442.049 879.637 442.049C877.613 442.049 875.892 443.608 875.892 445.958C875.892 448.307 877.613 449.866 879.637 449.866ZM898.445 443.887V451.727H896.072V444.585C896.072 443.003 895.164 442.049 893.513 442.049C891.861 442.049 890.488 443.468 890.488 445.632V451.727H888.115V440.188H890.488V442.119C891.302 440.746 892.745 439.862 894.42 439.862C896.677 439.862 898.445 441.281 898.445 443.887ZM912.964 445.958C912.964 449.982 909.847 452.053 906.799 452.053C903.752 452.053 900.634 449.982 900.634 445.958C900.634 441.979 903.752 439.862 906.799 439.862C909.847 439.862 912.964 441.979 912.964 445.958ZM906.799 449.866C908.823 449.866 910.545 448.307 910.545 445.958C910.545 443.608 908.823 442.049 906.799 442.049C904.775 442.049 903.054 443.608 903.054 445.958C903.054 448.307 904.775 449.866 906.799 449.866ZM917.168 442.98C917.168 443.98 918.192 444.469 920.053 444.818C922.682 445.353 923.939 446.353 923.939 448.307C923.939 450.355 922.31 452.053 919.472 452.053C916.75 452.053 915.075 450.471 914.377 448.633L916.308 447.423C916.866 448.936 917.913 450.029 919.495 450.029C920.705 450.029 921.682 449.378 921.682 448.377C921.682 447.377 920.821 446.958 918.96 446.586C916.82 446.167 915.028 445.143 915.028 443.096C915.028 441.025 916.982 439.862 919.146 439.862C921.589 439.862 922.961 440.839 923.776 442.724L922.031 443.747C921.496 442.352 920.426 441.677 919.193 441.677C918.099 441.677 917.168 442.165 917.168 442.98ZM918.192 438.815L915.773 435.372H917.657L919.123 436.884L920.588 435.372H922.496L920.053 438.815H918.192ZM936.949 446.469H927.806C927.876 448.517 929.295 449.982 931.319 449.982C933.203 449.982 934.088 448.959 934.762 447.586L936.6 448.68C935.507 450.913 933.878 452.053 931.249 452.053C928.085 452.053 925.433 449.587 925.433 445.958C925.433 442.328 928.085 439.862 931.366 439.862C934.692 439.862 936.949 442.282 936.949 445.632V446.469ZM931.319 441.77C929.574 441.77 928.225 443.003 927.806 444.655H934.692C934.506 442.77 932.901 441.77 931.319 441.77Z" fill="#0E1D43"/>
<defs>
<clipPath id="clip0_60_14784">
<rect width="1081.33" height="718.92" fill="white" transform="translate(98.0049 125.08)"/>
</clipPath>
<clipPath id="clip1_60_14784">
<rect width="1128.56" height="906.638" fill="white" transform="translate(77.9648 -63)"/>
</clipPath>
</defs>
</svg>
