<svg width="196" height="64" viewBox="0 0 196 64" fill="none" xmlns="http://www.w3.org/2000/svg">
<g clip-path="url(#clip0_1_159)">
<path d="M71.1846 0H75.4803L84.8419 14.3226C85.0021 14.5461 85.1312 14.8053 85.2603 15.0288C85.4829 15.4133 85.7099 15.8648 85.8034 16.0928V0H89.9077V22.5299H85.612L76.2504 8.10896C76.0902 7.88545 75.9611 7.62618 75.832 7.40267C75.6094 7.01823 75.3824 6.59803 75.2889 6.33876V22.5299H71.1846V0Z" fill="#0E1D43"/>
<path d="M100.672 22.9813C96.3135 22.9813 91.9866 20.1159 91.9866 14.5461C91.9866 8.97618 96.3135 6.11078 100.672 6.11078C105.03 6.11078 109.357 8.97618 109.357 14.5461C109.357 20.1159 105.03 22.9813 100.672 22.9813ZM105.257 14.5505C105.257 11.5913 103.044 9.91493 100.672 9.91493C98.2989 9.91493 96.0865 11.5868 96.0865 14.5505C96.0865 17.5143 98.2989 19.1861 100.672 19.1861C103.044 19.1861 105.257 17.5143 105.257 14.5505Z" fill="#0E1D43"/>
<path d="M120.703 10.1384C120.285 9.97751 119.871 9.91493 119.39 9.91493C116.955 9.91493 115.544 11.9444 115.544 14.6444V22.5299H111.507V6.56674H115.544V9.11029C116.443 7.2775 117.917 6.11525 119.969 6.11525C120.45 6.11525 120.931 6.17783 121.349 6.30747L120.708 10.1384H120.703Z" fill="#0E1D43"/>
<path d="M122.079 6.56674H124.545V2.25299H128.583V6.56674H132.046V9.84788H128.583V17.1209C128.583 18.7615 129.353 19.3739 130.604 19.3739C131.214 19.3739 131.596 19.2755 131.948 19.1817L132.331 22.5299C131.592 22.7891 130.568 22.9814 129.638 22.9814C126.882 22.9814 124.541 21.8549 124.541 17.8943V9.84788H122.075V6.56674H122.079Z" fill="#0E1D43"/>
<path d="M149.291 22.5299H145.254V13.3257C145.254 11.2336 144.194 9.91493 142.049 9.91493C139.774 9.91493 138.14 11.7164 138.14 14.4209V22.5343H134.103V0H138.14V9.079C139.324 7.17916 141.314 6.11972 143.651 6.11972C147.114 6.11972 149.291 8.34141 149.291 11.7522V22.5343V22.5299Z" fill="#0E1D43"/>
<path d="M155.225 15.5161C155.483 17.9613 157.179 19.508 159.583 19.508C161.796 19.508 163.078 18.3815 163.977 16.58L166.991 18.3189C165.486 21.4391 163.144 22.9858 159.521 22.9858C155.096 22.9858 151.348 19.5751 151.348 14.5505C151.348 9.52602 155.096 6.11525 159.712 6.11525C164.329 6.11525 167.471 9.46344 167.471 14.099V15.5161H155.225ZM155.225 12.5524H163.75C163.367 10.4916 161.889 9.20416 159.583 9.20416C157.402 9.20416 155.835 10.6525 155.225 12.5524Z" fill="#0E1D43"/>
<path d="M178.872 10.1384C178.453 9.97751 178.039 9.91493 177.559 9.91493C175.124 9.91493 173.712 11.9444 173.712 14.6444V22.5299H169.675V6.56674H173.712V9.11029C174.612 7.2775 176.085 6.11525 178.137 6.11525C178.618 6.11525 179.099 6.17783 179.517 6.30747L178.876 10.1384H178.872Z" fill="#0E1D43"/>
<path d="M195.805 22.5299H191.768V13.3257C191.768 11.2336 190.806 9.91493 188.532 9.91493C186.386 9.91493 184.846 11.7164 184.846 14.4209V22.5343H180.808V6.56674H184.846V9.14158C186.03 7.3088 187.922 6.11525 190.232 6.11525C193.664 6.11525 195.81 8.30565 195.81 11.6538V22.5343L195.805 22.5299Z" fill="#0E1D43"/>
<path d="M71.1846 29.5034H80.4171C85.0645 29.5034 87.5974 31.5329 87.5974 35.0062C87.5974 37.3218 86.1239 39.0294 84.4858 39.8028C86.7917 40.737 88.5233 42.315 88.5233 45.2743C88.5233 49.5567 84.8998 52.0332 80.5729 52.0332H71.1801V29.5034H71.1846ZM75.418 38.2605H80.0965C82.5004 38.2605 83.4931 37.4559 83.4931 35.7483C83.4931 34.0407 82.5004 33.236 80.0965 33.236H75.418V38.2561V38.2605ZM75.418 48.238H80.3236C83.0479 48.238 84.2988 47.1428 84.2988 45.1178C84.2988 43.0928 83.0479 41.9976 80.3236 41.9976H75.418V48.2425V48.238Z" fill="#0E1D43"/>
<path d="M98.8909 52.4847C94.5329 52.4847 90.206 49.6193 90.206 44.0495C90.206 38.4796 94.5329 35.6142 98.8909 35.6142C103.249 35.6142 107.576 38.4796 107.576 44.0495C107.576 49.6193 103.249 52.4847 98.8909 52.4847ZM103.476 44.0539C103.476 41.0946 101.264 39.4183 98.8909 39.4183C96.5183 39.4183 94.3059 41.0902 94.3059 44.0539C94.3059 47.0177 96.5183 48.6895 98.8909 48.6895C101.264 48.6895 103.476 47.0177 103.476 44.0539Z" fill="#0E1D43"/>
<path d="M124.91 52.0333H120.873V42.8291C120.873 40.737 119.813 39.4183 117.668 39.4183C115.393 39.4183 113.759 41.2198 113.759 43.9243V52.0377H109.722V29.5079H113.759V38.5869C114.943 36.687 116.933 35.6276 119.27 35.6276C122.733 35.6276 124.91 37.8493 124.91 41.26V52.0422V52.0333Z" fill="#0E1D43"/>
<path d="M130.844 45.0195C131.102 47.4647 132.798 49.0114 135.202 49.0114C137.415 49.0114 138.697 47.8849 139.596 46.0834L142.609 47.8223C141.105 50.9425 138.763 52.4892 135.14 52.4892C130.715 52.4892 126.967 49.0784 126.967 44.0539C126.967 39.0294 130.715 35.6186 135.331 35.6186C139.947 35.6186 143.09 38.9668 143.09 43.6024V45.0195H130.844ZM130.844 42.0557H139.369C138.986 39.995 137.508 38.7076 135.202 38.7076C133.021 38.7076 131.454 40.1559 130.844 42.0557Z" fill="#0E1D43"/>
<path d="M168.522 52.0332H164.484V42.1496C164.484 40.2498 163.781 39.1546 161.983 39.1546C160.184 39.1546 158.907 40.4733 158.907 43.1465V52.0288H154.869V42.2122C154.869 40.2811 154.099 39.1546 152.305 39.1546C150.734 39.1546 149.291 40.5046 149.291 43.0794V52.0288H145.254V36.0612H149.291V38.1845C150.475 36.3517 152.238 35.6097 153.908 35.6097C156.249 35.6097 157.656 36.6378 158.332 38.3455C159.485 36.4456 161.44 35.6097 163.398 35.6097C166.732 35.6097 168.526 37.6705 168.526 40.8577V52.0288L168.522 52.0332Z" fill="#0E1D43"/>
<path d="M171.344 29.5034H175.769V33.7501H171.344V29.5034ZM171.536 36.0701H175.573V52.0377H171.536V36.0701Z" fill="#0E1D43"/>
<path d="M189.244 52.0333C188.986 51.6801 188.474 50.8755 188.474 49.4897C187.352 51.5192 185.46 52.4847 183.154 52.4847C180.011 52.4847 177.803 50.5223 177.803 47.496C177.803 44.2461 180.497 42.6369 183.479 42.2167L188.256 41.4746V40.8622C188.256 39.3155 187.294 38.4483 185.34 38.4483C183.386 38.4483 182.486 39.2529 182.486 40.2498C182.486 40.3794 182.455 40.4107 182.549 40.6342L178.925 41.8591C178.734 41.4389 178.636 40.9918 178.636 40.509C178.636 38.0326 181.071 35.6186 185.335 35.6186C189.823 35.6186 192.293 37.5185 192.293 41.412V48.0771C192.293 49.9099 192.583 50.9112 193.353 52.0377H189.248L189.244 52.0333ZM188.251 44.568V44.2774L184.405 44.9211C182.642 45.2117 181.743 46.0163 181.743 47.2725C181.743 48.5286 182.705 49.2036 184.116 49.2036C186.457 49.2036 188.251 47.6569 188.251 44.568Z" fill="#0E1D43"/>
<path d="M21.7457 0H26.0415L35.4031 14.3226C35.5633 14.5461 35.6924 14.8053 35.8215 15.0288C36.0441 15.4133 36.2711 15.8648 36.3646 16.0928V0H40.4689V22.5299H36.1732L26.8116 8.10896C26.6513 7.88545 26.5222 7.62618 26.3931 7.40267C26.1706 7.01823 25.9435 6.59803 25.85 6.33876V22.5299H21.7457V0Z" fill="#0E1D43"/>
<path d="M30.266 49.892C35.0914 48.5375 38.1986 49.2394 39.957 52.6367C41.653 55.9223 40.3443 60.2316 35.7057 62.65C30.7556 65.2293 26.6914 63.8659 24.0338 60.6116L26.4644 57.2053C28.5388 59.8964 30.9203 60.9379 33.9652 59.351C36.2399 58.1664 37.1035 56.3381 36.2755 54.7377C35.314 52.8826 33.1951 52.972 29.6383 53.9867C25.672 55.1847 22.0484 54.6081 20.3079 51.2331C18.594 47.9207 20.3168 44.264 24.4701 42.1004C28.2272 40.1425 31.6593 40.4956 34.6953 43.2985L32.6208 46.5528C30.6711 44.6663 28.4586 44.2283 26.0949 45.4576C24.3321 46.3784 23.1079 47.8491 23.8424 49.2796C24.657 50.8486 26.5756 50.9381 30.2615 49.8876L30.266 49.892Z" fill="#0E1D43"/>
<path d="M2.63087 16.6068L6.76635 18.2742L4.78096 32.8069C4.72309 33.1287 4.66077 33.4506 4.64296 33.7546C4.57174 34.282 4.43374 34.8855 4.38032 35.2789C4.6118 34.957 4.94122 34.3938 5.25282 33.9647C5.44869 33.7322 5.63121 33.4595 5.80927 33.1824L14.472 21.381L18.5184 23.0126L16.6354 37.5498C16.5731 37.8716 16.5152 38.1935 16.4974 38.5019C16.4262 39.0294 16.2748 39.6597 16.2214 40.0576C16.4529 39.7357 16.769 39.2037 17.0806 38.7746C17.2764 38.5422 17.4545 38.2695 17.637 37.9923L26.224 26.1239L30.3595 27.7913L16.2481 46.3784L12.0236 44.6753L14.2049 27.9299L4.23342 41.5283L0.00891113 39.8206L2.63977 16.5979L2.63087 16.6068Z" fill="#0E1D43"/>
<path d="M51.6735 20.478L58.8048 34.2776L55.4484 36.0254L50.2668 25.9987L45.6861 28.3858L50.4537 37.6124L47.0973 39.3647L42.3297 30.1382L37.068 32.8829L42.2941 42.9945L38.9376 44.7468L31.7617 30.8623L51.6779 20.4825L51.6735 20.478Z" fill="#0E1D43"/>
</g>
<defs>
<clipPath id="clip0_1_159">
<rect width="195.805" height="64" fill="white"/>
</clipPath>
</defs>
</svg>
