<svg
                xmlns="http://www.w3.org/2000/svg"
                width="94"
                height="27"
                viewBox="0 0 94 27"
                fill="none"
              >
                <g clip-path="url(#clip0_50_13756)">
                  <path
                    d="M61.9255 21.2627C60.2032 21.2627 58.6821 20.7375 57.3897 19.6992H58.2289C59.3133 20.41 60.5496 20.7688 61.9241 20.7688C63.9175 20.7688 65.6207 20.0144 66.9884 18.5273C67.6552 17.8015 68.1617 16.9938 68.5067 16.1097H69.0366C68.6697 17.1193 68.1083 18.0389 67.354 18.8602C65.889 20.4537 64.0627 21.2614 61.9255 21.2614V21.2627ZM75.1838 13.8736H74.6868C74.6841 13.9337 74.6786 13.9937 74.6745 14.0537H75.1715C75.1756 13.9937 75.1797 13.9337 75.1838 13.8736ZM69.0215 13.8736C69.016 13.9337 69.0092 13.9937 69.0023 14.0537H69.5007C69.5062 13.9937 69.5144 13.9337 69.5185 13.8736H69.0215ZM74.6731 11.9964H75.1701C75.166 11.9363 75.1633 11.8763 75.1578 11.8163H74.6608C74.6663 11.8763 74.669 11.9363 74.6731 11.9964ZM68.9955 11.9964H69.4938C69.487 11.9363 69.4829 11.8763 69.4747 11.8163H68.9736C68.9818 11.8763 68.9887 11.9363 68.9955 11.9964ZM61.9255 4.81873C60.514 4.81873 59.2393 5.17618 58.1139 5.8788C58.181 5.92928 58.2467 5.97976 58.3111 6.03297C58.3823 6.09027 58.4507 6.15166 58.5178 6.21169C59.531 5.61412 60.6714 5.31261 61.9255 5.31261C63.9175 5.31261 65.6221 6.07253 66.9884 7.57054C67.5949 8.23496 68.0686 8.96623 68.4095 9.75889H68.9448C68.5779 8.84207 68.0495 7.99893 67.3553 7.23901C65.8904 5.63322 64.064 4.81873 61.9255 4.81873ZM46.6546 16.1111C46.745 16.5722 46.7929 17.0497 46.7929 17.5423C46.7929 20.0526 45.9317 22.0458 44.2313 23.4674C42.5186 24.8986 40.2924 25.6244 37.6145 25.6244C34.9366 25.6244 32.2819 24.7021 29.5766 22.8835L31.622 18.9325C33.9097 20.5014 35.9962 21.2968 37.8267 21.2968C38.9904 21.2968 39.968 21.0062 40.7319 20.4319C41.5178 19.8425 41.9148 18.983 41.9148 17.8779C41.9148 17.2066 41.7478 16.6159 41.4165 16.1097H40.8004C41.2152 16.5913 41.4192 17.1753 41.4192 17.8779C41.4192 18.8329 41.0961 19.5396 40.4335 20.0376C39.7571 20.5451 38.8809 20.803 37.8267 20.803C36.0373 20.803 33.9672 19.983 31.674 18.3677L31.4413 18.2039L28.9344 23.0445L29.1138 23.1673C31.9643 25.1251 34.8229 26.1169 37.6131 26.1169C40.4033 26.1169 42.7445 25.3516 44.5476 23.844C46.3644 22.3255 47.2858 20.204 47.2858 17.5409C47.2858 17.0497 47.242 16.5722 47.1571 16.1097H46.6533L46.6546 16.1111ZM74.3719 16.1097C73.8503 18.3554 72.729 20.3254 71.0176 21.9899C68.5642 24.3774 65.4988 25.5876 61.9077 25.5876C58.3166 25.5876 55.2512 24.3774 52.7978 21.9899C52.0694 21.2805 51.4492 20.5151 50.9358 19.6979H50.3539C50.918 20.6461 51.6162 21.5301 52.4514 22.3433C55.0006 24.8236 58.1824 26.0815 61.9077 26.0815C65.633 26.0815 68.8148 24.8236 71.364 22.3433C73.174 20.5819 74.3487 18.4918 74.8785 16.1097H74.3706H74.3719ZM34.5039 9.75889H35.1542L38.9672 5.27987H30.8909V1.06007H45.6182V4.5486L41.029 9.76025H41.6876L46.1125 4.73415V0.566187H30.3939V5.77375H37.8965L34.5039 9.75889ZM44.8625 11.9977C44.794 11.9363 44.7228 11.8763 44.6516 11.8176H43.8206C43.9082 11.8763 43.9945 11.9363 44.078 11.9977H44.8625ZM33.666 14.0537H33.9138V13.8736H33.666V14.0537ZM52.1899 4.72732C52.3843 4.51176 52.5842 4.29757 52.7964 4.09156C55.2498 1.70402 58.3152 0.493879 61.9063 0.493879C65.4975 0.493879 68.5629 1.70402 71.0163 4.09156C72.6729 5.70417 73.7764 7.60328 74.3185 9.76025H74.8319C74.2802 7.46549 73.1192 5.44768 71.3627 3.7382C68.8134 1.25789 65.6316 0 61.9063 0C58.181 0 54.9993 1.25789 52.45 3.7382C52.1214 4.05745 51.8147 4.38898 51.5286 4.72869C51.7477 4.72869 51.9695 4.72869 52.1899 4.72732Z"
                    fill="white"
                  />
                  <path
                    d="M19.7848 6.71094H18.7114L13.7019 17.3471V17.6568H16.1293L16.9699 15.8586H21.4975L22.3532 17.6568H24.7642V17.3471L19.7848 6.71094ZM17.7311 13.9049L19.2399 10.3236L20.7486 13.9049H17.7298H17.7311ZM2.76968 12.9485C2.76968 13.7153 2.15358 14.2174 1.39921 14.2174C0.644843 14.2174 0 13.7153 0 12.9485C0 12.1818 0.616092 11.6525 1.39921 11.6525C2.18234 11.6525 2.76968 12.1682 2.76968 12.9485ZM7.58204 12.9485C7.58204 13.7153 6.96595 14.2174 6.21158 14.2174C5.45721 14.2174 4.81237 13.7153 4.81237 12.9485C4.81237 12.1818 5.42846 11.6525 6.21158 11.6525C6.9947 11.6525 7.58204 12.1682 7.58204 12.9485ZM12.3958 12.9485C12.3958 13.7153 11.7797 14.2174 11.0253 14.2174C10.2709 14.2174 9.6261 13.7153 9.6261 12.9485C9.6261 12.1818 10.2422 11.6525 11.0253 11.6525C11.8084 11.6525 12.3958 12.1682 12.3958 12.9485Z"
                    fill="white"
                  />
                  <path
                    d="M56.3725 13.7042C57.617 13.0998 58.318 11.8897 58.318 10.5103C58.318 8.58803 56.964 6.78987 54.4749 6.78987C52.9197 6.77487 51.3794 6.78987 49.8228 6.78987V17.6429H52.1571V14.0616H54.1026L56.3424 17.6429H58.8314V17.3169L56.3725 13.7042ZM54.4585 12.153H52.1242V8.81996H54.4585C55.4538 8.81996 56.0617 9.5485 56.0617 10.464C56.0768 11.3944 55.4388 12.1543 54.4585 12.1543V12.153ZM33.6661 11.816H38.9193V14.0534H33.6661V11.816ZM26.2333 11.816H31.4865V14.0534H26.2333V11.816ZM41.1646 11.8173H46.4178V14.0548H41.1646V11.8173Z"
                    fill="white"
                  />
                  <path
                    d="M91.1625 13.7042C92.407 13.0998 93.108 11.8897 93.108 10.5103C93.108 8.58803 91.754 6.78987 89.265 6.78987C87.7097 6.77487 86.1695 6.78987 84.6128 6.78987V17.6429H86.9471V14.0616H88.8926L91.1324 17.6429H93.6214V17.3169L91.1625 13.7042ZM89.2485 12.153H86.9142V8.81996H89.2485C90.2439 8.81996 90.8518 9.5485 90.8518 10.464C90.8668 11.3944 90.2288 12.1543 89.2485 12.1543V12.153ZM61.0302 11.816H81.2147V14.0534H61.0302V11.816Z"
                    fill="white"
                  />
                </g>
                <defs>
                  <clipPath id="clip0_50_13756">
                    <rect width="93.3186" height="26.1947" fill="white" />
                  </clipPath>
                </defs>
              </svg>