<svg
                width="68"
                height="27"
                viewBox="0 0 68 27"
                fill="none"
                xmlns="http://www.w3.org/2000/svg"
              >
                <path
                  d="M12.7726 23.0777C9.31507 20.4992 6.51018 17.1613 4.57899 13.327C2.64782 9.49273 1.64316 5.26694 1.64422 0.982868C1.64422 0.759689 1.64422 0.507498 1.66226 0.259766H0.0180431C0.0180431 0.507498 0 0.752992 0 0.982868C0.00405745 5.51421 1.069 9.98298 3.1113 14.0387C5.1536 18.0944 8.1177 21.6268 11.7712 24.3588L12.7726 23.0777Z"
                  fill="white"
                />
                <path
                  d="M30.7687 23.0501C30.3943 23.0657 30.0199 23.0836 29.6252 23.0836C17.3353 23.0836 7.31435 13.1498 7.31435 0.988727C7.31435 0.765548 7.31435 0.513357 7.33237 0.265625H5.69946C5.6814 0.513357 5.6814 0.758855 5.6814 0.988727C5.69394 7.27237 8.22236 13.2951 12.7131 17.7379C17.2038 22.1807 23.2908 24.6815 29.641 24.6927C30.0537 24.6927 30.4642 24.6927 30.8566 24.6749L30.7687 23.0501Z"
                  fill="white"
                />
                <path
                  d="M21.828 24.6579C16.7888 23.0169 12.4005 19.846 9.28676 15.5958C6.17308 11.3456 4.49242 6.23236 4.4837 0.982874C4.4837 0.75969 4.4837 0.507494 4.50174 0.259766H2.85752C2.85752 0.507494 2.83948 0.752997 2.83948 0.982874C2.83948 12.7199 10.6117 22.7073 21.3116 26.1889L21.828 24.6579Z"
                  fill="white"
                />
                <path
                  d="M55.1434 13.2399V11.3496H57.3399V13.2399H55.1434Z"
                  fill="white"
                />
                <path
                  d="M57.34 21.1574V21.5279C57.3535 22.0066 57.3305 22.4856 57.2703 22.9608C57.2241 23.3178 57.0665 23.6517 56.8194 23.916C56.4966 24.2329 55.9778 24.3913 55.2834 24.3913H54.9022C54.7578 24.378 54.6148 24.3549 54.4735 24.3222V22.713L54.5998 22.7309C54.6994 22.7561 54.8049 22.7427 54.8945 22.6932C54.9846 22.6438 55.0516 22.5622 55.0824 22.4653C55.1458 22.1156 55.1693 21.76 55.1526 21.4051V14.0156H57.349L57.34 21.1574Z"
                  fill="white"
                />
                <path
                  d="M36.387 21.7787V11.4365H38.5477V16.563L40.2821 14.0187H42.4789L40.1739 16.987L42.515 21.7787H40.3159L38.9063 18.614L38.5477 19.1072V21.7787H36.387Z"
                  fill="white"
                />
                <path
                  d="M53.876 20.8562C53.8579 20.5393 53.8398 20.1153 53.8398 19.602V16.6158C53.8583 16.1416 53.8221 15.6668 53.7316 15.2009C53.6111 14.8161 53.359 14.4847 53.0186 14.2635C52.7397 14.0978 52.4346 13.9786 52.1164 13.9109C51.7166 13.8283 51.3092 13.7872 50.9009 13.7881H50.7225C48.8461 13.8395 47.9167 14.7054 47.9167 16.3859H50.1159V16.3324C50.1159 15.7677 50.3124 15.4396 50.7225 15.3772C50.7809 15.3624 50.8407 15.3564 50.9009 15.3593C51.3653 15.3593 51.5776 15.5825 51.5776 16.0668C51.5776 16.4038 51.3273 16.7028 50.8108 16.897C50.7746 16.9149 50.7565 16.9149 50.7202 16.9327C50.3798 17.0577 50.0236 17.1804 49.6849 17.3054C48.9882 17.5866 48.4876 17.9058 48.1829 18.2941C47.861 18.7089 47.6967 19.2223 47.7184 19.7448C47.6863 20.3228 47.8782 20.8911 48.2553 21.3338C48.4387 21.5354 48.6655 21.694 48.9185 21.7982C49.1716 21.9024 49.445 21.9496 49.7189 21.9364C50.0625 21.9368 50.4029 21.8701 50.7202 21.74C51.0874 21.5889 51.4169 21.3604 51.6858 21.0705L51.8099 21.7757H54.115C53.9724 21.4886 53.8909 21.1757 53.876 20.8562ZM51.5527 18.9123C51.5736 19.2761 51.5066 19.6396 51.3563 19.9724C51.2879 20.0749 51.1956 20.1592 51.0865 20.218C50.9774 20.2768 50.8556 20.3081 50.7316 20.3094H50.6415C50.5451 20.3137 50.4486 20.297 50.3595 20.2604C50.2703 20.2237 50.1901 20.1681 50.125 20.0974C49.9896 19.9307 49.9235 19.7192 49.9398 19.506C49.933 19.3375 49.9647 19.1697 50.0326 19.0151C50.1005 18.8604 50.2033 18.723 50.3323 18.6133C50.4604 18.5119 50.5976 18.4229 50.7429 18.3477C51.0045 18.2176 51.2798 18.1165 51.5641 18.0464L51.5527 18.9123Z"
                  fill="white"
                />
                <path
                  d="M43.4586 21.9195V14.1595H45.4885V15.2396C45.953 14.4786 46.5419 14.0724 47.2567 14.001V16.456C47.0399 16.4085 46.8181 16.3846 46.5958 16.3846C46.2214 16.3846 45.9711 16.5095 45.8448 16.793C45.6886 17.2409 45.622 17.7147 45.6487 18.1878V21.9172L43.4586 21.9195Z"
                  fill="white"
                />
                <path
                  d="M20.917 0.194336H18.7202V2.06905H20.917V0.194336Z"
                  fill="white"
                />
                <path
                  d="M26.1518 2.66928C25.8448 2.66169 25.5418 2.73898 25.2767 2.89246C25.0055 3.05344 24.7786 3.27803 24.6159 3.54638V0.265625H22.4236V10.6234H24.4535V9.77533C24.6568 10.1185 24.9457 10.4044 25.2925 10.6056C25.5763 10.7613 25.8974 10.8384 26.2218 10.8288C26.5857 10.8503 26.9475 10.76 27.2576 10.5702C27.5677 10.3805 27.8109 10.1005 27.954 9.76865C28.0727 9.44338 28.1485 9.10434 28.1795 8.75988C28.2156 8.30012 28.2336 7.69904 28.2336 6.95656C28.2336 5.34969 28.1253 4.27841 27.893 3.70483C27.5818 3.0219 27.0089 2.66928 26.1518 2.66928ZM25.9917 7.15966C26.017 7.66368 25.9746 8.16874 25.8654 8.66169C25.842 8.78237 25.7746 8.8904 25.6761 8.96524C25.5776 9.04012 25.4547 9.07661 25.3309 9.06785H25.2767C24.8843 9.03217 24.652 8.66165 24.6001 7.97205C24.582 7.76001 24.564 7.17528 24.564 6.24018C24.546 5.78936 24.5938 5.33836 24.7061 4.90109C24.7463 4.78362 24.8238 4.68213 24.9271 4.61177C25.0303 4.54141 25.1537 4.50588 25.279 4.51052C25.6714 4.51052 25.9038 4.82968 25.9556 5.43004C25.9737 5.62419 25.9917 6.11964 25.9917 6.94987V7.15966Z"
                  fill="white"
                />
                <path
                  d="M67.1472 0H65.1463L63.8068 1.9082H64.7719L67.1472 0Z"
                  fill="white"
                />
                <path
                  d="M14.8273 0.265625H12.3801V10.6234H17.7548V8.51883H14.8273V0.265625Z"
                  fill="white"
                />
                <path
                  d="M20.917 2.8457H18.7202V10.6236H20.917V2.8457Z"
                  fill="white"
                />
                <path
                  d="M34.5645 3.49973C34.0999 2.93508 33.3691 2.65164 32.3677 2.63379H32.3316C31.2964 2.63379 30.5273 2.89937 30.0469 3.42831C29.7245 3.77735 29.5182 4.21597 29.4559 4.6848C29.3559 5.387 29.3144 6.0961 29.3319 6.80503C29.321 7.49738 29.3686 8.18942 29.474 8.87392C29.5452 9.31331 29.7301 9.72696 30.0108 10.0746C30.2632 10.3259 30.5724 10.5141 30.913 10.6237C31.3323 10.7647 31.7739 10.8304 32.2166 10.8178H32.3587C34.1631 10.7821 35.0653 9.86263 35.0653 8.09503V7.90087H33.0241L33.0601 8.27135C33.0601 8.90964 32.8346 9.22655 32.3632 9.26227H32.3091C32.1826 9.276 32.0549 9.25103 31.9433 9.19078C31.8316 9.13053 31.7412 9.03786 31.6843 8.92527C31.5529 8.56378 31.4983 8.1793 31.5242 7.79596L31.5603 7.03491H35.1149V6.09755C35.1245 5.57099 35.0882 5.04457 35.0066 4.52411C34.9572 4.14894 34.8043 3.79448 34.5645 3.49973ZM33.0827 5.66904H31.6009V5.245C31.5732 4.9453 31.6352 4.6442 31.7791 4.37906C31.8415 4.28918 31.9272 4.21753 32.0272 4.1716C32.1271 4.12567 32.2377 4.10714 32.3474 4.11794H32.3655C32.8662 4.11794 33.1165 4.49065 33.1165 5.23385L33.0827 5.66904Z"
                  fill="white"
                />
                <path
                  d="M61.2535 2.84559H59.0543L57.3404 5.3921V0.265625H55.1797V10.6235H57.3404V7.95421L57.6989 7.45873L59.1086 10.6235H61.3051L58.9665 5.81614L61.2535 2.84559Z"
                  fill="white"
                />
                <path
                  d="M65.277 2.8457L64.5079 7.8472L63.7411 2.8457H61.5559L63.1118 9.86252C63.1458 10.0745 63.2182 10.3401 63.2902 10.6771C63.3051 10.782 63.311 10.8881 63.3083 10.994C63.3083 11.3645 63.0828 11.5609 62.5754 11.5609L62.2005 11.5252V13.15C62.4993 13.1992 62.8004 13.229 63.1028 13.2392C63.9783 13.2392 64.603 12.9915 64.9955 12.496C65.2997 12.1077 65.6021 11.2596 65.8705 9.98749L67.4491 2.8457H65.277Z"
                  fill="white"
                />
                <path
                  d="M46.3019 3.49973C45.8375 2.93508 45.0863 2.65164 44.0872 2.63379H44.0511C43.0158 2.63379 42.2468 2.89937 41.7641 3.42831C41.4423 3.77755 41.2369 4.21618 41.1754 4.6848C41.0732 5.38682 41.031 6.09606 41.0491 6.80503C41.0376 7.49748 41.0859 8.1896 41.1934 8.87392C41.2629 9.3134 41.4472 9.72732 41.728 10.0746C41.981 10.3251 42.29 10.5133 42.6302 10.6237C43.0496 10.7645 43.491 10.8303 43.9338 10.8178H44.0782C45.8823 10.7821 46.7845 9.86263 46.7845 8.09503V7.90087H44.7526L44.7886 8.27135C44.7886 8.90964 44.5631 9.22655 44.0917 9.26227H44.0376C43.9089 9.27957 43.778 9.25631 43.6634 9.19584C43.5488 9.13532 43.4564 9.04066 43.3993 8.92527C43.2656 8.56428 43.2103 8.17948 43.2369 7.79596L43.273 7.03491H46.8456V6.09755C46.8547 5.57108 46.8194 5.04475 46.7397 4.52411C46.6904 4.14966 46.5392 3.79551 46.3019 3.49973ZM44.7999 5.66904H43.3181V5.245C43.292 4.94539 43.3539 4.64474 43.4962 4.37906C43.5602 4.28793 43.6478 4.21556 43.7498 4.16959C43.8518 4.12363 43.9645 4.10579 44.0759 4.11794H44.0939C44.5924 4.11794 44.8427 4.49065 44.8427 5.23385L44.7999 5.66904Z"
                  fill="white"
                />
                <path
                  d="M51.018 2.63379C49.9284 2.63379 49.1593 2.95294 48.731 3.57114C48.3023 4.18935 48.1063 5.24947 48.1063 6.73363C48.1063 8.21774 48.3204 9.26223 48.7491 9.89831C49.1774 10.5344 49.9284 10.8178 51.018 10.8178C52.8741 10.8178 53.8216 9.84474 53.8216 7.86515L53.8035 7.56608H51.6966V7.91871C51.6966 8.81141 51.4712 9.22655 51.0362 9.22655C50.7134 9.22655 50.5355 9.05023 50.4449 8.6976C50.3472 8.04765 50.3055 7.39057 50.3209 6.73363C50.2946 6.07723 50.3363 5.41987 50.4449 4.77187C50.4581 4.62785 50.5269 4.49436 50.6369 4.39919C50.7469 4.30401 50.8899 4.25444 51.0362 4.26077C51.1421 4.25183 51.248 4.27501 51.3404 4.32723C51.4327 4.37947 51.5065 4.45826 51.5527 4.55315C51.6745 4.8687 51.7238 5.20725 51.6966 5.54407V5.76723H53.8216V5.62442C53.8216 4.60003 53.5957 3.83896 53.1448 3.36359C52.6939 2.88821 51.9809 2.63379 51.018 2.63379Z"
                  fill="white"
                />
                <path
                  d="M38.4056 3.92392V2.84596H36.3757V10.6238H38.5725V6.89445C38.5725 6.22491 38.6267 5.74509 38.753 5.47949C38.8793 5.21388 39.1274 5.07329 39.5198 5.07329C39.7366 5.08146 39.952 5.11136 40.1626 5.16258V2.6875C39.4589 2.76785 38.8703 3.16511 38.4056 3.92392Z"
                  fill="white"
                />
              </svg>