<svg
                  xmlns="http://www.w3.org/2000/svg"
                  width="165"
                  height="54"
                  viewBox="0 0 165 54"
                  fill="none"
                >
                  <g clip-path="url(#clip0_50_12977)">
                    <path
                      d="M59.9854 0H63.6053L71.494 12.0847C71.6291 12.2732 71.7378 12.492 71.8466 12.6806C72.0342 13.005 72.2255 13.3859 72.3043 13.5783V0H75.7629V19.0096H72.143L64.2542 6.84193C64.1192 6.65335 64.0104 6.43459 63.9016 6.246C63.714 5.92163 63.5227 5.56709 63.444 5.34833V19.0096H59.9854V0Z"
                      fill="white"
                    />
                    <path
                      d="M84.8332 19.3903C81.1608 19.3903 77.5147 16.9726 77.5147 12.273C77.5147 7.57345 81.1608 5.15576 84.8332 5.15576C88.5057 5.15576 92.1518 7.57345 92.1518 12.273C92.1518 16.9726 88.5057 19.3903 84.8332 19.3903ZM88.697 12.2768C88.697 9.77991 86.8326 8.36551 84.8332 8.36551C82.8339 8.36551 80.9695 9.77614 80.9695 12.2768C80.9695 14.7775 82.8339 16.1881 84.8332 16.1881C86.8326 16.1881 88.697 14.7775 88.697 12.2768Z"
                      fill="white"
                    />
                    <path
                      d="M101.714 8.55423C101.361 8.41845 101.012 8.36565 100.607 8.36565C98.5551 8.36565 97.366 10.078 97.366 12.3561V19.0095H93.9637V5.54061H97.366V7.68673C98.1237 6.14032 99.3654 5.15967 101.095 5.15967C101.5 5.15967 101.905 5.21247 102.258 5.32185L101.717 8.55423H101.714Z"
                      fill="white"
                    />
                    <path
                      d="M102.873 5.54061H104.951V1.90088H108.353V5.54061H111.272V8.30907H108.353V14.4457C108.353 15.8299 109.002 16.3466 110.056 16.3466C110.57 16.3466 110.893 16.2637 111.189 16.1845L111.512 19.0095C110.889 19.2283 110.026 19.3904 109.242 19.3904C106.92 19.3904 104.947 18.44 104.947 15.0982V8.30907H102.869V5.54061H102.873Z"
                      fill="white"
                    />
                    <path
                      d="M125.804 19.0096H122.401V11.2436C122.401 9.47838 121.509 8.36572 119.701 8.36572C117.784 8.36572 116.407 9.88573 116.407 12.1676V19.0133H113.005V0H116.407V7.6604C117.405 6.05741 119.082 5.16351 121.051 5.16351C123.969 5.16351 125.804 7.03807 125.804 9.9159V19.0133V19.0096Z"
                      fill="white"
                    />
                    <path
                      d="M130.804 13.0916C131.022 15.1548 132.451 16.4598 134.477 16.4598C136.341 16.4598 137.421 15.5093 138.179 13.9893L140.719 15.4565C139.451 18.0892 137.478 19.3942 134.424 19.3942C130.695 19.3942 127.537 16.5164 127.537 12.2769C127.537 8.0375 130.695 5.15967 134.585 5.15967C138.475 5.15967 141.124 7.9847 141.124 11.896V13.0916H130.804ZM130.804 10.591H137.988C137.665 8.8522 136.42 7.76594 134.477 7.76594C132.638 7.76594 131.318 8.98798 130.804 10.591Z"
                      fill="white"
                    />
                    <path
                      d="M150.73 8.55423C150.378 8.41845 150.029 8.36565 149.624 8.36565C147.572 8.36565 146.383 10.078 146.383 12.3561V19.0095H142.98V5.54061H146.383V7.68673C147.141 6.14032 148.382 5.15967 150.112 5.15967C150.517 5.15967 150.922 5.21247 151.274 5.32185L150.734 8.55423H150.73Z"
                      fill="white"
                    />
                    <path
                      d="M165 19.0095H161.598V11.2435C161.598 9.47831 160.787 8.36565 158.871 8.36565C157.062 8.36565 155.765 9.88566 155.765 12.1676V19.0133H152.362V5.54061H155.765V7.71314C156.762 6.16672 158.357 5.15967 160.304 5.15967C163.196 5.15967 165.004 7.00782 165.004 9.83285V19.0133L165 19.0095Z"
                      fill="white"
                    />
                    <path
                      d="M59.9853 24.8936H67.7653C71.6816 24.8936 73.816 26.6059 73.816 29.5366C73.816 31.4903 72.5743 32.9311 71.1939 33.5836C73.137 34.3719 74.5962 35.7034 74.5962 38.2003C74.5962 41.8136 71.5428 43.9031 67.8966 43.9031H59.9816V24.8936H59.9853ZM63.5527 32.2824H67.4952C69.5209 32.2824 70.3574 31.6035 70.3574 30.1627C70.3574 28.7219 69.5209 28.043 67.4952 28.043H63.5527V32.2786V32.2824ZM63.5527 40.7009H67.6865C69.9823 40.7009 71.0364 39.7768 71.0364 38.0682C71.0364 36.3596 69.9823 35.4356 67.6865 35.4356H63.5527V40.7047V40.7009Z"
                      fill="white"
                    />
                    <path
                      d="M83.3328 44.2839C79.6603 44.2839 76.0142 41.8662 76.0142 37.1666C76.0142 32.467 79.6603 30.0493 83.3328 30.0493C87.0052 30.0493 90.6514 32.467 90.6514 37.1666C90.6514 41.8662 87.0052 44.2839 83.3328 44.2839ZM87.1965 37.1704C87.1965 34.6735 85.3322 33.2591 83.3328 33.2591C81.3334 33.2591 79.469 34.6697 79.469 37.1704C79.469 39.671 81.3334 41.0817 83.3328 41.0817C85.3322 41.0817 87.1965 39.671 87.1965 37.1704Z"
                      fill="white"
                    />
                    <path
                      d="M105.258 43.9033H101.856V36.1372C101.856 34.3721 100.963 33.2594 99.1553 33.2594C97.2384 33.2594 95.8617 34.7794 95.8617 37.0613V43.907H92.4594V24.8975H95.8617V32.5579C96.8596 30.9549 98.5363 30.061 100.506 30.061C103.424 30.061 105.258 31.9355 105.258 34.8134V43.9108V43.9033Z"
                      fill="white"
                    />
                    <path
                      d="M110.259 37.9852C110.476 40.0483 111.906 41.3534 113.931 41.3534C115.796 41.3534 116.876 40.4029 117.634 38.8829L120.173 40.3501C118.905 42.9827 116.932 44.2878 113.879 44.2878C110.15 44.2878 106.992 41.4099 106.992 37.1705C106.992 32.9311 110.15 30.0532 114.04 30.0532C117.93 30.0532 120.578 32.8783 120.578 36.7895V37.9852H110.259ZM110.259 35.4845H117.442C117.12 33.7458 115.874 32.6595 113.931 32.6595C112.093 32.6595 110.773 33.8815 110.259 35.4845Z"
                      fill="white"
                    />
                    <path
                      d="M142.009 43.9033H138.607V35.564C138.607 33.961 138.014 33.0369 136.498 33.0369C134.983 33.0369 133.906 34.1495 133.906 36.405V43.8995H130.504V35.6168C130.504 33.9874 129.855 33.0369 128.343 33.0369C127.019 33.0369 125.804 34.176 125.804 36.3485V43.8995H122.401V30.4268H125.804V32.2184C126.802 30.672 128.287 30.0459 129.694 30.0459C131.667 30.0459 132.852 30.9134 133.422 32.3542C134.394 30.7512 136.041 30.0459 137.691 30.0459C140.501 30.0459 142.013 31.7847 142.013 34.4739V43.8995L142.009 43.9033Z"
                      fill="white"
                    />
                    <path
                      d="M144.387 24.8936H148.116V28.4767H144.387V24.8936ZM144.549 30.4342H147.951V43.9069H144.549V30.4342Z"
                      fill="white"
                    />
                    <path
                      d="M159.471 43.9031C159.253 43.6051 158.822 42.9262 158.822 41.7569C157.876 43.4693 156.282 44.284 154.339 44.284C151.691 44.284 149.83 42.6282 149.83 40.0747C149.83 37.3327 152.1 35.9749 154.613 35.6203L158.638 34.9942V34.4775C158.638 33.1725 157.828 32.4407 156.181 32.4407C154.534 32.4407 153.776 33.1196 153.776 33.9607C153.776 34.0701 153.75 34.0965 153.829 34.2851L150.775 35.3186C150.614 34.964 150.532 34.5869 150.532 34.1795C150.532 32.09 152.584 30.0532 156.177 30.0532C159.958 30.0532 162.04 31.6562 162.04 34.9414V40.5651C162.04 42.1115 162.284 42.9563 162.933 43.9068H159.474L159.471 43.9031ZM158.634 37.6042V37.3591L155.393 37.9022C153.908 38.1474 153.15 38.8263 153.15 39.8861C153.15 40.946 153.96 41.5155 155.149 41.5155C157.122 41.5155 158.634 40.2105 158.634 37.6042Z"
                      fill="white"
                    />
                    <path
                      d="M18.3246 0H21.9445L29.8332 12.0847C29.9683 12.2732 30.0771 12.492 30.1859 12.6806C30.3734 13.005 30.5647 13.3859 30.6435 13.5783V0H34.1021V19.0096H30.4822L22.5934 6.84193C22.4584 6.65335 22.3496 6.43459 22.2408 6.246C22.0533 5.92163 21.862 5.56709 21.7832 5.34833V19.0096H18.3246V0Z"
                      fill="white"
                    />
                    <path
                      d="M25.5044 42.0966C29.5707 40.9537 32.189 41.5459 33.6707 44.4124C35.0999 47.1846 33.9971 50.8206 30.0883 52.8611C25.917 55.0374 22.4922 53.887 20.2527 51.1412L22.3009 48.2671C24.0489 50.5377 26.0558 51.4165 28.6216 50.0776C30.5385 49.078 31.2662 47.5354 30.5685 46.1851C29.7582 44.6198 27.9727 44.6953 24.9755 45.5515C21.6331 46.5623 18.5797 46.0757 17.1129 43.2281C15.6687 40.4332 17.1205 37.3479 20.6203 35.5224C23.7863 33.8704 26.6785 34.1684 29.2368 36.5332L27.4888 39.2791C25.8457 37.6874 23.9814 37.3178 21.9895 38.355C20.504 39.132 19.4725 40.3729 20.0914 41.5798C20.7779 42.9037 22.3946 42.9791 25.5006 42.0928L25.5044 42.0966Z"
                      fill="white"
                    />
                    <path
                      d="M2.21696 14.0119L5.70182 15.4188L4.02879 27.6807C3.98002 27.9523 3.9275 28.2239 3.9125 28.4803C3.85248 28.9254 3.73619 29.4346 3.69118 29.7665C3.88624 29.4949 4.16383 29.0197 4.42641 28.6576C4.59147 28.4615 4.74526 28.2314 4.89531 27.9976L12.1951 18.0402L15.605 19.4168L14.0182 31.6825C13.9657 31.9541 13.9169 32.2257 13.9019 32.4859C13.8419 32.931 13.7144 33.4628 13.6694 33.7985C13.8644 33.5269 14.1308 33.0781 14.3933 32.716C14.5584 32.5199 14.7084 32.2898 14.8622 32.0559L22.0983 22.042L25.5831 23.4488L13.6919 39.1317L10.132 37.6947L11.9701 23.5658L3.56739 35.0394L0.00750732 33.5986L2.22446 14.0044L2.21696 14.0119Z"
                      fill="white"
                    />
                    <path
                      d="M43.5439 17.2783L49.5533 28.9217L46.7249 30.3964L42.3585 21.9364L38.4985 23.9505L42.516 31.7354L39.6876 33.2139L35.6701 25.429L31.2362 27.7449L35.6401 36.2766L32.8117 37.7551L26.7648 26.0401L43.5476 17.2821L43.5439 17.2783Z"
                      fill="white"
                    />
                  </g>
                  <defs>
                    <clipPath id="clip0_50_12977">
                      <rect width="165" height="54" fill="white" />
                    </clipPath>
                  </defs>
                </svg>