<svg
                xmlns="http://www.w3.org/2000/svg"
                width="126"
                height="21"
                viewBox="0 0 126 21"
                fill="none"
              >
                <g clip-path="url(#clip0_50_13761)">
                  <path
                    d="M21.9092 4.49902H24.0208V12.7267L27.2835 8.71765H29.5874L26.0454 12.9011L29.884 17.834H27.4413L24.0211 13.3543V17.834H21.9095L21.9092 4.49902Z"
                    fill="white"
                  />
                  <path
                    d="M30.2844 14.5571V8.71777H32.3956V14.3134C32.3956 15.6901 32.9714 16.318 34.1928 16.318C35.3273 16.318 36.3218 15.5859 36.3218 14.1391V8.71777H38.4334V17.8341H36.3218V16.4048C35.8678 17.2938 34.9082 18.0084 33.4251 18.0084C31.6279 18.0084 30.2844 16.9804 30.2844 14.5571Z"
                    fill="white"
                  />
                  <path
                    d="M39.5488 13.4243V13.2849C39.5488 10.3739 41.2765 8.52625 43.6498 8.52625C45.1326 8.52625 46.0577 9.20606 46.5637 10.1128V4.49902H48.6749V17.8343H46.5637V16.3004C46.0751 17.2072 44.9061 18.0087 43.5626 18.0087C41.2765 18.0087 39.5488 16.3876 39.5488 13.4243ZM46.6335 13.3197V13.1806C46.6335 11.1757 45.7087 10.1818 44.1733 10.1818C42.62 10.1818 41.7127 11.2629 41.7127 13.2326V13.3717C41.7127 15.3766 42.7247 16.3353 44.086 16.3353C45.5517 16.3353 46.6335 15.3592 46.6335 13.3197Z"
                    fill="white"
                  />
                  <path
                    d="M53.1587 16.9103L49.5466 8.71777H51.8327L54.258 14.592L56.4913 8.71777H58.5502L53.5771 20.9549H51.5008L53.1584 16.9103H53.1587Z"
                    fill="white"
                  />
                  <path
                    d="M58.4802 17.5904L63.3137 10.3911H58.9517V8.71777H66.4373V9.0141L61.6212 16.1437H66.2973V17.8345H58.4802V17.5908V17.5904Z"
                    fill="white"
                  />
                  <path
                    d="M67.3438 8.71846H69.4553V10.1649C69.8915 9.2759 70.9035 8.52637 72.4044 8.52637C74.2361 8.52637 75.5276 9.59 75.5276 12.0997V17.8348H73.416V12.2918C73.416 10.9147 72.8574 10.2872 71.6014 10.2872C70.415 10.2872 69.4553 11.0193 69.4553 12.4661V17.8348H67.3438V8.71846Z"
                    fill="white"
                  />
                  <path
                    d="M76.9922 14.5571V8.71777H79.1038V14.3134C79.1038 15.6901 79.6795 16.318 80.9009 16.318C82.035 16.318 83.0296 15.5859 83.0296 14.1391V8.71777H85.1412V17.8341H83.0296V16.4048C82.5763 17.2938 81.6159 18.0084 80.1328 18.0084C78.3357 18.0084 76.9922 16.9804 76.9922 14.5571Z"
                    fill="white"
                  />
                  <path
                    d="M86.3447 13.4243V13.2849C86.3447 10.3739 88.0717 8.52625 90.445 8.52625C91.9281 8.52625 92.8529 9.20606 93.3589 10.1128V4.49902H95.4704V17.8343H93.3589V16.3004C92.871 17.2072 91.7013 18.0087 90.3578 18.0087C88.0717 18.0087 86.3447 16.3876 86.3447 13.4243ZM93.429 13.3197V13.1806C93.429 11.1757 92.5043 10.1818 90.9685 10.1818C89.4153 10.1818 88.5079 11.2629 88.5079 13.2326V13.3717C88.5079 15.3766 89.5199 16.3353 90.8812 16.3353C92.3472 16.3353 93.429 15.3592 93.429 13.3197Z"
                    fill="white"
                  />
                  <path
                    d="M99.9543 16.9103L96.3425 8.71777H98.6279L101.054 14.592L103.287 8.71777H105.346L100.373 20.9549H98.2964L99.9539 16.9103H99.9543Z"
                    fill="white"
                  />
                  <path
                    d="M104.804 16.5968C104.804 15.8298 105.415 15.2197 106.183 15.2197C106.968 15.2197 107.579 15.8298 107.579 16.5968C107.579 17.3637 106.968 17.9564 106.183 17.9564C105.415 17.9564 104.804 17.3637 104.804 16.5968Z"
                    fill="white"
                  />
                  <path
                    d="M108.224 13.3899V13.2505C108.224 10.3566 110.283 8.52637 112.83 8.52637C114.855 8.52637 116.757 9.43277 117.001 11.9432H114.959C114.785 10.723 113.982 10.2172 112.866 10.2172C111.417 10.2172 110.387 11.3331 110.387 13.2156V13.3551C110.387 15.3418 111.365 16.3877 112.917 16.3877C114.034 16.3877 114.994 15.7257 115.116 14.4354H117.053C116.896 16.5271 115.308 18.0088 112.83 18.0088C110.213 18.0088 108.224 16.3005 108.224 13.3896L108.224 13.3899Z"
                    fill="white"
                  />
                  <path
                    d="M117.123 17.5904L121.956 10.3911H117.594V8.71777H125.079V9.0141L120.263 16.1437H124.939V17.8345H117.123V17.5908L117.123 17.5904Z"
                    fill="white"
                  />
                  <path
                    d="M8.27347 5.24345C9.72264 5.22389 10.8816 4.03441 10.862 2.58667C10.8424 1.13893 9.65174 -0.0188395 8.20257 0.000719032C6.7534 0.0202775 5.59448 1.20976 5.61406 2.6575C5.63364 4.10524 6.8243 5.26301 8.27347 5.24345Z"
                    fill="white"
                  />
                  <path
                    d="M15.2043 16.4608C15.2043 17.4788 14.3808 18.3015 13.3618 18.3015C12.9465 18.3015 12.5661 18.1621 12.2556 17.932V17.9355C10.8178 16.9524 9.56856 15.7183 8.56006 14.2994L8.67871 14.1216C9.46387 12.9224 10.0711 11.636 10.4898 10.2764C11.3413 12.1763 12.7127 13.7974 14.4261 14.9513L14.4226 14.9548C14.8937 15.2895 15.2043 15.8368 15.2043 16.4608Z"
                    fill="white"
                  />
                  <path
                    d="M1.84601 9.50241C0.827041 9.50241 0 8.67618 0 7.65473C0 6.63328 0.827041 5.81055 1.84601 5.81055H5.31819V5.81403C5.32168 7.06906 5.47522 8.30665 5.77882 9.50241H1.84601Z"
                    fill="white"
                  />
                  <path
                    d="M6.3022 9.4323C6.1347 8.79084 6.01256 8.12847 5.93579 7.45215C6.01256 8.12847 6.1347 8.78735 6.3022 9.4323Z"
                    fill="white"
                  />
                  <path
                    d="M7.38758 12.3407C7.27591 12.128 7.1782 11.9154 7.08398 11.6992C7.1782 11.9154 7.2794 12.1315 7.38758 12.3407Z"
                    fill="white"
                  />
                  <path
                    d="M7.92127 14.3025C6.91975 15.7179 5.66698 16.9485 4.23274 17.9351L4.22925 17.9316C3.92216 18.1617 3.54179 18.3011 3.12653 18.3011C2.10756 18.3011 1.28052 17.4784 1.28052 16.4604C1.28052 15.8364 1.59109 15.2891 2.06568 14.9544L2.06219 14.9509C3.7756 13.797 5.14702 12.1759 5.995 10.2725C6.41026 11.6251 7.02095 12.9185 7.80263 14.1212L7.92127 14.3025Z"
                    fill="white"
                  />
                  <path
                    d="M16.4885 7.65473C16.4885 8.67618 15.6615 9.50241 14.6425 9.50241H10.7306L10.6504 9.30021C10.6469 9.29324 10.291 8.41472 10.1583 7.38978C10.0467 6.53218 10.0571 5.82798 10.0571 5.821V5.81055H14.6425C15.6615 5.81055 16.4885 6.63677 16.4885 7.65473Z"
                    fill="white"
                  />
                  <path
                    d="M10.1687 9.50241L10.1652 9.50589C9.75691 11.0642 9.10086 12.5214 8.24241 13.8357C7.92835 13.3546 7.6422 12.8561 7.38746 12.3402C7.27579 12.1275 7.17808 11.9148 7.08386 11.6987C6.89891 11.2804 6.73141 10.8516 6.58833 10.4088C6.50807 10.1787 6.43828 9.94515 6.37547 9.70461C6.34755 9.61745 6.32312 9.52681 6.30218 9.43268C6.13468 8.79123 6.01254 8.12885 5.93577 7.45254C5.87645 6.91566 5.84155 6.36485 5.84155 5.81055H9.53357C9.53357 5.81055 9.51962 6.54613 9.63826 7.45951C9.78134 8.56811 10.1687 9.50241 10.1687 9.50241Z"
                    fill="white"
                  />
                </g>
                <defs>
                  <clipPath id="clip0_50_13761">
                    <rect width="125.018" height="20.9661" fill="white" />
                  </clipPath>
                </defs>
              </svg>