<svg
                    xmlns="http://www.w3.org/2000/svg"
                    width="18"
                    height="18"
                    viewBox="0 0 18 18"
                    fill="none"
                  >
                    <path
                      d="M15.3352 15.339H12.6697V11.1622C12.6697 10.1662 12.6495 8.8845 11.2807 8.8845C9.89102 8.8845 9.67872 9.9683 9.67872 11.0887V15.339H7.01322V6.75H9.57372V7.9207H9.60822C9.96602 7.2457 10.836 6.53325 12.1357 6.53325C14.8365 6.53325 15.336 8.3108 15.336 10.6245L15.3352 15.339ZM4.00275 5.57475C3.14475 5.57475 2.4555 4.88025 2.4555 4.026C2.4555 3.1725 3.1455 2.47875 4.00275 2.47875C4.85775 2.47875 5.55075 3.1725 5.55075 4.026C5.55075 4.88025 4.857 5.57475 4.00275 5.57475ZM5.33925 15.339H2.66625V6.75H5.33925V15.339ZM16.6687 0H1.32825C0.594 0 0 0.5805 0 1.29675V16.7033C0 17.4202 0.594 18 1.32825 18H16.6665C17.4 18 18 17.4202 18 16.7033V1.29675C18 0.5805 17.4 0 16.6665 0H16.6687Z"
                      fill="#69C9CD"
                    />
                  </svg>