<svg width="1207" height="907" viewBox="0 0 1207 907" fill="none" xmlns="http://www.w3.org/2000/svg">
<g clip-path="url(#clip0_115_672)">
<path d="M600.292 845.53C585.176 835.217 599.564 826.775 590.971 820.573C588.698 818.932 584.725 815.468 584.772 812.635C584.956 801.363 601.977 805.425 604.456 802.324C608.299 797.519 601.58 788.861 608.433 785.167C620.333 778.751 620.504 765.888 614.946 755.236C611.753 749.117 612.225 742.199 605.241 737.735C598.261 733.275 606.463 721.36 605.05 712.206C602.001 692.441 587.077 685.25 589.301 681.051C590.907 678.018 602.926 673.912 607.848 667.38L632.179 678.975L650.913 689.658C656.859 693.049 664.065 693.751 669.831 689.903C672.479 688.135 671.121 683.75 672.56 681.251C676.072 675.151 681.574 668.246 687.847 664.767C693.369 661.704 702.535 664.997 706.37 668.91C719.594 682.408 723.225 667.206 732.72 678.215C736.12 682.157 748.464 690.418 752.204 690.515C756.252 690.619 756.953 683.869 760.65 682.54C765.106 689.002 759.803 705.406 769.259 707.228C775.99 708.524 784.896 707.601 790.259 703.191C793.279 700.707 795.101 699.061 799.045 697.845C804.018 696.311 810.424 689.853 807.871 684.229C806.66 681.559 795.505 665.744 804.591 663.695C811.121 662.222 816.1 658.574 820.924 654.396C823.026 652.575 825.337 651.059 826.05 648.253L827.685 641.82C832.436 640.785 836.135 643.734 836.43 648.362C836.663 652.001 838.08 655.363 840.387 658.292C843.202 661.867 845.939 666.131 849.91 668.319C860.266 674.023 871.29 670.288 876.016 676.234C881.475 683.103 870.928 694.449 883.034 705.317C884.853 706.951 887.054 712.075 885.746 714.019L867.582 726.876C853.125 737.108 845.02 733.477 842.143 745.789C840.099 754.536 834.878 761.55 826.762 765.21L811.466 772.109C806.274 774.451 804.667 779.705 806.313 785.023C811.47 801.695 791.432 790.305 785.919 806.889C779.461 826.316 770.214 825.539 760.824 842.124C758.295 846.591 758.91 851.389 761.652 855.393C764.782 859.964 763.222 865.579 758.255 867.926C744.515 874.42 754.199 890.162 717.499 906.046C713.336 907.848 708.646 906.908 704.858 904.798C684.143 893.254 672.811 906.581 662.182 902.184C657.994 900.452 653.271 898.167 650.27 894.782C642.979 886.556 655.345 873.731 642.738 865.174C636.683 861.065 632.983 856.02 629.521 849.456C627.722 846.046 620.373 846.161 617.215 847.346C610.649 849.807 605.854 849.325 600.292 845.53Z" fill="#B1EAEC"/>
<path d="M612.799 759.228C607.78 750.764 613.261 749.847 602.732 739.765C589.782 727.339 616.483 717.85 588.117 687.549C586.537 685.854 585.535 682.192 586.113 680.173C587.508 675.316 600.327 672.017 605.006 665.897C593.559 650.55 575.491 660.278 572.523 642.04C571.976 638.672 571.105 632.752 568.708 630.316C563.713 625.259 558.656 621.575 552.914 617.389C547.31 613.304 539.085 622.3 536.125 612.842C534.753 608.463 532.471 604.663 528.81 601.765C514.719 590.627 518.866 583.242 511.474 582.864C506.41 582.602 502.325 581.855 497.153 580.544C493.53 582.494 491.965 591.451 484.604 590.064C480.95 589.37 478.892 586.603 478.321 582.741C477.127 574.647 465.95 580.066 465.156 570.053C464.955 567.487 462.258 565.459 459.521 565.852C458.111 566.061 456.507 566.469 455.76 566.962C453.447 568.504 458.473 576.682 450.495 578.787C441.6 581.138 461.885 594.167 446.5 603.386L434 609.886C429.555 612.315 424.86 615.362 425.5 619.386C426.374 624.882 425.5 628.886 422 632.886L411.5 642.886C404 648.886 415.588 648.236 425 657.886C430.166 663.183 440.5 667.778 440.5 678.886C440.431 686.54 434.246 692.369 433.568 692.886C433.452 703.161 430.955 711.63 433.568 721.489C434.4 724.618 439.11 727.509 441.707 729.305C449.994 735.032 438.555 742.825 450.549 750.209L463.722 758.318C468.933 761.525 473.095 766.312 474.93 772.131L478.923 784.781C480.287 789.105 483.717 791.895 487.88 793.391L506.302 800.004C524.887 806.68 534.622 802.64 556.228 814.881C572.007 823.83 570.457 837.959 579.029 836.865C583.099 836.341 587.662 831.076 589.944 827.114C592.195 823.183 580.262 818.165 581.426 811.759C582.875 803.758 590.822 800.05 598.261 800.605C608.49 801.376 595.339 788.719 607.511 781.882C615.597 777.342 617.462 767.098 612.799 759.228Z" fill="#B1EAEC"/>
<path d="M428.207 666.375C413.214 658.813 418.922 655.661 401.556 648.461C385.245 641.701 374.801 631.411 357.103 631.711C355.353 631.742 352.501 632.968 351.522 634.062C350.543 635.157 350.196 638.533 350.589 640.075C352.462 647.536 358.128 665.388 347.398 667.963L337.94 670.229L351.067 678.631C355.592 681.529 356.848 688.166 353.087 692.251C348.069 697.693 347.637 703.444 348.577 710.728C349.749 719.793 357.265 727.647 366.877 725.412C368.788 724.973 370.723 720.594 371.085 718.729L374.855 699.158C380.574 696.853 389.747 703.721 397.617 701.794C411.761 698.333 418.117 685.883 429.949 690.253C430.728 689.515 435.9 685.972 435.942 679.032C435.988 671.604 428.961 667.037 428.207 666.375Z" fill="#B1EAEC"/>
<path d="M1151.24 657.598C1145.4 666.219 1140.95 674.046 1138.37 684.04C1137.88 685.928 1135.07 689.954 1133.08 689.847C1126.43 687.294 1122.32 682.274 1117.55 676.876C1105.49 675.66 1099.86 682.298 1087.49 678.692C1067.1 672.747 1064.02 687.586 1049 682.073C1028.55 674.572 1019.93 697.831 993.17 686.778C985.824 683.744 977.32 684.561 969.769 682.275C959.522 679.174 950.129 675.396 939.675 672.819C935.318 671.745 930.68 669.42 927.166 666.415C923.586 649.924 915.698 635.645 904.18 623.406C900.772 619.784 899.909 615.124 899.832 610.191C897.398 605.845 888.209 605.366 890.024 599.252C897.675 573.465 908.964 572.612 901.976 562.642C896.856 555.338 892.336 548.866 885.189 542.955C887.592 531.438 896.793 532.326 890.243 521.655C887.311 516.88 886.145 510.751 884.345 505.143C883.364 502.087 881.36 497.834 881.847 494.881C886.25 468.191 877.029 468.335 882.019 457.304C885.579 449.435 891.525 437.157 882.174 430.664L871.752 423.427C861.813 416.526 863.895 408.037 862.885 396.381L880.412 396.156C890.266 396.029 899.411 398.609 908.26 402.65L938.956 416.666L970.789 434.695C976.97 438.196 984.208 440.187 991.269 438.681L1015.75 433.459C1020.81 432.38 1024.37 430.126 1028.48 426.729C1033.08 422.923 1040.53 419.15 1046.35 422.229C1052.15 425.293 1056.03 432.474 1057.26 438.67C1058.35 444.118 1057.61 449.964 1059.74 454.852C1061.95 459.918 1065.7 464.211 1068.58 468.864C1074.85 479.036 1076.59 490.59 1079.24 502.133C1080.42 507.269 1087.92 507.178 1091.63 504.793C1100.59 499.025 1109.82 496.768 1119.67 493.795C1125.22 492.119 1130 488.341 1136.12 487.256C1144.98 485.686 1155.76 487.787 1160.94 495.996C1163.79 500.526 1166.05 506.054 1167.95 511.15C1170.94 519.143 1171.07 527.324 1172.31 535.936C1173.34 543.059 1185.79 550.576 1174.89 559.547C1166.89 566.125 1149.48 578.458 1150.03 589.504C1150.35 595.941 1170.98 591.912 1171.56 604.663C1171.91 612.362 1163.05 616.573 1156.2 615.867C1153.27 615.565 1149.88 616.401 1149.14 619.314C1153.75 625.168 1169.07 628.68 1164.89 635.64C1160.48 642.985 1156.24 650.21 1151.23 657.599L1151.24 657.598Z" fill="#B1EAEC"/>
<path d="M125.811 427.573C121.275 427.169 116.795 424.757 113.378 422.439C101.339 414.273 121.683 399.381 127.087 394.615C124.896 383.324 114.316 389.249 102.238 385.491C100.069 384.817 97.9057 381.306 98.0097 379.348C98.1161 377.336 100.937 374.962 103.069 374.284C115.211 370.426 108.639 361.798 112.468 357.941C115.788 354.596 121.904 358.943 124.952 360.924C129.969 364.183 137.672 365.645 140.257 361.469C142.343 358.098 136.932 350.823 139.74 345.867C144.223 337.953 153.674 334.427 150.671 325.379C149.299 321.249 147.302 317.906 141.546 316.557C142.93 308.025 152.465 298.604 141.198 293.322C130.239 288.185 120.182 280.924 112.701 271.542C107.055 264.461 109.251 255.824 115.485 250.423C124.457 242.65 128.452 250.779 139.239 240.815L153.079 228.03C156.451 224.916 160.958 225.441 164.205 227.886C169.02 231.512 173.126 234.786 177.827 238.76C179.961 240.562 185.369 242.668 187.483 240.287L196.699 229.911C205.384 220.134 193.122 217.933 193.906 199.249C194.205 192.122 200.404 186.765 207.851 188.361C216.919 190.304 226.054 193.131 234.541 196.637C242.7 200.007 246.014 208.278 243.421 216.417C238.338 232.37 225.031 240.449 227.149 247.246C229.563 254.996 238.114 255.915 244.237 252.506L268.654 238.915C274.898 235.44 281.529 237.373 284.873 243.504C295.926 263.766 263.512 290.956 264.604 313.244C253.176 324.438 260.364 325.101 246.135 329.103C239.999 330.829 234.028 333.16 230.13 338.106C224.036 345.837 222.621 355.089 222.314 364.849C222.15 370.066 219.454 376.957 213.688 378.058C205.629 379.597 195.639 376.596 190.143 370.804C185.231 365.626 180.644 363.792 173.804 362.31C170.303 361.552 169.717 357.515 153.693 361.64C148.511 362.975 149.917 367.921 149.941 371.549C149.973 376.226 150.645 379.921 151.374 384.428C151.858 387.43 150.082 391.837 151.575 395.026C152.15 396.255 151.712 399.083 150.92 400.018C150.127 400.953 147.681 402.068 146.265 402.263C135.589 403.74 134.922 411.17 132.137 421.483C131.5 423.839 129.41 427.893 125.812 427.573L125.811 427.573Z" fill="#B1EAEC"/>
</g>
<g clip-path="url(#clip1_115_672)">
<path d="M772.362 702.86C768.184 702.86 767.719 698.621 767.447 691.639C767.221 685.813 766.965 679.21 761.604 678.065C761.387 678.018 761.144 677.995 760.881 677.995C759.098 677.995 756.163 679.117 755.195 680.51L751.746 685.474L743.465 680.512C739.934 678.395 737.595 676.081 735.531 674.039C732.632 671.17 730.129 668.691 725.811 668.691C724.732 668.691 723.589 668.841 722.319 669.15C720.974 669.476 719.771 669.634 718.642 669.634C715.452 669.634 712.774 668.349 709.685 665.338C705.596 661.351 698.871 658.672 692.95 658.672C690.22 658.672 687.781 659.23 685.704 660.331C681.083 662.779 677.604 666.822 674.24 670.733C672.985 672.191 671.687 673.699 670.373 675.065C668.106 677.426 667.657 682.186 667.574 683.59C667.516 684.566 667.339 687.534 662.281 687.534C658.218 687.534 652.805 685.548 649.773 683.679C637.809 676.305 627.887 671.093 617.603 666.781C613.41 665.024 609.974 662.942 607.392 660.594C600.284 654.134 593.782 652.325 588.558 650.872C582.043 649.059 578.109 647.965 576.662 639.5C574.451 626.562 569.965 623.419 559.125 615.822C558.137 615.131 557.094 614.4 555.994 613.62C553.846 612.098 551.595 611.358 549.11 611.358C547.471 611.358 546.003 611.672 544.708 611.951C543.738 612.16 542.9 612.338 542.214 612.338C541.418 612.338 540.657 612.182 540.109 610.287C538.106 603.366 535.089 600.795 531.596 597.817C528.326 595.03 524.619 591.871 520.861 584.042C517.919 577.911 513.453 577.814 509.135 577.72C506.111 577.654 502.988 577.586 499.911 575.623C499.093 570.64 502.624 566.727 505.78 564.299C511.453 559.933 517.245 559.423 523.377 558.884C530.507 558.257 537.879 557.608 544.762 550.448C555.563 539.214 561.512 533.025 559.805 515.994C559.499 512.944 560.721 509.737 561.904 506.635C563.752 501.789 565.664 496.778 560.415 493.678L555.752 490.924C557.141 490.792 558.525 490.728 559.931 490.728C564.905 490.728 569.64 491.577 574.036 492.532C574.649 495.76 574.457 498.098 574.285 500.173C573.93 504.491 573.673 507.61 581.098 513.435C587.943 518.804 591.472 519.904 594.667 519.904C595.518 519.904 596.312 519.828 597.152 519.75C598.026 519.667 598.929 519.582 599.944 519.582C602.468 519.582 606.307 520.054 613.641 523.736C616.058 524.949 618.853 525.617 621.513 525.617C626.331 525.617 630.18 523.463 632.072 519.707C633.303 517.264 634.24 514.485 635.145 511.797C635.746 510.011 636.317 508.319 636.963 506.725L654.191 494.346C654.363 494.223 654.492 494.052 654.565 493.855C656.138 489.58 653.797 484.256 652.087 480.369C651.383 478.768 650.43 476.599 650.526 475.926L672.82 471.683C673.322 473.912 673.524 476.897 673.292 479.041C672.07 490.338 674.358 499.623 680.284 507.424C681.361 508.84 684.643 510.394 686.557 510.394C686.627 510.394 686.695 510.392 686.76 510.388C688.669 510.272 691.632 508.376 692.631 506.963L694.683 504.059C694.785 505.219 694.779 506.451 694.773 507.658C694.757 510.677 694.743 513.799 696.385 516.031L707.757 531.48C710.178 534.771 713.513 536.658 716.905 536.658C717.621 536.658 718.347 536.575 719.061 536.413C722.52 535.624 726.703 532.126 727.429 527.853L730.029 512.542C734.603 509.248 737.086 506.126 738.912 503.831C741.096 501.086 742.158 499.873 744.457 499.873C745.366 499.873 746.457 500.068 747.794 500.467C752.442 501.858 754.375 503.953 755.749 509.091C758.222 518.338 756.741 525.109 751.087 530.399C749.856 531.551 749.304 534.621 749.95 536.716C750.342 537.991 751.153 538.786 752.232 538.954C754.686 539.336 757.027 539.523 759.388 539.523C760.913 539.523 762.233 539.447 763.399 539.38C764.342 539.327 765.156 539.28 765.919 539.28C768.57 539.28 770.423 539.85 773.204 542.962C775.65 545.7 778.665 547.03 782.422 547.03C785.117 547.03 787.781 546.348 790.13 545.746C791.932 545.284 793.633 544.849 794.918 544.849C795.588 544.849 796.094 544.964 796.468 545.204C797.38 545.79 797.945 546.649 798.198 547.832C798.922 551.236 796.807 556.516 794.535 559.983C789.919 567.023 790.438 574.458 795.959 580.383C799.155 583.813 801.746 588.014 803.451 592.533C805.445 597.815 807.772 600.891 809.472 603.137C810.79 604.88 811.661 606.032 811.685 607.259C811.697 607.913 810.287 608.855 808.923 609.766C806.047 611.689 802.106 614.322 801.343 619.679C800.616 624.786 802.154 629.586 805.563 632.847C808.651 635.801 808.714 637.583 808.792 639.838C808.899 642.857 809.018 646.265 815.953 652.28C812.556 655.789 808.678 657.147 805.232 658.354C800.029 660.176 795.536 661.75 796.928 669.989C797.934 675.943 800.277 680.291 803.733 685.378C804.199 686.066 804.268 686.84 803.942 687.747C803.155 689.931 800.237 692.239 798.155 692.842C792.807 694.393 790.666 696.405 788.777 698.182C786.167 700.638 783.912 702.758 772.419 702.86H772.361L772.362 702.86Z" fill="#69C9CD"/>
<path d="M896.154 669.906C893.512 669.906 892.169 668.196 890.614 666.216C888.958 664.108 887.081 661.719 883.411 661.719C883.234 661.719 883.053 661.725 882.867 661.736C879.944 661.918 877.589 663.276 875.312 664.588C873.584 665.584 871.953 666.525 870.183 666.888C868.637 667.206 866.962 667.367 865.204 667.367C860.172 667.367 855.322 666.072 851.897 663.816C847.436 660.876 842.871 654.934 841.278 649.994C840.908 648.844 840.699 647.716 840.497 646.625C839.97 643.775 839.473 641.082 836.293 639.144C834.358 637.967 831.805 636.615 829.214 636.615C827.324 636.615 825.678 637.322 824.323 638.718C824.217 638.827 824.136 638.957 824.085 639.1L820.672 648.743C814.385 645.084 814.165 642.496 813.89 639.265C813.649 636.418 813.375 633.191 809.171 629.084C807.042 627.006 806.025 623.784 806.449 620.465C806.806 617.667 809.356 615.869 811.821 614.132C813.943 612.637 815.947 611.225 816.607 609.166C817.441 606.572 815.871 602.83 814.546 601.119C810.331 595.67 808.942 592.201 807.718 589.14C806.334 585.678 805.026 582.408 800.105 577.356C794.19 571.284 796.586 566.991 799.618 561.555C801.863 557.531 804.408 552.97 803.189 547.28C802.613 544.593 800.692 541.543 798.906 540.483C797.75 539.798 796.457 539.466 794.954 539.466C792.936 539.466 790.802 540.081 788.739 540.675C786.69 541.267 784.571 541.877 782.607 541.877C780.925 541.877 779.502 541.421 778.253 540.483C777.609 540 776.886 539.28 776.118 538.519C774.253 536.668 772.14 534.57 769.793 534.495L755.421 534.042C763.639 523.178 764.235 515.918 758.417 502.159C766.829 487.853 763.992 475.348 760.409 459.56C758.537 451.308 756.414 441.955 755.797 431.166C755.488 425.743 758.358 421.626 763.478 420.154C766.698 419.228 769.074 417.409 770.542 414.749C773.33 409.695 772.255 402.501 770.768 397.15C776.725 390.815 781.46 383.487 784.847 375.36C787.325 369.415 792.847 365.722 799.259 365.722C802.287 365.722 805.284 366.589 807.926 368.227C813.249 371.528 818.601 375.183 824.767 379.73C831.261 384.517 835.643 384.697 839.509 384.856C843.245 385.009 846.47 385.142 851.283 389.332L858.73 395.813L859.504 411.355C859.796 417.203 863.124 422.417 869.396 426.851L879.657 434.108C882.509 436.124 883.77 440.406 882.469 443.651L877.94 454.947C875.795 460.297 875.665 465.361 877.519 471.366C879.393 477.431 878.708 483.569 877.983 490.068C877.838 491.368 877.692 492.676 877.565 493.994C877.278 496.982 878.372 500.311 879.338 503.25C879.698 504.346 880.038 505.381 880.296 506.349C882.314 513.945 884.438 520.444 888.175 527.306L882.393 536.9C880.158 540.609 880.857 544.899 884.175 547.828C889.764 552.761 893.925 558.627 897.95 564.299C899.854 566.983 899.953 568.852 898.313 571.194C892.693 579.218 888.52 587.943 885.556 597.865C884.608 601.037 886.073 605.37 888.687 607.138L895.182 611.531C895.741 617.625 897.711 622.414 901.199 626.158C912.045 637.799 919.051 650.161 922.034 662.914L898.495 669.545C897.644 669.785 896.856 669.907 896.153 669.907L896.154 669.906Z" fill="#69C9CD"/>
<path d="M485.351 585.184C483.759 584.959 483.339 583.732 482.677 581.402C481.838 578.443 480.688 574.391 474.731 573.337C471.005 572.677 469.824 570.789 468.586 566.807C467.504 563.331 464.222 561.171 460.02 561.171C457.815 561.171 455.586 561.77 453.719 562.843C451.072 555.526 448.513 548.596 444.74 541.956C442.848 538.626 442.355 534.906 443.351 531.482C444.366 527.997 446.838 525.062 450.311 523.221C452.688 521.96 454.365 519.971 455.035 517.618C455.719 515.213 455.308 512.537 453.875 510.086C451.303 505.681 447.71 501.282 442.891 496.639C441.421 495.223 439.671 494.505 437.692 494.505C432.503 494.505 426.917 499.46 423.221 502.739C422.865 503.054 422.53 503.352 422.215 503.626C420.439 505.177 418.992 505.9 417.664 505.9C415.981 505.9 414.303 504.78 411.978 503.229C409.849 501.807 407.2 500.04 403.571 498.524C402.194 497.949 400.934 497.67 399.719 497.67C395.389 497.67 392.716 501.22 389.621 505.331C387.591 508.026 385.292 511.081 382.167 513.625C380.354 515.101 377.93 515.983 375.682 515.983C374.191 515.983 372.098 515.592 370.59 513.732C368.781 511.5 368.914 508.473 369.055 505.268C369.269 500.411 369.512 494.906 362.024 492.646C360.954 492.323 360.299 491.923 360.128 491.49C359.827 490.728 360.695 489.233 361.614 487.651C363.752 483.97 366.984 478.406 360.848 472.332C357.648 469.166 358.067 465.486 358.473 461.927C358.723 459.727 358.96 457.647 358.257 455.886C357.445 453.855 355.514 452.624 352.353 452.121C350.547 451.834 348.737 451.693 346.816 451.693C343.979 451.693 341.472 452.001 339.261 452.272C337.582 452.479 336.132 452.657 334.891 452.657C332.319 452.657 330.796 451.984 330.104 448.435C327.624 435.699 323.38 429.241 317.493 429.241C316.509 429.241 315.479 429.43 314.433 429.804C308.013 432.096 302.822 436.182 299.816 441.311C296.356 447.216 298.75 454.682 300.862 461.269C302.473 466.294 303.995 471.039 302.233 473.455C301.154 474.933 298.816 475.653 295.086 475.653C294.632 475.653 294.16 475.641 293.661 475.619C290.985 475.5 285.606 473.428 285.293 470.056C284.583 462.416 280.658 461.015 275.226 459.075L274.541 458.83C272.172 457.978 269.801 457.546 267.496 457.546C260.811 457.546 255.498 461.14 252.92 467.408C252.308 468.897 252.065 471.836 252.68 473.251C253.707 475.607 256.926 475.619 259.766 475.63C261.677 475.638 264.055 475.646 264.394 476.499C265.791 480.015 265.079 483.443 264.323 487.072C263.078 493.062 261.667 499.849 268.928 508.765C271.149 511.491 273.118 515.534 272.417 516.788C269.03 520.231 267.746 523.539 266.713 526.2C265.358 529.693 264.462 532 259.664 532.985L235.028 538.036C232.086 538.639 229.629 539.041 227.204 539.041C224.433 539.041 222.031 538.514 219.646 537.381C216.757 536.009 216.155 533.627 215.392 530.61C214.384 526.631 213.132 521.68 205.437 518.892C201.118 517.326 196.614 516.565 191.669 516.565C188.749 516.565 186.164 516.821 183.884 517.046C182.214 517.211 180.772 517.352 179.581 517.352C178.086 517.352 177.181 517.12 176.734 516.622C176.275 516.109 176.123 515.109 176.283 513.65C177.478 502.751 174.821 495.808 173.064 491.213C171.566 487.297 170.962 485.492 172.371 483.781C172.711 483.367 173.514 483.173 174.896 483.173C175.695 483.173 176.615 483.237 177.591 483.305C178.768 483.386 179.986 483.471 181.268 483.471C185.081 483.471 190.503 482.75 193.563 476.527C195.611 472.363 193.522 468.556 191.105 464.148C189.194 460.665 187.028 456.717 186.219 451.622C185.451 446.779 181.495 443.397 176.598 443.397C176.432 443.397 176.265 443.401 176.096 443.408C172.132 443.586 170.326 444.242 168.873 444.769C167.826 445.148 167.07 445.423 165.722 445.423C165.332 445.423 164.914 445.4 164.445 445.353C164.322 445.341 164.277 445.318 164.277 445.318C164.187 445.119 164.309 444.08 164.397 443.32C164.806 439.84 165.49 434.016 158.57 427.734C153.267 422.919 148.219 420.677 142.684 420.677C140.848 420.677 138.93 420.934 136.961 421.445C137.116 420.764 137.266 420.08 137.412 419.41C138.841 412.864 140.19 406.681 146.808 406.279C150.074 406.08 152.825 404.684 154.553 402.347C156.262 400.036 156.788 397.037 156.033 393.905C155.405 391.294 155.41 388.95 156.055 385.815C156.378 384.242 155.896 382.316 155.43 380.454C155.157 379.363 154.899 378.334 154.848 377.537L154.138 366.318C159.221 364.578 162.772 363.764 165.273 363.764C167.482 363.764 168.719 364.386 170.284 365.172C171.779 365.923 173.476 366.775 176.302 367.271C180.174 367.949 183.006 369.351 185.211 371.684C191.656 378.505 200.526 382.576 208.938 382.576C211.706 382.576 214.4 382.136 216.943 381.267C223.444 379.047 226.601 370.854 226.848 363.719C227.13 355.547 228.171 347.051 233.826 340.263C237.57 335.77 243.41 333.852 249.069 332.271C258.006 329.777 259.386 327.379 261.295 324.062C262.482 321.998 263.948 319.451 267.916 316.042C269.012 316.526 270.085 317.017 271.146 317.503C275.445 319.467 279.504 321.321 284.082 322.345C290.588 323.8 295.587 325.098 300.673 328.563C304.645 331.271 308.567 331.494 312.36 331.708C318.408 332.051 323.631 332.347 328.475 342.596C330.059 345.948 331.699 347.378 333.957 347.378C335.091 347.378 336.247 346.997 337.472 346.594C338.99 346.094 340.711 345.528 342.796 345.528C344.8 345.528 346.842 346.046 349.041 347.113L358.93 351.912C360.954 352.893 363.024 353.391 365.082 353.391C374.335 353.391 381.411 343.661 384.068 334.62C385.619 329.345 386.625 324.934 387.514 321.042C389.279 313.31 390.457 308.152 394.239 303.183L421.487 296.745C423.976 296.02 426.104 295.673 428.048 295.673C431.388 295.673 433.562 296.715 435.665 297.722C437.588 298.642 439.405 299.513 441.847 299.513C443.906 299.513 446.183 298.859 448.807 297.515C449.432 297.196 450.31 297.034 451.422 297.034C458.172 297.034 471.066 302.977 476.941 306.12C479.753 307.624 482.405 308.355 485.047 308.355C488.574 308.355 491.747 307.057 495.107 305.685C498.299 304.38 501.899 302.908 506.421 302.294C512.32 309.664 517.096 313.313 520.601 315.992C527.337 321.14 530.125 323.27 530.49 343.316C530.794 359.956 515.849 365.529 502.664 370.447L500.903 371.105C488.064 375.928 480.659 387.515 482.477 399.937C483.342 405.843 485.83 410.171 488.464 414.756C491.499 420.036 494.636 425.496 495.512 433.969C496.933 447.725 506.493 454.107 514.928 459.737C524.01 465.799 531.854 471.035 530.444 483.731C530.129 486.561 530.818 489.171 532.383 491.08C533.801 492.81 535.841 493.835 538.283 494.048C539.038 494.115 539.766 494.148 540.449 494.148C542.536 494.148 543.945 493.841 545.077 493.593C545.895 493.416 546.539 493.275 547.254 493.275C549.008 493.275 551.521 494.156 558.084 498.453C559.165 499.16 558.157 501.736 556.989 504.718C555.576 508.331 553.817 512.826 554.416 517.335C555.54 525.787 553.415 532.892 547.92 539.056C547.357 539.688 546.795 540.332 546.231 540.98C542.695 545.036 539.039 549.231 534.035 551.35C530.838 552.704 527.142 553.077 523.228 553.472C516.159 554.185 508.148 554.994 500.695 561.85C496.773 565.459 494.641 570.134 494.002 576.544L488.559 583.526C487.99 584.257 486.231 585.191 485.423 585.191C485.398 585.191 485.374 585.191 485.351 585.186V585.184Z" fill="#69C9CD"/>
<path d="M249.373 713.191C244.503 713.191 239.041 710.123 236.937 706.205C233.011 698.894 233.017 693.422 233.023 688.132C233.027 684.623 233.031 681.307 231.94 677.642C231.857 677.363 231.662 677.131 231.402 677.001C231.255 676.927 231.094 676.89 230.932 676.89C230.809 676.89 230.685 676.911 230.566 676.956C222.766 679.85 220.149 683.805 218.417 686.421C217.301 688.107 216.663 689 215.463 689.267C214.278 689.53 213.133 689.665 212.06 689.665C206.016 689.665 202.773 685.41 200.168 681.992C198.339 679.594 196.76 677.521 194.578 677.521C192.758 677.528 190.112 679.763 189.456 681.426L186.261 689.527C185.856 690.555 184.095 691.528 182.64 691.528C182.231 691.528 181.874 691.447 181.608 691.297C178.12 689.319 175.542 686.478 173.947 682.854C170.577 675.198 167.148 668.391 163.158 661.434C163.022 661.197 162.801 661.023 162.538 660.947L152.306 657.98C147.056 656.458 143.377 653.463 141.371 649.076C137.208 639.972 133.748 631.912 130.485 623.711C126.87 614.627 122.739 605.02 117.044 596.308C115.677 594.217 113.85 592.438 112.084 590.717C109.393 588.095 106.85 585.619 105.861 582.171C103.517 574.005 101.152 566.757 95.9296 560.727C91.4087 555.508 91.5151 550.132 91.6284 544.441C91.7626 537.66 91.9013 530.648 83.4554 524.649C79.6121 521.919 78.2285 517.711 79.4541 512.482C81.0459 505.689 86.4339 501.5 91.1868 497.804C95.8795 494.155 99.9325 491.003 99.1817 486.243C99.157 486.09 99.0992 485.942 99.0113 485.814C95.5966 480.813 94.9761 476.37 96.934 470.963C97.3464 469.823 97.6979 468.634 98.0709 467.375C99.0907 463.924 100.146 460.356 102.475 458.038C104.572 455.949 107.23 454.719 110.043 453.417C112.266 452.389 114.563 451.325 116.601 449.792C121.357 446.21 125.998 439.86 128.426 433.614C129.506 430.833 129.945 429.9 131.995 428.768C135.509 426.828 139.006 425.845 142.388 425.845C147.204 425.845 151.714 427.908 155.429 431.811C159.874 436.48 159.523 439.878 159.213 442.877C158.965 445.278 158.708 447.762 161.702 449.588C162.844 450.285 164.088 450.624 165.505 450.624C167.337 450.624 169.191 450.047 170.984 449.488C172.707 448.952 174.489 448.397 176.161 448.397C177.814 448.397 179.197 448.932 180.495 450.078C180.643 450.602 180.789 451.124 180.933 451.646C182.446 457.079 183.875 462.21 187.108 467.214C188.503 469.374 189.679 473.179 189.011 474.377C187.101 477.805 184.195 478.278 181.339 478.278C180.307 478.278 179.231 478.204 178.19 478.133C177.162 478.062 176.099 477.99 175.089 477.99C173.052 477.99 170.48 478.248 168.649 480.266C166.46 482.681 166.247 487.519 167.423 490.352C171.734 500.73 171.501 507.338 171.33 512.164C171.199 515.889 171.104 518.58 173.408 520.718C174.788 521.998 176.534 522.569 179.069 522.569C180.526 522.569 182.104 522.391 183.933 522.185C186.169 521.933 188.703 521.648 191.55 521.648C195.799 521.648 199.836 522.3 203.895 523.641C208.835 525.273 209.531 528.328 210.336 531.865C211.223 535.762 212.229 540.177 219.029 542.729C221.493 543.653 224.105 544.102 227.017 544.102C230.573 544.102 234.013 543.462 238.142 542.625L258.717 538.454C266.461 536.883 270.802 532.595 273.23 524.113C273.381 523.583 274.185 522.781 274.962 522.007C276.555 520.419 278.539 518.442 277.979 515.933C276.909 511.138 274.693 508.009 272.737 505.246C269.688 500.939 267.055 497.219 269.345 488.152C271.135 481.068 270.666 476.094 267.909 472.946C265.975 470.743 262.569 470.551 259.565 470.382C258.927 470.346 258.31 470.311 257.722 470.261C258.649 466.871 261.687 462.796 265.467 462.709C265.593 462.707 265.72 462.705 265.847 462.705C270.127 462.705 275.031 464.372 278.746 465.683L280.85 473.037C280.878 473.138 280.922 473.232 280.978 473.319C284.023 478.024 289.272 480.832 295.019 480.832C298.438 480.832 301.741 479.837 304.574 477.956C307.725 475.864 309.267 470.952 308.01 467.008L303.484 452.8C300.676 443.993 308.495 438.007 315.549 434.536C316.132 434.249 316.691 434.103 317.213 434.103C320.966 434.103 323.667 441.811 324.943 449.022C326.307 456.726 332.013 457.616 336.187 457.616C338.41 457.616 340.743 457.331 343 457.054C345.102 456.798 347.086 456.555 348.837 456.555C351.217 456.555 352.727 457.016 353.588 458.003C354.096 458.585 353.827 459.853 353.486 461.459C352.767 464.843 351.683 469.955 356.958 475.441C360.693 479.326 359.187 481.809 357.28 484.953C355.959 487.129 354.462 489.596 355.111 492.586C355.744 495.51 357.955 496.382 359.907 497.152C362.503 498.176 364.554 498.985 364.092 504.154C363.672 508.845 363.668 515.464 368.457 518.768C370.59 520.241 373.02 520.987 375.682 520.987C380.198 520.987 384.918 518.772 388.305 515.063C389.859 513.363 391.314 511.524 392.721 509.747C394.542 507.447 396.424 505.072 398.542 502.962C398.795 502.941 399.048 502.93 399.299 502.93C402.765 502.93 405.754 505.005 408.645 507.013C411.502 508.998 414.458 511.05 417.869 511.05C420.367 511.05 422.806 509.966 425.326 507.736C425.6 507.494 425.923 507.2 426.287 506.869C428.873 504.513 434.258 499.612 437.723 499.612C438.471 499.612 439.043 499.841 439.522 500.334C439.882 500.703 440.271 501.095 440.679 501.508C444.576 505.446 450.463 511.399 449.92 515.635C449.751 516.953 448.936 518.029 447.426 518.926C442.707 521.726 439.446 525.933 438.244 530.772C437.064 535.525 437.907 540.652 440.617 545.211C444.074 551.026 446.202 556.997 448.254 563.114C448.445 563.682 448.68 564.302 448.929 564.953C450.066 567.934 451.479 571.644 449.525 573.625C448.993 574.164 448.21 574.733 447.452 575.281C445.934 576.381 444.365 577.518 443.943 578.984C442.99 582.293 444.126 585.325 445.129 587.999C446.642 592.033 447.735 594.949 442.865 598.272C438.533 601.228 433.66 603.724 428.944 606.138C427.941 606.652 426.942 607.163 425.955 607.675C418.386 611.604 418.689 616.867 418.958 621.509C419.158 624.971 419.347 628.242 416.466 631.056C415.738 631.767 414.969 632.549 414.169 633.362C410.05 637.549 404.925 642.759 400.771 642.759C400.026 642.759 399.35 642.594 398.702 642.252L380.431 632.605C375.221 629.855 366.163 627.07 358.932 627.07C353.655 627.07 349.912 628.492 347.802 631.297C344.97 635.061 346.548 641.261 348.075 647.256C349.603 653.261 351.184 659.47 348.179 662.465C346.712 663.927 344.602 664.101 342.37 664.284C338.816 664.577 334.393 664.942 332.622 671.367L323.7 703.726C323.073 706.001 320.408 708.653 318.668 709.227C318.289 709.352 317.853 709.415 317.373 709.415C314.798 709.415 311.828 707.673 310.978 707.14C306.285 704.19 300.911 702.815 294.067 702.815C289.807 702.815 285.479 703.343 281.295 703.854L280.376 703.966C270.445 705.17 262.164 707.724 253.522 712.245C252.328 712.871 250.931 713.188 249.371 713.188L249.373 713.191Z" fill="#69C9CD"/>
<path d="M717.214 531.464C715.777 531.464 713.458 530.316 712.618 529.19L701.37 514.1C700.166 512.485 700.112 509.245 700.059 506.112C699.985 501.75 699.91 497.239 696.636 495.936C696.51 495.887 696.379 495.861 696.247 495.861C696.093 495.861 695.938 495.895 695.796 495.963C693.164 497.212 691.6 499.424 690.221 501.376C688.978 503.134 687.903 504.653 686.396 504.976C686.323 504.992 686.252 504.999 686.177 504.999C685.673 504.999 685.055 504.636 684.389 503.951C681.15 500.617 678.166 491.216 678.27 487.651L678.676 473.758C678.738 471.616 677.981 469.569 676.595 468.143C675.408 466.922 673.845 466.249 672.191 466.249C671.621 466.249 671.039 466.328 670.463 466.485C664.316 468.147 658.382 469.312 650.617 470.379C647.988 470.74 646.312 471.629 645.494 473.097C644.119 475.565 645.6 478.906 647.169 482.443C648.447 485.324 649.766 488.299 649.587 490.78C648.655 491.455 647.742 492.113 646.844 492.76C642.379 495.978 638.161 499.017 633.731 502.659C631.943 504.129 631.081 507.049 630.167 510.14C628.99 514.128 627.772 518.251 624.685 519.644C623.606 520.13 622.528 520.367 621.39 520.367C618.865 520.367 616.355 519.216 613.448 517.884C609.8 516.21 605.664 514.313 600.439 514.313C599.423 514.313 598.387 514.387 597.358 514.531C596.778 514.612 596.204 514.654 595.652 514.654C591.506 514.654 588.635 512.398 585.312 509.787C584.942 509.496 584.57 509.204 584.193 508.913C580.146 505.783 578.375 503.724 579.613 498.38C580.267 495.558 580.275 489.288 576.126 487.927C570.811 486.184 565.283 485.262 560.141 485.262C556.542 485.262 553.155 485.71 550.072 486.594C549.494 486.759 548.77 487.021 547.931 487.323C545.582 488.171 542.366 489.33 539.729 489.33C538.11 489.33 536.98 488.896 536.273 488.003C535.471 486.991 535.517 485.158 535.576 482.837C535.7 477.87 535.872 471.067 528.456 463.828C524.336 459.808 520.009 456.875 516.191 454.289C508.049 448.772 501.618 444.414 500.567 432.741C499.802 424.226 496.717 418.954 493.735 413.857C491.529 410.087 489.249 406.189 487.938 400.953C485.499 391.202 490.737 381.142 500.393 377.034L518.53 369.317C528.204 365.203 534.411 356.687 535.562 345.953L535.839 342.312C535.844 342.249 535.843 342.186 535.836 342.123C535.555 339.416 535.384 337.062 535.233 334.983C534.501 324.867 534.197 320.679 523.932 311.866C521.414 309.704 519.365 307.989 517.696 306.59C513.033 302.684 510.615 299.295 510.442 296.424C510.296 293.977 510.073 290.28 508.763 283.892C507.562 278.044 508.366 272.395 511.218 266.624C511.332 266.394 511.358 266.13 511.291 265.883C510.667 263.581 509.549 261.356 508.469 259.206C505.46 253.216 502.861 248.044 509.335 241.284C521.332 228.758 522.284 215.552 520.024 199.579C518.853 191.308 512.617 190.036 506.584 188.805C500.605 187.584 494.422 186.322 491.812 178.492C488.93 169.85 502.889 159.88 511.229 153.922C512.077 153.317 512.871 152.749 513.59 152.225C515.609 150.751 517.401 149.087 519.134 147.479C522.244 144.591 524.929 142.098 527.506 142.098C527.837 142.098 528.167 142.141 528.492 142.222C531.911 143.096 533.163 145.56 534.374 147.944C535.635 150.428 536.939 152.996 540.512 153.128C540.631 153.133 540.748 153.134 540.862 153.134C544.936 153.134 546.419 150.387 547.612 148.178C548.568 146.407 549.394 144.878 551.278 144.371C551.603 144.283 551.979 144.238 552.395 144.238C554.189 144.238 556.454 145.063 557.661 146.157C563.152 151.131 566.282 151.303 569.905 151.501C572.113 151.621 574.616 151.758 578.173 153.106C582.562 154.769 582.043 157.288 580.747 161.596C579.95 164.247 579.125 166.988 580.123 169.59C581.339 172.763 586.048 175.344 590.618 175.344C592.155 175.344 593.56 175.058 594.793 174.493C598.198 172.935 599.941 168.344 601.786 163.485C603.089 160.054 604.436 156.505 606.389 153.982C609.61 149.82 615.871 148.241 621.571 147.247C621.82 147.203 622.068 147.181 622.31 147.181C624.914 147.181 626.548 149.687 626.764 152.045L629.231 178.903C629.424 180.996 632.024 183.982 633.945 184.318C634.396 184.397 634.805 184.435 635.196 184.435H635.197C637.817 184.435 638.892 182.713 640.135 180.719C642.347 177.172 645.689 171.813 660.517 168.456C661.219 168.298 661.918 168.217 662.597 168.217C666.308 168.217 669.554 170.636 671.281 174.688C674.828 183.017 679.261 184.812 683.547 186.55C687.265 188.055 690.777 189.478 693.712 195.502C696.37 200.955 698.918 205.851 701.731 210.91C705.702 218.052 702.205 222.535 697.778 228.211C692.296 235.24 685.472 243.988 692.387 260.581C697.23 272.206 700.984 281.523 704.727 292.028L705.963 294.917C706.003 295.01 706.055 295.096 706.12 295.174C712.155 302.456 719.739 307.319 727.073 312.021C735.901 317.682 744.24 323.028 749.542 332.129C755.549 342.44 758.424 354.58 757.857 367.238L756.946 387.553C756.684 393.365 760.239 397.55 765.863 398.186C768.212 408.339 766.931 413.93 761.957 415.27C754.663 417.235 750.331 423.379 750.649 431.304C751.091 442.305 753.341 452.083 755.326 460.708C758.628 475.054 761.246 486.435 754.888 497.258C752.661 497.137 750.817 496.34 749.027 495.566C747.275 494.809 745.619 494.093 743.81 494.093C741.492 494.093 739.39 495.278 737.195 497.825C736.708 498.39 736.221 498.971 735.731 499.555C733.977 501.648 732.162 503.811 730.265 505.31C724.389 509.95 724.219 512.332 723.909 516.658C723.72 519.299 723.484 522.586 721.898 527.809C721.476 529.195 718.947 531.154 717.549 531.436C717.453 531.455 717.34 531.465 717.212 531.465L717.214 531.464Z" fill="#69C9CD"/>
<path d="M392.636 301.242C382.9 291.037 382.436 283.153 382.686 279.576C383.183 272.481 398.818 267.773 401.589 247.01C401.808 245.375 402.912 244.087 404.286 243.27C409.782 239.332 414.667 229.859 417.268 222.981C418.578 219.837 422.671 219.547 424.904 217.504C430.807 212.879 428.359 206.804 428.714 198.769C428.98 193.536 430.15 181.629 434.996 179.064C437.25 178.078 439.282 179.849 439.889 177.91C440.18 176.764 440.07 175.905 440.001 174.605C439.27 167.453 437.691 160.808 436.317 153.448C436.232 152.706 435.954 151.669 436.565 151.158C438.07 150.471 440.753 151.036 442.39 150.811C443.396 150.814 444.156 150.128 444.499 149.213C446.996 143.714 452.441 134.092 451.466 128.125C451.3 127.168 451.038 126.114 451.338 125.135C451.631 124.094 452.332 123.197 452.947 122.295C456.923 116.621 457.608 111.895 456.635 104.356C456.466 103.004 456.341 101.62 456.789 100.367C457.068 99.5234 457.625 98.778 458.215 98.0904C462.382 93.2959 463.965 89.0911 463.757 81.9918C463.725 80.6869 463.706 79.3449 464.141 78.1586C465.1 75.9463 467.072 74.7978 468.298 72.493C469.919 69.9347 470.073 67.3285 470.222 64.8858C470.168 61.5528 473.289 59.5556 474.444 56.9055C476.486 47.3227 470.43 28.3775 473.928 19.315C474.302 18.4123 474.625 17.4958 475.622 17.1945C478.514 16.1993 482.626 14.4943 484.277 11.3863C484.414 10.7296 484.015 10.0243 483.554 9.52249C481.544 7.5014 480.009 5.33848 480.203 3.0399C480.258 2.3793 480.38 1.34255 481.472 0.0506592" stroke="#DCDCD7" stroke-width="2.29925" stroke-linecap="round" stroke-linejoin="round"/>
<path d="M246 212C252.5 204.5 252.742 184.397 249.55 180.675C246.359 176.952 242.472 177.162 239.444 171.679C236.472 166.295 238.682 163.306 236.121 160.885C230.76 155.814 217.366 165.413 213.14 160.885C210.194 157.726 215.276 151.524 211.963 147.391C208.281 142.798 199.38 147.194 196.803 143.24C194.017 138.963 203.028 131.676 199.957 124.542C198.765 121.773 195.844 119.237 193.897 119.783C189.122 121.12 193.301 140.119 187.874 142.203C183.344 143.941 178.785 131.339 169.391 130.786C159.039 130.176 155.144 144.932 144.888 146.147C139.002 146.845 129.836 143.222 116.508 121.305" stroke="#DCDCD7" stroke-width="2.29925" stroke-linecap="round" stroke-linejoin="round"/>
<path d="M1205.47 572.176H1200C1195.81 572.176 1191.78 573.746 1188.7 576.575L1183.66 581.206C1182.08 582.656 1179.74 582.901 1177.9 581.808L1176.48 580.971C1174.91 580.04 1173.23 579.32 1171.47 578.83L1167.96 577.851C1164.94 577.008 1162.5 574.775 1161.4 571.84L1161.04 570.878" stroke="#DCDCD7" stroke-width="2.29925" stroke-linecap="round" stroke-linejoin="round"/>
</g>
<path d="M924.043 831V814.715H926.556V821.554C926.835 821.252 927.114 820.95 927.323 820.694L927.672 820.321L932.93 814.715H936.141L930.418 820.763L936.56 831H933.628L928.603 822.625L926.556 824.765V831H924.043ZM944.997 819.251L944.601 821.508C944.299 821.415 943.996 821.368 943.694 821.368C941.995 821.368 940.809 822.881 940.809 824.928V831H938.436V819.461H940.809V821.415C941.437 820.042 942.554 819.135 944.136 819.135C944.438 819.135 944.694 819.181 944.997 819.251ZM956.529 831H954.156C953.877 830.651 953.574 830.069 953.505 828.976C952.76 830.535 951.364 831.326 949.666 831.326C947.339 831.326 945.734 829.883 945.734 827.766C945.734 825.416 947.595 824.346 949.805 823.974L953.458 823.392V822.904C953.458 821.578 952.644 820.903 951.038 820.903C949.387 820.903 948.642 821.601 948.642 822.415C948.642 822.532 948.619 822.578 948.689 822.764L946.572 823.485C946.455 823.183 946.386 822.881 946.386 822.555C946.386 820.763 948.13 819.135 951.038 819.135C954.203 819.135 955.831 820.531 955.831 823.043V828.115C955.831 829.441 955.994 830.139 956.529 831ZM950.038 829.348C952.109 829.348 953.458 827.696 953.458 825.463V825.137L950.341 825.672C948.875 825.928 948.107 826.533 948.107 827.627C948.107 828.674 948.852 829.348 950.038 829.348ZM949.48 818.065L951.015 814.621H954.063L951.457 818.065H949.48ZM958.6 831V814.715H960.973V831H958.6ZM975.611 825.23C975.611 829.255 972.493 831.326 969.446 831.326C966.398 831.326 963.281 829.255 963.281 825.23C963.281 821.252 966.398 819.135 969.446 819.135C972.493 819.135 975.611 821.252 975.611 825.23ZM969.446 829.139C971.47 829.139 973.191 827.58 973.191 825.23C973.191 822.881 971.47 821.322 969.446 821.322C967.422 821.322 965.7 822.881 965.7 825.23C965.7 827.58 967.422 829.139 969.446 829.139ZM987.703 819.461L983.05 831H980.771L976.118 819.461H978.677L981.911 828.045L985.144 819.461H987.703ZM999.709 825.742H990.566C990.636 827.789 992.055 829.255 994.079 829.255C995.964 829.255 996.848 828.231 997.522 826.859L999.36 827.952C998.267 830.186 996.638 831.326 994.009 831.326C990.845 831.326 988.193 828.86 988.193 825.23C988.193 821.601 990.845 819.135 994.126 819.135C997.453 819.135 999.709 821.554 999.709 824.905V825.742ZM994.079 821.043C992.334 821.043 990.985 822.276 990.566 823.927H997.453C997.266 822.043 995.661 821.043 994.079 821.043ZM1012.53 823.206V831H1010.16V823.927C1010.16 822.252 1009.18 821.322 1007.6 821.322C1005.9 821.322 1004.44 822.741 1004.44 824.905V831H1002.06V814.715H1004.44V821.392C1005.3 820.019 1006.76 819.135 1008.44 819.135C1010.67 819.135 1012.53 820.554 1012.53 823.206ZM1022.11 819.251L1021.72 821.508C1021.42 821.415 1021.11 821.368 1020.81 821.368C1019.11 821.368 1017.93 822.881 1017.93 824.928V831H1015.55V819.461H1017.93V821.415C1018.55 820.042 1019.67 819.135 1021.25 819.135C1021.56 819.135 1021.81 819.181 1022.11 819.251ZM1033.65 831H1031.27C1030.99 830.651 1030.69 830.069 1030.62 828.976C1029.88 830.535 1028.48 831.326 1026.78 831.326C1024.46 831.326 1022.85 829.883 1022.85 827.766C1022.85 825.416 1024.71 824.346 1026.92 823.974L1030.58 823.392V822.904C1030.58 821.578 1029.76 820.903 1028.16 820.903C1026.5 820.903 1025.76 821.601 1025.76 822.415C1025.76 822.532 1025.74 822.578 1025.81 822.764L1023.69 823.485C1023.57 823.183 1023.5 822.881 1023.5 822.555C1023.5 820.763 1025.25 819.135 1028.16 819.135C1031.32 819.135 1032.95 820.531 1032.95 823.043V828.115C1032.95 829.441 1033.11 830.139 1033.65 831ZM1027.16 829.348C1029.23 829.348 1030.58 827.696 1030.58 825.463V825.137L1027.46 825.672C1025.99 825.928 1025.22 826.533 1025.22 827.627C1025.22 828.674 1025.97 829.348 1027.16 829.348ZM1046.97 814.715V831H1044.6V829.139C1043.86 830.442 1042.55 831.326 1040.79 831.326C1037.62 831.326 1035.18 828.929 1035.18 825.23C1035.18 821.531 1037.88 819.135 1040.74 819.135C1042.58 819.135 1043.93 819.903 1044.6 821.205V814.715H1046.97ZM1041.18 829.139C1043.16 829.139 1044.76 827.557 1044.76 825.23C1044.76 822.904 1043.16 821.322 1041.18 821.322C1039.2 821.322 1037.6 822.904 1037.6 825.23C1037.6 827.557 1039.2 829.139 1041.18 829.139ZM1060.8 825.742H1051.65C1051.72 827.789 1053.14 829.255 1055.17 829.255C1057.05 829.255 1057.94 828.231 1058.61 826.859L1060.45 827.952C1059.36 830.186 1057.73 831.326 1055.1 831.326C1051.93 831.326 1049.28 828.86 1049.28 825.23C1049.28 821.601 1051.93 819.135 1055.21 819.135C1058.54 819.135 1060.8 821.554 1060.8 824.905V825.742ZM1055.17 821.043C1053.42 821.043 1052.07 822.276 1051.65 823.927H1058.54C1058.36 822.043 1056.75 821.043 1055.17 821.043ZM1071.99 826.812L1073.83 827.999C1072.73 830.162 1070.94 831.326 1068.52 831.326C1065.17 831.326 1062.54 828.86 1062.54 825.23C1062.54 821.601 1065.29 819.135 1068.52 819.135C1071.06 819.135 1072.92 820.321 1073.74 822.276L1071.85 823.532C1071.01 821.834 1069.85 821.322 1068.55 821.322C1066.57 821.322 1064.96 822.787 1064.96 825.23C1064.96 827.673 1066.5 829.139 1068.55 829.139C1070.29 829.139 1071.22 828.278 1071.99 826.812ZM1078.22 814.715V823.346L1082.15 819.461H1085.06L1080.99 823.462L1085.76 831H1082.99L1079.29 825.137L1078.22 826.207V831H1075.85V814.715H1078.22ZM1087.22 835.653L1087.59 833.489C1087.87 833.606 1088.24 833.722 1088.64 833.722C1089.27 833.722 1089.59 833.536 1090.04 832.489L1090.57 831.07L1085.87 819.461H1088.59L1091.85 827.789L1095.08 819.461H1097.71L1092.13 833.326C1091.38 835.211 1090.29 835.909 1088.9 835.909C1088.27 835.909 1087.66 835.816 1087.22 835.653ZM1090.22 818.088L1091.76 814.645H1094.8L1092.2 818.088H1090.22ZM995.334 842.715V851.346L999.266 847.461H1002.17L998.103 851.462L1002.87 859H1000.1L996.404 853.137L995.334 854.207V859H992.961V842.715H995.334ZM1010.79 847.251L1010.39 849.508C1010.09 849.415 1009.78 849.368 1009.48 849.368C1007.78 849.368 1006.6 850.881 1006.6 852.928V859H1004.22V847.461H1006.6V849.415C1007.23 848.042 1008.34 847.135 1009.92 847.135C1010.23 847.135 1010.48 847.181 1010.79 847.251ZM1022.32 859H1019.94C1019.67 858.651 1019.36 858.069 1019.29 856.976C1018.55 858.535 1017.15 859.326 1015.45 859.326C1013.13 859.326 1011.52 857.883 1011.52 855.766C1011.52 853.416 1013.38 852.346 1015.59 851.974L1019.25 851.392V850.904C1019.25 849.578 1018.43 848.903 1016.83 848.903C1015.18 848.903 1014.43 849.601 1014.43 850.415C1014.43 850.532 1014.41 850.578 1014.48 850.764L1012.36 851.485C1012.24 851.183 1012.17 850.881 1012.17 850.555C1012.17 848.763 1013.92 847.135 1016.83 847.135C1019.99 847.135 1021.62 848.531 1021.62 851.043V856.115C1021.62 857.441 1021.78 858.139 1022.32 859ZM1015.83 857.348C1017.9 857.348 1019.25 855.696 1019.25 853.463V853.137L1016.13 853.672C1014.66 853.928 1013.9 854.533 1013.9 855.627C1013.9 856.674 1014.64 857.348 1015.83 857.348ZM1022.17 863.7L1022.47 861.536C1022.78 861.652 1023.1 861.722 1023.45 861.722C1024.36 861.722 1024.68 861.187 1024.68 860.07V847.461H1027.06V860.047C1027.06 862.397 1026.08 863.909 1023.59 863.909C1023.06 863.909 1022.43 863.769 1022.17 863.7ZM1024.52 845.623V842.947H1027.22V845.623H1024.52Z" fill="#DCDCD7"/>
<path d="M299.802 845.234C299.802 846.723 301.174 847.537 304.059 848.096C307.596 848.77 309.317 850.236 309.317 852.958C309.317 855.587 307.014 857.867 303.361 857.867C299.43 857.867 297.243 855.634 296.684 852.725L298.894 851.585C299.36 854.284 300.849 855.68 303.338 855.68C305.502 855.68 306.805 854.47 306.805 853.051C306.805 851.353 305.478 850.608 302.663 850.073C299.639 849.515 297.429 848.003 297.429 845.281C297.429 842.698 299.732 840.93 303.012 840.93C305.967 840.93 308.131 842.373 309.038 844.978L307.037 846.141C306.386 844.187 305.036 843.117 302.989 843.117C301.244 843.117 299.802 843.838 299.802 845.234ZM310.571 847.91V846.002H312.432V842.884H314.806V846.002H317.388V847.91H314.806V854.028C314.806 855.168 315.271 855.727 316.388 855.727C316.643 855.727 316.992 855.657 317.248 855.587L317.458 857.588C317.016 857.751 316.411 857.867 315.736 857.867C313.968 857.867 312.432 857.076 312.432 854.447V847.91H310.571ZM326.192 845.792L325.797 848.049C325.494 847.956 325.192 847.91 324.89 847.91C323.191 847.91 322.005 849.422 322.005 851.469V857.541H319.632V846.002H322.005V847.956C322.633 846.583 323.75 845.676 325.332 845.676C325.634 845.676 325.89 845.723 326.192 845.792ZM321.679 844.629L319.259 841.186H321.144L322.61 842.698L324.075 841.186H325.983L323.54 844.629H321.679ZM338.737 852.283H329.593C329.663 854.331 331.082 855.796 333.106 855.796C334.991 855.796 335.875 854.773 336.55 853.4L338.388 854.494C337.294 856.727 335.666 857.867 333.037 857.867C329.873 857.867 327.22 855.401 327.22 851.772C327.22 848.142 329.873 845.676 333.153 845.676C336.48 845.676 338.737 848.096 338.737 851.446V852.283ZM333.106 847.584C331.362 847.584 330.012 848.817 329.593 850.469H336.48C336.294 848.584 334.688 847.584 333.106 847.584ZM352.279 841.256V857.541H349.906V855.68C349.161 856.983 347.858 857.867 346.09 857.867C342.926 857.867 340.483 855.471 340.483 851.772C340.483 848.072 343.182 845.676 346.044 845.676C347.882 845.676 349.231 846.444 349.906 847.747V841.256H352.279ZM346.486 855.68C348.463 855.68 350.068 854.098 350.068 851.772C350.068 849.445 348.463 847.863 346.486 847.863C344.508 847.863 342.903 849.445 342.903 851.772C342.903 854.098 344.508 855.68 346.486 855.68ZM366.917 851.772C366.917 855.796 363.8 857.867 360.752 857.867C357.704 857.867 354.587 855.796 354.587 851.772C354.587 847.793 357.704 845.676 360.752 845.676C363.8 845.676 366.917 847.793 366.917 851.772ZM360.752 855.68C362.776 855.68 364.498 854.121 364.498 851.772C364.498 849.422 362.776 847.863 360.752 847.863C358.728 847.863 357.006 849.422 357.006 851.772C357.006 854.121 358.728 855.68 360.752 855.68ZM377.954 853.354L379.792 854.54C378.698 856.704 376.907 857.867 374.488 857.867C371.137 857.867 368.508 855.401 368.508 851.772C368.508 848.142 371.254 845.676 374.488 845.676C377.023 845.676 378.885 846.863 379.699 848.817L377.814 850.073C376.977 848.375 375.814 847.863 374.511 847.863C372.533 847.863 370.928 849.329 370.928 851.772C370.928 854.214 372.463 855.68 374.511 855.68C376.256 855.68 377.186 854.819 377.954 853.354ZM373.51 844.629L371.091 841.186H372.975L374.441 842.698L375.907 841.186H377.814L375.372 844.629H373.51ZM392.629 852.283H383.485C383.555 854.331 384.974 855.796 386.998 855.796C388.883 855.796 389.767 854.773 390.442 853.4L392.28 854.494C391.186 856.727 389.558 857.867 386.929 857.867C383.765 857.867 381.112 855.401 381.112 851.772C381.112 848.142 383.765 845.676 387.045 845.676C390.372 845.676 392.629 848.096 392.629 851.446V852.283ZM386.998 847.584C385.254 847.584 383.904 848.817 383.485 850.469H390.372C390.186 848.584 388.58 847.584 386.998 847.584ZM396.874 848.794C396.874 849.794 397.898 850.283 399.759 850.632C402.388 851.167 403.644 852.167 403.644 854.121C403.644 856.169 402.016 857.867 399.178 857.867C396.456 857.867 394.781 856.285 394.083 854.447L396.014 853.237C396.572 854.749 397.619 855.843 399.201 855.843C400.411 855.843 401.388 855.192 401.388 854.191C401.388 853.191 400.527 852.772 398.666 852.4C396.525 851.981 394.734 850.957 394.734 848.91C394.734 846.839 396.688 845.676 398.852 845.676C401.295 845.676 402.667 846.653 403.482 848.538L401.737 849.561C401.202 848.165 400.131 847.491 398.898 847.491C397.805 847.491 396.874 847.979 396.874 848.794ZM408.369 841.256V849.887L412.301 846.002H415.209L411.138 850.003L415.907 857.541H413.139L409.44 851.678L408.369 852.749V857.541H405.996V841.256H408.369ZM417.37 862.194L417.742 860.031C418.021 860.147 418.393 860.263 418.789 860.263C419.417 860.263 419.743 860.077 420.185 859.03L420.72 857.611L416.02 846.002H418.742L421.999 854.331L425.233 846.002H427.862L422.279 859.868C421.534 861.752 420.441 862.45 419.045 862.45C418.417 862.45 417.812 862.357 417.37 862.194ZM420.371 844.629L421.906 841.186H424.954L422.348 844.629H420.371ZM347.102 869.256V877.887L351.034 874.002H353.942L349.87 878.003L354.64 885.541H351.871L348.172 879.678L347.102 880.749V885.541H344.729V869.256H347.102ZM362.553 873.792L362.157 876.049C361.855 875.956 361.553 875.91 361.25 875.91C359.552 875.91 358.365 877.422 358.365 879.469V885.541H355.992V874.002H358.365V875.956C358.993 874.583 360.11 873.676 361.692 873.676C361.995 873.676 362.251 873.723 362.553 873.792ZM374.085 885.541H371.712C371.433 885.192 371.131 884.611 371.061 883.517C370.317 885.076 368.921 885.867 367.222 885.867C364.896 885.867 363.291 884.425 363.291 882.307C363.291 879.958 365.152 878.887 367.362 878.515L371.014 877.934V877.445C371.014 876.119 370.2 875.444 368.595 875.444C366.943 875.444 366.199 876.142 366.199 876.956C366.199 877.073 366.175 877.119 366.245 877.305L364.128 878.027C364.012 877.724 363.942 877.422 363.942 877.096C363.942 875.305 365.687 873.676 368.595 873.676C371.759 873.676 373.388 875.072 373.388 877.585V882.656C373.388 883.983 373.55 884.68 374.085 885.541ZM367.595 883.889C369.665 883.889 371.014 882.238 371.014 880.004V879.678L367.897 880.214C366.431 880.47 365.664 881.074 365.664 882.168C365.664 883.215 366.408 883.889 367.595 883.889ZM373.939 890.241L374.241 888.077C374.543 888.193 374.869 888.263 375.218 888.263C376.125 888.263 376.451 887.728 376.451 886.611V874.002H378.824V886.588C378.824 888.938 377.847 890.45 375.358 890.45C374.823 890.45 374.194 890.311 373.939 890.241ZM376.288 872.164V869.488H378.987V872.164H376.288Z" fill="#DCDCD7"/>
<path d="M869.185 208.336V192.051H876.304C879.84 192.051 882.166 193.982 882.166 197.239C882.166 200.496 879.84 202.427 876.304 202.427H871.697V208.336H869.185ZM871.697 194.284V200.193H876.211C878.467 200.193 879.654 199.077 879.654 197.239C879.654 195.401 878.467 194.284 876.211 194.284H871.697ZM895.278 202.566C895.278 206.591 892.16 208.662 889.112 208.662C886.065 208.662 882.947 206.591 882.947 202.566C882.947 198.588 886.065 196.471 889.112 196.471C892.16 196.471 895.278 198.588 895.278 202.566ZM889.112 206.475C891.136 206.475 892.858 204.916 892.858 202.566C892.858 200.217 891.136 198.658 889.112 198.658C887.088 198.658 885.367 200.217 885.367 202.566C885.367 204.916 887.088 206.475 889.112 206.475ZM897.59 208.336V192.051H899.963V208.336H897.59ZM904.929 199.589C904.929 200.589 905.953 201.078 907.814 201.426C910.443 201.962 911.699 202.962 911.699 204.916C911.699 206.964 910.07 208.662 907.232 208.662C904.51 208.662 902.835 207.08 902.137 205.242L904.068 204.032C904.626 205.544 905.673 206.638 907.255 206.638C908.465 206.638 909.442 205.986 909.442 204.986C909.442 203.986 908.581 203.567 906.72 203.195C904.58 202.776 902.788 201.752 902.788 199.705C902.788 197.634 904.743 196.471 906.906 196.471C909.349 196.471 910.722 197.448 911.536 199.333L909.791 200.356C909.256 198.96 908.186 198.286 906.953 198.286C905.859 198.286 904.929 198.774 904.929 199.589ZM916.424 192.051V200.682L920.356 196.797H923.264L919.192 200.798L923.962 208.336H921.193L917.494 202.473L916.424 203.544V208.336H914.051V192.051H916.424ZM936.174 202.566C936.174 206.591 933.056 208.662 930.009 208.662C926.961 208.662 923.843 206.591 923.843 202.566C923.843 198.588 926.961 196.471 930.009 196.471C933.056 196.471 936.174 198.588 936.174 202.566ZM930.009 206.475C932.033 206.475 933.754 204.916 933.754 202.566C933.754 200.217 932.033 198.658 930.009 198.658C927.985 198.658 926.263 200.217 926.263 202.566C926.263 204.916 927.985 206.475 930.009 206.475Z" fill="#DCDCD7"/>
<path d="M284.545 138.336V122.051H287.104L294.409 133.404C294.525 133.567 294.618 133.73 294.711 133.893C294.874 134.148 295.037 134.474 295.107 134.637V122.051H297.526V138.336H294.967L287.662 126.983C287.546 126.82 287.453 126.657 287.36 126.494C287.197 126.238 287.034 125.936 286.964 125.75V138.336H284.545ZM311.414 133.078H302.27C302.34 135.126 303.759 136.591 305.783 136.591C307.668 136.591 308.552 135.568 309.227 134.195L311.065 135.288C309.971 137.522 308.343 138.662 305.714 138.662C302.55 138.662 299.897 136.196 299.897 132.566C299.897 128.937 302.55 126.471 305.83 126.471C309.157 126.471 311.414 128.891 311.414 132.241V133.078ZM305.783 128.379C304.039 128.379 302.689 129.612 302.27 131.264H309.157C308.971 129.379 307.365 128.379 305.783 128.379ZM304.783 125.424L302.363 121.981H304.248L305.714 123.493L307.179 121.981H309.087L306.644 125.424H304.783ZM329.937 129.891V138.336H327.564V130.705C327.564 129.379 326.959 128.565 325.563 128.565C324.167 128.565 323.027 129.565 323.027 131.985V138.336H320.654V130.775C320.654 129.472 320.026 128.565 318.747 128.565C317.351 128.565 316.141 129.682 316.141 131.985V138.336H313.768V126.797H316.141V128.449C316.862 127.239 318.142 126.471 319.538 126.471C321.12 126.471 322.213 127.146 322.702 128.518C323.516 127.122 324.795 126.471 326.377 126.471C328.588 126.471 329.937 127.844 329.937 129.891ZM343.642 133.078H334.499C334.569 135.126 335.988 136.591 338.012 136.591C339.896 136.591 340.78 135.568 341.455 134.195L343.293 135.288C342.199 137.522 340.571 138.662 337.942 138.662C334.778 138.662 332.126 136.196 332.126 132.566C332.126 128.937 334.778 126.471 338.058 126.471C341.385 126.471 343.642 128.891 343.642 132.241V133.078ZM338.012 128.379C336.267 128.379 334.917 129.612 334.499 131.264H341.385C341.199 129.379 339.594 128.379 338.012 128.379ZM354.834 134.148L356.672 135.335C355.579 137.499 353.787 138.662 351.368 138.662C348.017 138.662 345.389 136.196 345.389 132.566C345.389 128.937 348.134 126.471 351.368 126.471C353.903 126.471 355.765 127.658 356.579 129.612L354.695 130.868C353.857 129.17 352.694 128.658 351.391 128.658C349.413 128.658 347.808 130.124 347.808 132.566C347.808 135.009 349.344 136.475 351.391 136.475C353.136 136.475 354.066 135.614 354.834 134.148ZM361.064 122.051V130.682L364.996 126.797H367.904L363.833 130.798L368.602 138.336H365.833L362.134 132.473L361.064 133.544V138.336H358.691V122.051H361.064ZM380.814 132.566C380.814 136.591 377.696 138.662 374.649 138.662C371.601 138.662 368.484 136.591 368.484 132.566C368.484 128.588 371.601 126.471 374.649 126.471C377.696 126.471 380.814 128.588 380.814 132.566ZM374.649 136.475C376.673 136.475 378.394 134.916 378.394 132.566C378.394 130.217 376.673 128.658 374.649 128.658C372.625 128.658 370.903 130.217 370.903 132.566C370.903 134.916 372.625 136.475 374.649 136.475Z" fill="#DCDCD7"/>
<path d="M14.3503 191.715V202.207C14.3503 206.116 11.6515 208.326 7.99894 208.326C4.34635 208.326 1.64761 206.116 1.64761 202.207V191.715H4.16023V202.137C4.16023 204.417 5.57939 206.046 7.99894 206.046C10.4185 206.046 11.8377 204.417 11.8377 202.137V191.715H14.3503ZM6.41693 190.342L7.95241 186.899H11.0001L8.39445 190.342H6.41693ZM19.5511 199.252C19.5511 200.253 20.5747 200.741 22.4359 201.09C25.0649 201.625 26.3212 202.626 26.3212 204.58C26.3212 206.627 24.6926 208.326 21.8543 208.326C19.1323 208.326 17.4572 206.744 16.7593 204.906L18.6903 203.696C19.2486 205.208 20.2955 206.302 21.8776 206.302C23.0873 206.302 24.0645 205.65 24.0645 204.65C24.0645 203.649 23.2037 203.231 21.3425 202.858C19.2021 202.44 17.4107 201.416 17.4107 199.369C17.4107 197.298 19.365 196.135 21.5286 196.135C23.9714 196.135 25.344 197.112 26.1583 198.996L24.4134 200.02C23.8783 198.624 22.8082 197.95 21.5751 197.95C20.4817 197.95 19.5511 198.438 19.5511 199.252ZM27.4455 198.368V196.461H29.3067V193.343H31.6797V196.461H34.2621V198.368H31.6797V204.487C31.6797 205.627 32.145 206.185 33.2617 206.185C33.5177 206.185 33.8666 206.116 34.1226 206.046L34.3319 208.047C33.8899 208.209 33.285 208.326 32.6103 208.326C30.8422 208.326 29.3067 207.535 29.3067 204.906V198.368H27.4455ZM46.9373 202.742H37.7942C37.864 204.789 39.2832 206.255 41.3072 206.255C43.1917 206.255 44.0758 205.231 44.7504 203.859L46.5884 204.952C45.4949 207.186 43.8664 208.326 41.2374 208.326C38.0734 208.326 35.4212 205.86 35.4212 202.23C35.4212 198.601 38.0734 196.135 41.3538 196.135C44.6806 196.135 46.9373 198.554 46.9373 201.905V202.742ZM41.3072 198.043C39.5624 198.043 38.213 199.276 37.7942 200.927H44.6806C44.4945 199.043 42.8892 198.043 41.3072 198.043ZM58.1296 203.812L59.9675 204.999C58.8741 207.162 57.0827 208.326 54.6631 208.326C51.313 208.326 48.684 205.86 48.684 202.23C48.684 198.601 51.4293 196.135 54.6631 196.135C57.199 196.135 59.0602 197.321 59.8745 199.276L57.99 200.532C57.1525 198.834 55.9892 198.322 54.6864 198.322C52.7089 198.322 51.1036 199.787 51.1036 202.23C51.1036 204.673 52.6391 206.139 54.6864 206.139C56.4313 206.139 57.3619 205.278 58.1296 203.812ZM64.3595 191.715V200.346L68.2913 196.461H71.1994L67.128 200.462L71.8973 208H69.1288L65.4297 202.137L64.3595 203.207V208H61.9865V191.715H64.3595ZM73.3598 212.653L73.732 210.489C74.0112 210.606 74.3834 210.722 74.7789 210.722C75.4071 210.722 75.7328 210.536 76.1748 209.489L76.7099 208.07L72.0104 196.461H74.7324L77.9895 204.789L81.2233 196.461H83.8522L78.2687 210.326C77.5242 212.211 76.4307 212.909 75.0348 212.909C74.4067 212.909 73.8018 212.816 73.3598 212.653ZM76.3609 195.088L77.8964 191.645H80.9441L78.3385 195.088H76.3609ZM27.3342 219.715V228.346L31.266 224.461H34.1741L30.1027 228.462L34.872 236H32.1035L28.4044 230.137L27.3342 231.207V236H24.9612V219.715H27.3342ZM42.7854 224.251L42.3899 226.508C42.0874 226.415 41.785 226.368 41.4825 226.368C39.7842 226.368 38.5977 227.881 38.5977 229.928V236H36.2247V224.461H38.5977V226.415C39.2258 225.042 40.3426 224.135 41.9246 224.135C42.227 224.135 42.4829 224.181 42.7854 224.251ZM54.3179 236H51.9448C51.6657 235.651 51.3632 235.069 51.2934 233.976C50.549 235.535 49.1531 236.326 47.4547 236.326C45.1282 236.326 43.5229 234.883 43.5229 232.766C43.5229 230.416 45.3841 229.346 47.5943 228.974L51.2469 228.392V227.904C51.2469 226.578 50.4326 225.903 48.8273 225.903C47.1755 225.903 46.4311 226.601 46.4311 227.415C46.4311 227.532 46.4078 227.578 46.4776 227.764L44.3605 228.485C44.2442 228.183 44.1744 227.881 44.1744 227.555C44.1744 225.763 45.9192 224.135 48.8273 224.135C51.9914 224.135 53.6199 225.531 53.6199 228.043V233.115C53.6199 234.441 53.7828 235.139 54.3179 236ZM47.827 234.348C49.8975 234.348 51.2469 232.696 51.2469 230.463V230.137L48.1294 230.672C46.6637 230.928 45.896 231.533 45.896 232.627C45.896 233.674 46.6404 234.348 47.827 234.348ZM54.171 240.7L54.4735 238.536C54.7759 238.652 55.1016 238.722 55.4506 238.722C56.3579 238.722 56.6836 238.187 56.6836 237.07V224.461H59.0566V237.047C59.0566 239.397 58.0795 240.909 55.5902 240.909C55.0551 240.909 54.4269 240.769 54.171 240.7ZM56.5208 222.623V219.947H59.2195V222.623H56.5208Z" fill="#DCDCD7"/>
<path d="M140.899 605.173V588.887H143.574L149.088 602.683L154.602 588.887H157.277V605.173H154.858V593.889L154.393 595.192L154.02 596.192L150.298 605.173H147.878L144.156 596.192L143.784 595.192L143.318 593.889V605.173H140.899ZM170.323 605.173H167.95C167.671 604.824 167.369 604.242 167.299 603.149C166.554 604.707 165.158 605.498 163.46 605.498C161.134 605.498 159.528 604.056 159.528 601.939C159.528 599.589 161.389 598.519 163.6 598.147L167.252 597.565V597.076C167.252 595.75 166.438 595.076 164.833 595.076C163.181 595.076 162.436 595.774 162.436 596.588C162.436 596.704 162.413 596.751 162.483 596.937L160.366 597.658C160.249 597.356 160.18 597.053 160.18 596.727C160.18 594.936 161.925 593.307 164.833 593.307C167.997 593.307 169.625 594.703 169.625 597.216V602.288C169.625 603.614 169.788 604.312 170.323 605.173ZM163.832 603.521C165.903 603.521 167.252 601.869 167.252 599.636V599.31L164.135 599.845C162.669 600.101 161.901 600.706 161.901 601.799C161.901 602.846 162.646 603.521 163.832 603.521ZM163.274 592.237L164.809 588.794H167.857L165.251 592.237H163.274ZM181.3 600.985L183.138 602.171C182.045 604.335 180.253 605.498 177.834 605.498C174.484 605.498 171.855 603.032 171.855 599.403C171.855 595.774 174.6 593.307 177.834 593.307C180.37 593.307 182.231 594.494 183.045 596.448L181.161 597.705C180.323 596.006 179.16 595.494 177.857 595.494C175.88 595.494 174.274 596.96 174.274 599.403C174.274 601.846 175.81 603.311 177.857 603.311C179.602 603.311 180.533 602.451 181.3 600.985ZM195.626 597.379V605.173H193.253V598.1C193.253 596.425 192.276 595.494 190.694 595.494C188.996 595.494 187.53 596.914 187.53 599.077V605.173H185.157V588.887H187.53V595.564C188.391 594.192 189.857 593.307 191.532 593.307C193.765 593.307 195.626 594.727 195.626 597.379ZM198.443 601.055V593.633H200.816V600.566C200.816 602.358 201.723 603.311 203.375 603.311C205.073 603.311 206.399 601.869 206.399 599.868V593.633H208.772V605.173H206.399V603.311C205.655 604.707 204.329 605.498 202.654 605.498C200.397 605.498 198.443 604.102 198.443 601.055ZM201.374 590.399C201.374 589.166 202.374 588.189 203.608 588.189C204.841 588.189 205.841 589.166 205.841 590.399C205.841 591.632 204.841 592.61 203.608 592.61C202.374 592.61 201.374 591.632 201.374 590.399ZM202.7 590.399C202.7 590.934 203.072 591.33 203.608 591.33C204.143 591.33 204.515 590.934 204.515 590.399C204.515 589.864 204.143 589.469 203.608 589.469C203.072 589.469 202.7 589.864 202.7 590.399ZM221.94 593.633L217.287 605.173H215.007L210.354 593.633H212.913L216.147 602.218L219.381 593.633H221.94ZM165.901 616.887V625.518L169.832 621.633H172.74L168.669 625.635L173.438 633.173H170.67L166.971 627.31L165.901 628.38V633.173H163.528V616.887H165.901ZM181.352 621.424L180.956 623.681C180.654 623.587 180.351 623.541 180.049 623.541C178.351 623.541 177.164 625.053 177.164 627.1V633.173H174.791V621.633H177.164V623.587C177.792 622.215 178.909 621.307 180.491 621.307C180.793 621.307 181.049 621.354 181.352 621.424ZM192.884 633.173H190.511C190.232 632.824 189.93 632.242 189.86 631.149C189.115 632.707 187.719 633.498 186.021 633.498C183.695 633.498 182.089 632.056 182.089 629.939C182.089 627.589 183.951 626.519 186.161 626.147L189.813 625.565V625.076C189.813 623.75 188.999 623.076 187.394 623.076C185.742 623.076 184.997 623.774 184.997 624.588C184.997 624.704 184.974 624.751 185.044 624.937L182.927 625.658C182.811 625.356 182.741 625.053 182.741 624.727C182.741 622.936 184.486 621.307 187.394 621.307C190.558 621.307 192.186 622.703 192.186 625.216V630.288C192.186 631.614 192.349 632.312 192.884 633.173ZM186.393 631.521C188.464 631.521 189.813 629.869 189.813 627.636V627.31L186.696 627.845C185.23 628.101 184.462 628.706 184.462 629.799C184.462 630.846 185.207 631.521 186.393 631.521ZM192.737 637.872L193.04 635.708C193.342 635.825 193.668 635.895 194.017 635.895C194.924 635.895 195.25 635.36 195.25 634.243V621.633H197.623V634.22C197.623 636.569 196.646 638.082 194.157 638.082C193.621 638.082 192.993 637.942 192.737 637.872ZM195.087 619.795V617.12H197.786V619.795H195.087Z" fill="#0E1D43"/>
<path d="M587.892 323.292V334.831C587.892 337.856 585.938 339.903 582.821 339.903C580.122 339.903 577.726 338.577 577.726 334.762L580.238 335.017C580.308 336.995 581.518 337.623 582.89 337.623C584.449 337.623 585.38 336.599 585.38 334.831V323.292H587.892ZM590.682 339.577V328.038H593.055V339.577H590.682ZM590.519 326.2V323.525H593.218V326.2H590.519ZM598.063 337.577H604.926V339.577H595.364V337.577L601.855 330.039H595.643V328.038H604.554V330.039L598.063 337.577ZM617.825 334.32H608.682C608.752 336.367 610.171 337.833 612.195 337.833C614.079 337.833 614.963 336.809 615.638 335.436L617.476 336.53C616.383 338.763 614.754 339.903 612.125 339.903C608.961 339.903 606.309 337.437 606.309 333.808C606.309 330.178 608.961 327.712 612.241 327.712C615.568 327.712 617.825 330.132 617.825 333.482V334.32ZM612.195 329.62C610.45 329.62 609.101 330.853 608.682 332.505H615.568C615.382 330.62 613.777 329.62 612.195 329.62ZM626.74 327.829L626.344 330.085C626.042 329.992 625.74 329.946 625.437 329.946C623.739 329.946 622.552 331.458 622.552 333.505V339.577H620.179V328.038H622.552V329.992C623.18 328.62 624.297 327.712 625.879 327.712C626.182 327.712 626.438 327.759 626.74 327.829ZM630.244 330.83C630.244 331.83 631.268 332.319 633.129 332.668C635.758 333.203 637.015 334.203 637.015 336.157C637.015 338.205 635.386 339.903 632.548 339.903C629.826 339.903 628.151 338.321 627.453 336.483L629.384 335.273C629.942 336.786 630.989 337.879 632.571 337.879C633.781 337.879 634.758 337.228 634.758 336.227C634.758 335.227 633.897 334.808 632.036 334.436C629.895 334.017 628.104 332.993 628.104 330.946C628.104 328.876 630.058 327.712 632.222 327.712C634.665 327.712 636.037 328.689 636.852 330.574L635.107 331.598C634.572 330.202 633.502 329.527 632.269 329.527C631.175 329.527 630.244 330.016 630.244 330.83ZM641.74 323.292V331.923L645.671 328.038H648.579L644.508 332.04L649.277 339.577H646.509L642.81 333.715L641.74 334.785V339.577H639.366V323.292H641.74ZM660.675 334.32H651.532C651.602 336.367 653.021 337.833 655.045 337.833C656.93 337.833 657.814 336.809 658.488 335.436L660.326 336.53C659.233 338.763 657.604 339.903 654.975 339.903C651.811 339.903 649.159 337.437 649.159 333.808C649.159 330.178 651.811 327.712 655.092 327.712C658.418 327.712 660.675 330.132 660.675 333.482V334.32ZM655.045 329.62C653.3 329.62 651.951 330.853 651.532 332.505H658.418C658.232 330.62 656.627 329.62 655.045 329.62ZM653.347 326.665L654.882 323.222H657.93L655.324 326.665H653.347ZM606.974 359.784V367.577H604.601V360.505C604.601 358.83 603.624 357.899 602.042 357.899C600.344 357.899 598.878 359.318 598.878 361.482V367.577H596.505V351.292H598.878V357.969C599.739 356.596 601.204 355.712 602.88 355.712C605.113 355.712 606.974 357.131 606.974 359.784ZM621.491 361.808C621.491 365.833 618.373 367.903 615.325 367.903C612.278 367.903 609.16 365.833 609.16 361.808C609.16 357.829 612.278 355.712 615.325 355.712C618.373 355.712 621.491 357.829 621.491 361.808ZM615.325 365.716C617.349 365.716 619.071 364.157 619.071 361.808C619.071 359.458 617.349 357.899 615.325 357.899C613.301 357.899 611.58 359.458 611.58 361.808C611.58 364.157 613.301 365.716 615.325 365.716ZM630.364 355.829L629.968 358.085C629.666 357.992 629.363 357.946 629.061 357.946C627.363 357.946 626.176 359.458 626.176 361.505V367.577H623.803V356.038H626.176V357.992C626.804 356.62 627.921 355.712 629.503 355.712C629.805 355.712 630.061 355.759 630.364 355.829ZM632.768 372.23L633.14 370.067C633.419 370.183 633.792 370.299 634.187 370.299C634.815 370.299 635.141 370.113 635.583 369.066L636.118 367.647L631.419 356.038H634.141L637.398 364.367L640.632 356.038H643.261L637.677 369.904C636.932 371.788 635.839 372.486 634.443 372.486C633.815 372.486 633.21 372.393 632.768 372.23Z" fill="#0E1D43"/>
<path d="M318.679 390.989V374.704H321.192V388.756H329.358V390.989H318.679ZM331.186 386.871V379.45H333.559V386.383C333.559 388.174 334.467 389.128 336.118 389.128C337.817 389.128 339.143 387.686 339.143 385.685V379.45H341.516V390.989H339.143V389.128C338.398 390.524 337.072 391.315 335.397 391.315C333.14 391.315 331.186 389.919 331.186 386.871ZM346.541 388.988H353.404V390.989H343.842V388.988L350.333 381.451H344.121V379.45H353.032V381.451L346.541 388.988ZM347.681 378.077L345.261 374.634H347.146L348.611 376.146L350.077 374.634H351.985L349.542 378.077H347.681ZM355.712 390.989V379.45H358.085V390.989H355.712ZM355.549 377.612V374.936H358.248V377.612H355.549ZM369.702 386.802L371.54 387.988C370.447 390.152 368.656 391.315 366.236 391.315C362.886 391.315 360.257 388.849 360.257 385.22C360.257 381.59 363.002 379.124 366.236 379.124C368.772 379.124 370.633 380.311 371.447 382.265L369.563 383.521C368.725 381.823 367.562 381.311 366.259 381.311C364.282 381.311 362.676 382.777 362.676 385.22C362.676 387.662 364.212 389.128 366.259 389.128C368.004 389.128 368.935 388.267 369.702 386.802ZM375.932 374.704V383.335L379.864 379.45H382.772L378.701 383.451L383.47 390.989H380.702L377.003 385.126L375.932 386.197V390.989H373.559V374.704H375.932ZM394.868 385.731H385.725C385.795 387.779 387.214 389.244 389.238 389.244C391.122 389.244 392.006 388.221 392.681 386.848L394.519 387.942C393.426 390.175 391.797 391.315 389.168 391.315C386.004 391.315 383.352 388.849 383.352 385.22C383.352 381.59 386.004 379.124 389.284 379.124C392.611 379.124 394.868 381.544 394.868 384.894V385.731ZM389.238 381.032C387.493 381.032 386.144 382.265 385.725 383.917H392.611C392.425 382.032 390.82 381.032 389.238 381.032ZM387.54 378.077L389.075 374.634H392.123L389.517 378.077H387.54ZM344.152 411.196V418.989H341.779V411.917C341.779 410.242 340.802 409.311 339.22 409.311C337.521 409.311 336.056 410.73 336.056 412.894V418.989H333.683V402.704H336.056V409.381C336.917 408.008 338.382 407.124 340.057 407.124C342.291 407.124 344.152 408.543 344.152 411.196ZM358.668 413.22C358.668 417.244 355.551 419.315 352.503 419.315C349.455 419.315 346.338 417.244 346.338 413.22C346.338 409.241 349.455 407.124 352.503 407.124C355.551 407.124 358.668 409.241 358.668 413.22ZM352.503 417.128C354.527 417.128 356.249 415.569 356.249 413.22C356.249 410.87 354.527 409.311 352.503 409.311C350.479 409.311 348.757 410.87 348.757 413.22C348.757 415.569 350.479 417.128 352.503 417.128ZM367.542 407.24L367.146 409.497C366.844 409.404 366.541 409.358 366.239 409.358C364.54 409.358 363.354 410.87 363.354 412.917V418.989H360.981V407.45H363.354V409.404C363.982 408.031 365.099 407.124 366.681 407.124C366.983 407.124 367.239 407.171 367.542 407.24ZM369.946 423.642L370.318 421.479C370.597 421.595 370.969 421.711 371.365 421.711C371.993 421.711 372.319 421.525 372.761 420.478L373.296 419.059L368.596 407.45H371.318L374.576 415.779L377.809 407.45H380.438L374.855 421.316C374.11 423.2 373.017 423.898 371.621 423.898C370.993 423.898 370.388 423.805 369.946 423.642Z" fill="#0E1D43"/>
<path d="M620.516 646.203L622.447 647.575C620.795 650.344 618.841 651.856 615.328 651.856C610.675 651.856 607.255 648.343 607.255 643.388C607.255 638.432 610.908 634.919 615.445 634.919C618.771 634.919 621.284 636.664 622.401 639.13L620.4 640.572C619.213 638.316 617.631 637.199 615.398 637.199C612.327 637.199 609.814 639.805 609.814 643.388C609.814 646.924 612.164 649.576 615.375 649.576C617.585 649.576 619.283 648.529 620.516 646.203ZM614.398 633.872L611.978 630.429H613.863L615.328 631.941L616.794 630.429H618.702L616.259 633.872H614.398ZM635.299 646.272H626.156C626.226 648.32 627.645 649.785 629.669 649.785C631.554 649.785 632.438 648.762 633.112 647.389L634.95 648.483C633.857 650.716 632.228 651.856 629.599 651.856C626.435 651.856 623.783 649.39 623.783 645.761C623.783 642.131 626.435 639.665 629.716 639.665C633.043 639.665 635.299 642.085 635.299 645.435V646.272ZM629.669 641.573C627.924 641.573 626.575 642.806 626.156 644.458H633.043C632.857 642.573 631.251 641.573 629.669 641.573ZM639.545 642.783C639.545 643.783 640.569 644.272 642.43 644.621C645.059 645.156 646.315 646.156 646.315 648.11C646.315 650.158 644.687 651.856 641.848 651.856C639.126 651.856 637.451 650.274 636.753 648.436L638.684 647.226C639.243 648.738 640.29 649.832 641.872 649.832C643.081 649.832 644.059 649.181 644.059 648.18C644.059 647.18 643.198 646.761 641.337 646.389C639.196 645.97 637.405 644.946 637.405 642.899C637.405 640.828 639.359 639.665 641.523 639.665C643.966 639.665 645.338 640.642 646.152 642.527L644.408 643.55C643.872 642.155 642.802 641.48 641.569 641.48C640.476 641.48 639.545 641.968 639.545 642.783ZM651.04 635.245V643.876L654.972 639.991H657.88L653.809 643.992L658.578 651.53H655.81L652.11 645.668L651.04 646.738V651.53H648.667V635.245H651.04ZM660.041 656.183L660.413 654.02C660.692 654.136 661.064 654.252 661.46 654.252C662.088 654.252 662.414 654.066 662.856 653.019L663.391 651.6L658.691 639.991H661.413L664.67 648.32L667.904 639.991H670.533L664.949 653.857C664.205 655.741 663.111 656.439 661.716 656.439C661.087 656.439 660.483 656.346 660.041 656.183ZM663.042 638.618L664.577 635.175H667.625L665.019 638.618H663.042ZM633.519 667.781L633.123 670.038C632.821 669.945 632.518 669.899 632.216 669.899C630.518 669.899 629.331 671.411 629.331 673.458V679.53H626.958V667.991H629.331V669.945C629.959 668.572 631.076 667.665 632.658 667.665C632.961 667.665 633.216 667.712 633.519 667.781ZM645.051 679.53H642.678C642.399 679.181 642.097 678.6 642.027 677.506C641.282 679.065 639.887 679.856 638.188 679.856C635.862 679.856 634.256 678.414 634.256 676.296C634.256 673.947 636.118 672.877 638.328 672.504L641.98 671.923V671.434C641.98 670.108 641.166 669.433 639.561 669.433C637.909 669.433 637.165 670.131 637.165 670.946C637.165 671.062 637.141 671.108 637.211 671.294L635.094 672.016C634.978 671.713 634.908 671.411 634.908 671.085C634.908 669.294 636.653 667.665 639.561 667.665C642.725 667.665 644.353 669.061 644.353 671.574V676.645C644.353 677.972 644.516 678.669 645.051 679.53ZM638.56 677.878C640.631 677.878 641.98 676.227 641.98 673.993V673.668L638.863 674.203C637.397 674.459 636.629 675.063 636.629 676.157C636.629 677.204 637.374 677.878 638.56 677.878ZM638.002 666.595L639.538 663.152H642.585L639.98 666.595H638.002ZM644.904 684.23L645.207 682.066C645.509 682.182 645.835 682.252 646.184 682.252C647.091 682.252 647.417 681.717 647.417 680.6V667.991H649.79V680.577C649.79 682.927 648.813 684.439 646.324 684.439C645.789 684.439 645.16 684.3 644.904 684.23ZM647.254 666.153V663.477H649.953V666.153H647.254Z" fill="#0E1D43"/>
<path d="M840.977 514.727V498.442H843.49V505.282C843.769 504.979 844.048 504.677 844.257 504.421L844.606 504.049L849.864 498.442H853.075L847.352 504.491L853.493 514.727H850.562L845.537 506.352L843.49 508.492V514.727H840.977ZM861.93 502.979L861.535 505.235C861.233 505.142 860.93 505.096 860.628 505.096C858.929 505.096 857.743 506.608 857.743 508.655V514.727H855.37V503.188H857.743V505.142C858.371 503.77 859.488 502.862 861.07 502.862C861.372 502.862 861.628 502.909 861.93 502.979ZM866.053 498.442V507.073L869.984 503.188H872.893L868.821 507.189L873.591 514.727H870.822L867.123 508.865L866.053 509.935V514.727H863.68V498.442H866.053ZM885.803 508.958C885.803 512.982 882.685 515.053 879.637 515.053C876.59 515.053 873.472 512.982 873.472 508.958C873.472 504.979 876.59 502.862 879.637 502.862C882.685 502.862 885.803 504.979 885.803 508.958ZM879.637 512.866C881.661 512.866 883.383 511.307 883.383 508.958C883.383 506.608 881.661 505.049 879.637 505.049C877.613 505.049 875.892 506.608 875.892 508.958C875.892 511.307 877.613 512.866 879.637 512.866ZM898.445 506.887V514.727H896.072V507.585C896.072 506.003 895.164 505.049 893.513 505.049C891.861 505.049 890.488 506.468 890.488 508.632V514.727H888.115V503.188H890.488V505.119C891.302 503.746 892.745 502.862 894.42 502.862C896.677 502.862 898.445 504.281 898.445 506.887ZM912.964 508.958C912.964 512.982 909.847 515.053 906.799 515.053C903.752 515.053 900.634 512.982 900.634 508.958C900.634 504.979 903.752 502.862 906.799 502.862C909.847 502.862 912.964 504.979 912.964 508.958ZM906.799 512.866C908.823 512.866 910.545 511.307 910.545 508.958C910.545 506.608 908.823 505.049 906.799 505.049C904.775 505.049 903.054 506.608 903.054 508.958C903.054 511.307 904.775 512.866 906.799 512.866ZM917.168 505.98C917.168 506.98 918.192 507.469 920.053 507.818C922.682 508.353 923.939 509.353 923.939 511.307C923.939 513.355 922.31 515.053 919.472 515.053C916.75 515.053 915.075 513.471 914.377 511.633L916.308 510.423C916.866 511.936 917.913 513.029 919.495 513.029C920.705 513.029 921.682 512.378 921.682 511.377C921.682 510.377 920.821 509.958 918.96 509.586C916.82 509.167 915.028 508.143 915.028 506.096C915.028 504.025 916.982 502.862 919.146 502.862C921.589 502.862 922.961 503.839 923.776 505.724L922.031 506.747C921.496 505.352 920.426 504.677 919.193 504.677C918.099 504.677 917.168 505.165 917.168 505.98ZM918.192 501.815L915.773 498.372H917.657L919.123 499.884L920.588 498.372H922.496L920.053 501.815H918.192ZM936.949 509.469H927.806C927.876 511.517 929.295 512.982 931.319 512.982C933.203 512.982 934.088 511.959 934.762 510.586L936.6 511.68C935.507 513.913 933.878 515.053 931.249 515.053C928.085 515.053 925.433 512.587 925.433 508.958C925.433 505.328 928.085 502.862 931.366 502.862C934.692 502.862 936.949 505.282 936.949 508.632V509.469ZM931.319 504.77C929.574 504.77 928.225 506.003 927.806 507.655H934.692C934.506 505.77 932.901 504.77 931.319 504.77Z" fill="#0E1D43"/>
<defs>
<clipPath id="clip0_115_672">
<rect width="1081.33" height="718.92" fill="white" transform="translate(98.0049 188.08)"/>
</clipPath>
<clipPath id="clip1_115_672">
<rect width="1128.56" height="906.638" fill="white" transform="translate(77.9648)"/>
</clipPath>
</defs>
</svg>
