<svg
                  xmlns="http://www.w3.org/2000/svg"
                  width="24"
                  height="24"
                  viewBox="0 0 24 24"
                  fill="none"
                >
                  <path
                    d="M7.8 2H16.2C19.4 2 22 4.6 22 7.8V16.2C22 19.4 19.4 22 16.2 22H7.8C4.6 22 2 19.4 2 16.2V7.8C2 4.6 4.6 2 7.8 2ZM7.6 4C5.6 4 4 5.6 4 7.6V16.4C4 18.4 5.6 20 7.6 20H16.4C18.4 20 20 18.4 20 16.4V7.6C20 5.6 18.4 4 16.4 4H7.6ZM12 7.25C14.6234 7.25 16.75 9.37665 16.75 12C16.75 14.6234 14.6234 16.75 12 16.75C9.37665 16.75 7.25 14.6234 7.25 12C7.25 9.37665 9.37665 7.25 12 7.25ZM12 9.25C10.4812 9.25 9.25 10.4812 9.25 12C9.25 13.5188 10.4812 14.75 12 14.75C13.5188 14.75 14.75 13.5188 14.75 12C14.75 10.4812 13.5188 9.25 12 9.25ZM17.25 5.5C17.9404 5.5 18.5 6.05964 18.5 6.75C18.5 7.44036 17.9404 8 17.25 8C16.5596 8 16 7.44036 16 6.75C16 6.05964 16.5596 5.5 17.25 5.5Z"
                    fill="#0E1D43"
                  />
                </svg>