<svg
              xmlns="http://www.w3.org/2000/svg"
              width="48"
              height="48"
              viewBox="0 0 48 48"
              fill="none"
            >
              <path
                d="M18.9997 1C21.7608 1.00043 23.9996 3.23884 23.9996 6V13.6055C25.11 13.2107 26.3554 13.1353 27.6052 13.4824L37.6052 16.2598C40.2016 16.9814 41.9996 19.346 41.9996 22.041V31.002C41.9988 39.2854 35.283 46.0016 26.9996 46.002C22.0832 46.002 18.3426 44.6164 15.3668 42.004C12.4672 39.4578 10.4499 35.876 8.66762 31.8028C6.80794 27.5524 5.77874 24.9612 5.2184 23.4472C4.50558 21.5196 5.4926 18.826 8.17154 18.6387L8.66762 18.6172C10.763 18.5883 12.5535 19.3203 13.9997 20.5196V6C13.9997 3.23858 16.2382 1 18.9997 1ZM18.9997 5C18.4474 5 17.9997 5.44772 17.9997 6V28H16.0094L14.0387 28.3946C13.343 24.9154 11.3695 22.9012 9.19496 22.6504C9.76306 24.1406 10.7245 26.5258 12.3317 30.1992C14.0491 34.1242 15.7828 37.0448 18.0075 38.998C20.1564 40.8842 22.9174 42.002 26.9996 42.002C33.074 42.0016 37.9988 37.076 37.9996 31.002V22.041C37.9996 21.1428 37.4002 20.354 36.5348 20.1132L26.5348 17.3359C25.2608 16.982 24.0002 17.9395 23.9996 19.2617V22H19.9997V6C19.9997 5.44794 19.5516 5.00038 18.9997 5Z"
                fill="#69C9CD"
              />
            </svg>